<?xml version="1.0" standalone="no"?>
<!DOCTYPE svg PUBLIC "-//W3C//DTD SVG 1.1//EN" "http://www.w3.org/Graphics/SVG/1.1/DTD/svg11.dtd">
<svg xmlns="http://www.w3.org/2000/svg"><metadata>This SVG WebFont was generated by YouWorkForThem.
Copyright Â© 2020 by Emyself Design. All rights reserved.</metadata><defs><font horiz-adv-x="913" id="ywftsvg"><font-face ascent="1638" bbox="-850 -1227 2816 2163" cap-height="1501.5" descent="-410" font-family="" font-stretch="normal" font-weight="400" panose-1="0 0 5 0 0 0 0 0 0 0" underline-position="0" underline-thickness="0" unicode-range="U+0020-E044" units-per-em="2048" x-height="803"/><missing-glyph d="M1067 1884v-2601h-825v2601h825zM866 1710h-430v-86h170v-96h-172v-86h432v86h-172v96h172v86zM694 1374h-260v-270h432v88h-172v182zM606 1286v-94h-86v94h86zM866 1034h-432v-86h172v-96h-172v-86h260v182h172v86zM866 879h-86v-172h-346v-89h432v261zM866 561h-260 v-147h88v61h86v-123h-260v209h-86v-295h432v295zM866 111h-432v-295h432v295zM780 25v-123h-260v123h260zM866 -244h-432v-86h182l-182 -121v-86h432v86h-266l182 121h84v86z" horiz-adv-x="1300"/><glyph d="M1505 408l25 -35q-242 -276 -432.5 -374.5t-296.5 3.5q-147 207 358 592q-164 -78 -254 -66q-215 -154 -325 -36q-2 -102 -40 -198.5t-97.5 -161t-131 -111t-138.5 -46.5t-120 33q-70 57 -76 180t43.5 271.5t131 312.5t191.5 308.5t220.5 254t221 157.5t190.5 9 q123 -57 76 -217q-51 -178 -258 -346q-182 -145 -414 -219l-17 63q162 59 269.5 128t150.5 126.5t54.5 109.5t-1 86t-34.5 48q-47 29 -120 -3t-146.5 -107.5t-148.5 -176t-129 -215t-86 -218t-20.5 -188.5t68.5 -124q51 -31 110.5 -18.5t106.5 63.5t69.5 139t0.5 209 q0 6 -3 19.5t-5 21.5l45 10q2 -6 14 -41q78 -197 248 -45q-20 68 44 150t165 123l28 -17q-39 -55 45 -94q109 -49 263 -8q68 18 125 53l26 -35q-55 -41 -101 -76.5t-98.5 -78.5t-92.5 -81t-78.5 -79t-63.5 -79t-39 -73t-12 -67.5t22 -59.5q121 -120 467 224z" glyph-name="uniE027" horiz-adv-x="1456" unicode="br"/><glyph d="M1458 440q-319 -344 -528 -434q-29 -16 -76 -26q-23 -6 -41 -7q-141 0 -191.5 79t-15.5 185.5t123 202.5q-96 -14 -149 35q-4 -98 -44 -191.5t-99.5 -157t-130 -107.5t-135.5 -44t-118 33q-70 57 -76 180t43.5 271.5t131 312.5t191.5 308.5t220.5 254t221 157.5t190.5 9 q123 -57 76 -217q-51 -178 -258 -346q-182 -145 -414 -219l-17 63q162 59 269.5 128t150.5 126.5t54.5 109.5t-1 86t-34.5 48q-47 29 -120 -3t-146.5 -107.5t-148.5 -176t-129 -215t-86 -218t-20.5 -188.5t68.5 -124q109 -66 214.5 40.5t78.5 317.5q-6 29 -14 76l45 10 q2 -8 7 -21.5t7 -17.5q10 -33 17.5 -50t20.5 -44t28.5 -39t38 -23.5t54.5 -10.5t72 12l13 -39q-63 -47 -78 -131q-16 -88 59 -97q16 -2 37 2q84 16 120 64.5t37 114t-5 134t7 143.5t60 122q80 63 164 16t92 -155l-26 -23q-23 27 -56.5 28t-74.5 -36q-51 -63 -69.5 -149 t-23 -190.5t-14.5 -151.5q156 63 395 319z" glyph-name="uniE028" horiz-adv-x="1341" unicode="bs"/><glyph d="M1698 762q-66 -2 -153 -59.5t-152.5 -119t-178.5 -175.5q-33 -145 64 -187q78 -23 159 24.5t183 164.5l27 -29q-346 -467 -504 -399q-53 25 -63.5 82t1 101t43.5 138q4 12 6 19q-162 -162 -285.5 -252t-238.5 -93v46q68 8 136.5 40.5t148.5 100t130 117t142 143.5 q43 156 -45 197q-20 8 -37.5 9t-37 -6.5t-35 -15.5t-38 -29.5t-39 -37t-47 -47t-53.5 -52.5q-94 -141 -213.5 -250.5t-235.5 -166t-220.5 -52.5t-165.5 76q-49 70 -36 161t60.5 178t124.5 173q115 129 286 210t247 22q82 -63 14.5 -181t-235.5 -192l-15 35q129 88 54 159 q-72 59 -196 0t-165 -168.5t64 -230.5q43 -33 103 -35t134 25.5t163 94.5t179 165l4 -2l-4 4q29 33 70 82t70.5 83t67.5 75t68.5 64.5t64.5 41.5t67 17t65 -19q37 -25 42 -76t-4 -85t-38 -118q-6 -18 -8 -26q139 141 247.5 218t209.5 79z" glyph-name="uniE029" horiz-adv-x="1568" unicode="cx"/><glyph d="M1845 526l45 -39q-51 -61 -120.5 -116.5t-113.5 -81t-135 -72.5t-114 -59q-127 -256 -249 -440.5t-246 -282t-214 -45.5q-82 63 -67.5 154t111 202t247 223.5t340.5 223.5l117 219q41 84 -23 125q-70 45 -172 -13q-51 -29 -96 -82l2 -2q-385 -514 -557 -422 q-92 45 -14 297q-311 -412 -508 -352q-63 18 -103.5 73.5t-34 157t82.5 220.5q166 252 383 361.5t374 -1.5q150 297 398 721l53 -25q-78 -139 -138.5 -249.5t-132 -250t-115.5 -247t-78 -208.5t-32 -168.5t37 -94.5q104 -59 326 199q221 274 389 323q113 33 131 -57 q12 -53 -16 -137q-57 -143 -142 -318q29 14 93.5 41t101.5 46.5t91 65t99 111.5zM1671.5 868q-61.5 0 -104.5 44t-43 104q0 61 43 105t104.5 44t105.5 -44t44 -105q0 -59 -44 -103.5t-105.5 -44.5zM215 205q168 -37 422 254l25 61q-164 94 -326 54.5t-238 -171.5 q-39 -74 5 -127t112 -71zM844 -336q51 -49 163.5 61.5t254.5 346.5q-225 -139 -342 -246t-76 -162z" glyph-name="uniE02A" horiz-adv-x="1730" unicode="dj"/><glyph d="M811 508q57 -141 178 -210t285 -9l16 -45q-287 -106 -434 -8q12 -90 12 -176.5t-14 -164t-37.5 -147.5t-56.5 -129t-70 -106.5t-79 -79t-84 -49t-85 -16.5t-80 22q-55 33 -66 106.5t24.5 194.5t111.5 281.5t199 377.5q-106 -78 -219 -82t-176 47q27 -121 27.5 -240.5 t-23 -219t-62.5 -189.5t-90 -149.5t-107.5 -101.5t-115 -45t-109.5 20q-164 96 67.5 576t909.5 1535l45 -43q-346 -522 -571 -946q68 -113 215 -128t291 110q246 418 626 1007l45 -43q-337 -510 -573 -950zM-20 -385q61 -27 125.5 90t83 300t-38.5 396q-348 -692 -170 -786z M586 -385q57 -27 118.5 78.5t86 274.5t-16.5 372q-12 27 -18 59q-352 -690 -170 -784z" glyph-name="uniE02B" horiz-adv-x="1212" unicode="ff"/><glyph d="M1628.5 868q-61.5 0 -104.5 44t-43 104q0 61 43 105t104.5 44t105.5 -44t44 -105q0 -59 -44 -103.5t-105.5 -44.5zM1802 526l45 -39q-51 -61 -120.5 -116.5t-113.5 -81t-135.5 -72.5t-113.5 -59q-127 -256 -249 -440.5t-246 -282t-214 -45.5q-82 63 -67.5 154t111 202 t247 223.5t340.5 223.5l117 219q43 86 -19 127q-70 43 -180 -25q-45 -27 -88 -70q-137 -180 -481 -383q-100 -162 -206.5 -291.5t-203 -211.5t-181.5 -124t-150.5 -34t-102.5 65q-29 61 0 123t137.5 138.5t186.5 123t258 142.5q158 84 235 129q86 139 156 289 q-164 -211 -341 -347.5t-319 -95.5q-68 20 -109.5 79.5t-34.5 164t85 227.5q115 172 275.5 277.5t309 110.5t261.5 -99q4 14 11 41t11 39l64 -16q-115 -326 -275 -615q270 162 379 297q178 244 342 297q115 39 146 -43q20 -55 -10 -147q-57 -143 -142 -318q29 14 93.5 41 t101.5 46.5t91 65t99 111.5zM248 221q102 -23 237.5 35.5t276.5 218.5q-178 119 -368.5 103.5t-268.5 -148.5q-35 -57 -12.5 -102t57.5 -69t78 -38zM801 -336q51 -49 163.5 61.5t254.5 346.5q-225 -139 -342 -246t-76 -162zM45 -385q55 -61 192.5 51.5t290.5 333.5 q-315 -178 -344 -197q-178 -120 -139 -188z" glyph-name="uniE02C" horiz-adv-x="1687" unicode="gj"/><glyph d="M1980 762q-66 -2 -152.5 -59.5t-152 -119t-178.5 -175.5q-33 -145 64 -187q78 -23 158.5 24.5t183.5 164.5l26 -29q-346 -467 -504 -399q-53 25 -63 82t1 101t44 138q4 12 6 19q-162 -162 -285.5 -252t-238.5 -93v46q68 8 136.5 40.5t148 100t130 117t142.5 143.5 q43 156 -45 197q-20 8 -37.5 9t-37 -6.5t-34 -15.5t-37 -28.5t-39 -36t-47 -46l-51.5 -51.5q-152 -164 -465 -354q-100 -168 -208.5 -304t-208 -221t-186.5 -130t-154.5 -37t-104.5 65q-14 33 -13 65t17.5 62.5t45 62.5t68.5 63.5t89 64.5t105.5 65.5t118 67.5t124.5 70 q180 98 270 151q76 121 148 273q-164 -211 -341 -347.5t-319 -95.5q-68 20 -109.5 79.5t-34.5 164t85 227.5q115 172 275.5 277.5t309 110.5t261.5 -99q4 14 11 41t11 39l64 -16q-111 -315 -266 -598q229 141 350 274q29 33 69.5 82t70.5 83t68 75t68.5 64.5t64.5 41.5 t66.5 17t65.5 -19q37 -25 42 -76t-4 -85t-38 -118q-6 -18 -8 -26q139 141 247.5 218t208.5 79zM248 221q102 -23 237.5 35.5t276.5 218.5q-178 119 -368.5 103.5t-268.5 -148.5q-35 -57 -12.5 -102t57.5 -69t78 -38zM45 -385q59 -63 202.5 58.5t301.5 357.5 q-322 -188 -377 -228q-172 -118 -127 -188z" glyph-name="uniE02D" horiz-adv-x="1851" unicode="gx"/><glyph d="M1050.5 868q-61.5 0 -104.5 44t-43 104q0 61 43 105t104.5 44t105.5 -44t44 -105q0 -59 -44 -103.5t-105.5 -44.5zM459 872q-55 0 -93 38t-38 93.5t37.5 93.5t93.5 38q57 0 94 -38t37 -93.5t-37 -93.5t-94 -38zM1225 526l45 -39q-51 -61 -121 -116.5t-114 -81t-135 -72.5 t-114 -59q-127 -256 -248.5 -440.5t-245.5 -282t-214 -45.5q-82 63 -67.5 154t110.5 202t246.5 223.5t341.5 223.5l116 219q41 82 -22 123q-68 45 -168 -9q-59 -33 -109 -96q-143 -221 -307 -350t-246 -84q-45 29 -57 78t11.5 116.5t59.5 137t99.5 158.5t118.5 160t131 161 l45 -41q-147 -188 -220 -348t-28 -203q45 -45 155.5 28.5t205.5 217.5q135 250 303 319q119 49 176 -24q47 -61 8 -176q-57 -143 -141 -318q29 14 93 41t101 46.5t91.5 65t99.5 111.5zM223 -336q51 -49 164 61.5t254 346.5q-225 -139 -342 -246t-76 -162z" glyph-name="uniE02E" horiz-adv-x="1110" unicode="ij"/><glyph d="M1714 526l45 -39q-51 -61 -120.5 -116.5t-113.5 -81t-135.5 -72.5t-113.5 -59q-127 -256 -249 -440.5t-246 -282t-214 -45.5q-82 63 -67.5 154t111 202t247 223.5t340.5 223.5l117 219q41 82 -23 123q-70 45 -172 -11q-55 -31 -100 -88q-162 -242 -383 -375 q-233 -139 -369 -57q-76 47 -102 164l186 111q338 217 277 292q-63 70 -293 -88.5t-371 -371.5l-67 -123l-54 30l815 1483l56 -31l-596 -1081q199 236 414 364t307 33q154 -176 -430 -546q45 -78 137 -84t214 74.5t226 238.5q135 246 301 311q119 47 174 -24q47 -61 8 -176 q-57 -143 -141 -318q29 14 93.5 41t101.5 46.5t91 65t99 111.5zM1540.5 868q-61.5 0 -104.5 44t-43 104q0 61 43 105t104.5 44t105.5 -44t44 -105q0 -59 -44 -103.5t-105.5 -44.5zM713 -336q51 -49 163.5 61.5t253.5 346.5q-225 -139 -341.5 -246t-75.5 -162z" glyph-name="uniE02F" horiz-adv-x="1599" unicode="kj"/><glyph d="M1892 762q-66 -2 -152.5 -59.5t-152 -119t-178.5 -175.5q-33 -145 64 -187q78 -23 158.5 24.5t183.5 164.5l26 -29q-346 -467 -504 -399q-53 25 -63 82t1 101t44 138q4 12 6 19q-162 -162 -286 -252t-238 -93v46q68 8 136.5 40.5t148 100t130 117t142.5 143.5 q43 156 -45 197q-20 8 -39 9t-39.5 -6.5t-35.5 -17.5t-38.5 -31.5t-42 -40t-50.5 -50t-58 -56.5q-203 -279 -430 -399q-233 -123 -349 2q-45 49 -65 137l186 111q338 217 277 292q-63 70 -293 -88.5t-371 -371.5l-67 -123l-54 30l815 1483l56 -31l-596 -1081 q199 236 414 364t307 33q154 -176 -430 -546q63 -115 208.5 -57.5t354.5 284.5q29 33 69.5 82t70.5 83t68 75t68.5 64.5t64.5 41.5t66.5 17t65.5 -19q37 -25 42 -76t-4 -85t-38 -118q-6 -18 -8 -26q139 141 247.5 218t208.5 79z" glyph-name="uniE030" horiz-adv-x="1763" unicode="kx"/><glyph d="M1990.5 868q-61.5 0 -104.5 44t-43 104q0 61 43 105t104.5 44t105.5 -44t44 -105q0 -59 -44 -103.5t-105.5 -44.5zM2165 526l45 -39q-51 -61 -121 -116.5t-114 -81t-135 -72.5t-114 -59q-127 -256 -248.5 -440.5t-245.5 -282t-214 -45.5q-82 63 -67.5 154t110.5 202 t246.5 223.5t341.5 223.5l116 219q41 84 -22 125q-70 45 -172 -13q-51 -31 -96 -84q-158 -240 -384.5 -400.5t-314.5 -84.5q-47 47 -22.5 113.5t86 130t120 134t81 124t-30.5 100.5q-111 72 -308 -145q-76 -84 -321 -416q-2 -4 -6 -8l-10 -17h-3l-40 17q27 49 81 137 t83.5 142.5t57 119t24.5 106.5t-38 66q-37 20 -74.5 18t-82.5 -31.5t-91 -73.5t-99.5 -107.5t-105.5 -132t-112 -148.5q-55 -76 -84 -113l-53 27l438 799l56 -31l-291 -524q442 651 663 551q123 -63 6 -295q303 371 476 295q70 -43 64.5 -116t-60 -145.5t-111.5 -151.5 t-89 -134.5t7 -93.5q61 -45 187 43t256 258q135 254 301 325q121 51 180 -18q49 -61 10 -180q-57 -143 -141 -318q29 14 93 41t101 46.5t91.5 65t99.5 111.5zM1163 -336q51 -49 164 61.5t254 346.5q-225 -139 -342 -246t-76 -162z" glyph-name="uniE031" horiz-adv-x="2050" unicode="mj"/><glyph d="M2343 762q-66 -2 -153 -59.5t-152.5 -119t-177.5 -175.5q-33 -145 63 -187q78 -23 159 24.5t183 164.5l27 -29q-346 -467 -504 -399q-53 25 -63.5 82t1 101t43.5 138q4 12 7 19q-162 -162 -286 -252t-239 -93v46q68 8 136.5 40.5t148.5 100t130 117t142 143.5 q43 156 -45 197q-20 8 -38.5 9t-38 -6.5t-35 -17.5t-39 -30.5t-42 -39t-50 -49t-56.5 -55.5q-55 -61 -97 -104t-98.5 -100.5t-99.5 -96.5t-94 -82t-92 -66.5t-80 -39t-70.5 -12.5t-56.5 24q-47 47 -22.5 113.5t86 130t120 134t81 124t-30.5 100.5q-111 72 -308 -145 q-76 -84 -321 -416q-2 -4 -6 -8l-10 -17h-3l-40 17q27 49 81 137t83.5 142.5t57 119t24.5 106.5t-38 66q-37 20 -74.5 18t-82.5 -31.5t-91 -73.5t-99.5 -107.5t-105.5 -132t-112 -148.5q-55 -76 -84 -113l-53 27l438 799l56 -31l-291 -526q442 651 663 553q123 -63 6 -295 q303 371 476 295q70 -43 64.5 -116t-60 -145.5t-111.5 -151.5t-89 -134.5t7 -93.5q23 -16 68 2t98 62t112.5 99.5t116.5 110.5l43 43q29 31 70 81t69.5 84t66.5 74t69 63.5t64.5 41.5t66.5 17t65 -19q37 -25 42.5 -76t-4 -85t-38.5 -118q-6 -18 -8 -26q139 141 248 218 t209 79z" glyph-name="uniE032" horiz-adv-x="2213" unicode="mx"/><glyph d="M1554.5 868q-61.5 0 -104.5 44t-43 104q0 61 43 105t104.5 44t105.5 -44t44 -105q0 -59 -44 -103.5t-105.5 -44.5zM1729 526l45 -39q-51 -61 -121 -116.5t-114 -81t-135 -72.5t-114 -59q-127 -256 -248.5 -440.5t-245.5 -282t-214 -45.5q-82 63 -68 154t110.5 202 t247 223.5t340.5 223.5l117 219q41 82 -22 123q-68 45 -168 -9q-59 -33 -109 -96q-178 -244 -403.5 -398.5t-315.5 -76.5q-47 47 -22.5 117.5t90 137t126 140.5t85 130.5t-30.5 105.5q-111 76 -315 -152q-82 -92 -328 -422l-29 -51l-55 33l455 825l57 -33l-260 -469 q426 602 643 506q61 -39 66.5 -99t-33.5 -123.5t-90.5 -134.5t-100.5 -130.5t-65.5 -111.5t12.5 -77q63 -49 215 54.5t264 253.5q135 254 303 323q119 51 177 -20q49 -61 10 -178q-57 -143 -142 -318q29 14 93.5 41t101.5 46.5t91.5 65t99.5 111.5zM727 -336 q51 -49 164 61.5t254 346.5q-225 -139 -342 -246t-76 -162z" glyph-name="uniE033" horiz-adv-x="1613" unicode="nj"/><glyph d="M1907 762q-66 -2 -153 -59.5t-152.5 -119t-178.5 -175.5q-33 -145 64 -187q78 -23 158.5 24.5t183.5 164.5l26 -29q-346 -467 -503 -399q-53 25 -63.5 82t0.5 101t44 138q4 12 6 19q-162 -162 -285.5 -252t-238.5 -93v46q68 8 136.5 40.5t148.5 100t130 117t142 143.5 q43 156 -45 197q-20 8 -38.5 9t-39 -6.5t-36 -17.5t-39 -31.5t-42 -40l-50 -50t-58.5 -56.5q-137 -154 -270 -273.5t-259 -184t-184 -15.5q-47 47 -22.5 117.5t90 137t126 140.5t85 130.5t-30.5 105.5q-111 76 -315 -152q-82 -92 -328 -422l-29 -51l-55 33l455 825l57 -33 l-260 -469q426 602 643 506q61 -39 66.5 -99t-33.5 -123.5t-90.5 -134.5t-100.5 -130.5t-65.5 -111.5t12.5 -77q61 -45 196.5 59.5t282.5 270.5q29 31 70 80t69.5 82t65.5 73t66.5 62.5t63.5 39.5t67 16t63 -19q37 -25 42 -76t-4 -85t-38 -118q-6 -18 -8 -26 q139 141 247.5 218t209.5 79z" glyph-name="uniE034" horiz-adv-x="1777" unicode="nx"/><glyph d="M1513.5 868q-61.5 0 -104.5 44t-43 104q0 61 43 105t104.5 44t105.5 -44t44 -105q0 -59 -44 -103.5t-105.5 -44.5zM1688 526l45 -39q-51 -61 -121 -116.5t-114 -81t-135 -72.5t-114 -59q-127 -256 -248.5 -440.5t-245.5 -282t-214 -45.5q-82 63 -68 154t110.5 202 t247 223.5t340.5 223.5l117 219q41 82 -22 123q-68 45 -168 -9q-59 -33 -109 -96q-106 -162 -252 -166l-24 -37q-115 -160 -279 -227q-86 -33 -151 -33q-78 0 -140 37q-88 51 -110 166q-41 188 110 403q117 160 281 230q166 70 289 -4q92 -55 112 -166q27 -135 -43 -285 q96 -4 170 105q127 248 295 321q121 51 183 -14q55 -61 14 -180q-57 -143 -141 -318q29 14 93 41t101 46.5t91.5 65t99.5 111.5zM238 618q-106 -131 -21 -286q66 -121 191 -170q147 -57 237 49q2 4 4 6q23 33 29 51q-119 25 -197 142.5t-59 261.5q-123 18 -184 -54zM702 377 q2 131 -124 227q24 -161 124 -227zM686 -336q51 -49 164 61.5t254 346.5q-225 -139 -342 -246t-76 -162z" glyph-name="uniE035" horiz-adv-x="1572" unicode="oj"/><glyph d="M1724 408l25 -35q-242 -276 -432.5 -374.5t-296.5 3.5q-147 207 358 592q-170 -76 -252 -66q-156 -246 -381 -252q-20 -33 -32 -49q-115 -160 -279 -227q-86 -33 -151 -33q-78 0 -140 37q-88 51 -110 166q-41 188 110 403q117 160 281 230q166 70 289 -4q92 -55 112 -166 q29 -131 -43 -287q129 33 240 268q-14 68 49.5 147t161.5 118l29 -17q-39 -55 45 -94q109 -49 262 -8q68 18 125 53l26 -35q-55 -41 -101 -76.5t-98.5 -78.5t-92 -81t-78.5 -79t-63.5 -79t-39 -73t-12.5 -67.5t22 -59.5q121 -120 467 224zM238 618q-106 -131 -21 -286 q66 -121 191 -170q147 -57 237 49q2 4 4 6q18 27 33 62q-137 20 -217 130.5t-47 262.5q-119 16 -180 -54zM702 350q8 76 -28.5 144.5t-104.5 115.5q4 -98 40 -169t93 -91z" glyph-name="uniE036" horiz-adv-x="1675" unicode="or"/><glyph d="M1866 762q-66 -2 -153 -59.5t-152.5 -119t-178.5 -175.5q-33 -145 64 -187q78 -23 159 24.5t183 164.5l27 -29q-346 -467 -504 -399q-53 25 -63.5 82t1 101t43.5 138q4 12 6 19q-162 -162 -285.5 -252t-238.5 -93v46q68 8 136.5 40.5t148.5 100t130 117t142 143.5 q43 156 -45 197q-20 8 -38.5 9t-39 -6.5t-36 -17.5t-39 -31.5t-42 -40l-50 -50t-58.5 -56.5q-117 -106 -227 -133q-18 -33 -43 -68q-115 -160 -279 -227q-86 -33 -151 -33q-78 0 -140 37q-88 51 -110 166q-41 188 110 403q117 160 281 230q166 70 289 -4q92 -55 112 -166 q25 -115 -30 -258q70 18 155 96q29 31 70 81t69.5 84t66.5 74t68.5 63.5t64.5 40.5t67 16t63 -19q37 -25 42 -76t-4 -85t-38 -118q-6 -18 -8 -26q139 141 247.5 218t209.5 79zM649 217q25 33 37 68q-145 -2 -227 121.5t-45 265.5q-117 16 -176 -54q-106 -131 -21 -286 q66 -121 191 -170q147 -57 237 49q2 4 4 6zM702 373q2 139 -127 231q21 -196 127 -231z" glyph-name="uniE037" horiz-adv-x="1736" unicode="ox"/><glyph d="M1402.5 868q-61.5 0 -104.5 44t-43 104q0 61 43 105t104.5 44t105.5 -44t44 -105q0 -59 -44 -103.5t-105.5 -44.5zM1577 526l45 -39q-51 -61 -120.5 -116.5t-114 -81t-135.5 -72.5t-113 -59q-127 -256 -249 -440.5t-246 -282t-214 -45.5q-82 63 -67.5 154t110.5 202 t246.5 223.5t341.5 223.5l117 219q41 84 -23 125q-70 45 -172 -13q-51 -29 -96 -82q-188 -293 -426 -420.5t-346 -19.5q-147 207 358 592q-197 -90 -283 -59q-35 -82 -167 -224l-27 33q39 53 77 139t42 144q-6 68 57.5 141.5t155.5 110.5l28 -17q-39 -55 45 -94 q109 -49 263 -8q68 18 124 53l27 -35q-55 -41 -101 -76.5t-98.5 -78.5t-92.5 -81t-78.5 -79t-63.5 -79t-39 -73t-12 -67.5t22 -59.5q68 -68 220.5 17.5t281.5 271.5q162 252 326 309q115 41 157 -39q31 -59 -4 -163q-57 -143 -141 -318q29 14 93.5 41t101 46.5t91 65 t99.5 111.5zM575 -336q51 -49 164 61.5t254 346.5q-225 -139 -342 -246t-76 -162z" glyph-name="uniE038" horiz-adv-x="1462" unicode="rj"/><glyph d="M1167.5 868q-61.5 0 -104.5 44t-43 104q0 61 43 105t104.5 44t105.5 -44t44 -105q0 -59 -44 -103.5t-105.5 -44.5zM1341 526l45 -39q-51 -61 -120.5 -116.5t-113.5 -81t-135 -72.5t-114 -59q-127 -256 -249 -440.5t-245.5 -282t-213.5 -45.5q-82 63 -68 154t110.5 202 t247 223.5t340.5 223.5l117 219q41 84 -18 129q-66 49 -166 -9q-61 -33 -115 -102q-154 -233 -329 -374.5t-281 -84.5q-68 49 -70 136.5t42 191.5t140 272h-206l106 228h234q88 147 180 311l57 -23q-51 -90 -160 -288h176l-100 -228h-184q-125 -289 -49 -364 q66 -61 188.5 13.5t220.5 236.5q139 262 305 329q117 47 174 -22q51 -63 11 -184q-57 -143 -142 -318q29 14 93.5 41t101.5 46.5t91 65t99 111.5zM340 -336q51 -49 163.5 61.5t254.5 346.5q-225 -139 -342 -246t-76 -162z" glyph-name="uniE039" horiz-adv-x="1226" unicode="tj"/><glyph d="M1118 436l27 -37q-47 -57 -85 -101t-82 -93t-81 -84t-77 -70t-74.5 -54.5t-68.5 -32.5t-65.5 -11t-60.5 18q-113 84 -41 291q-156 -180 -272.5 -260t-204.5 -31q-68 49 -70 136.5t42 191.5t140 272h-206l106 228h234q88 147 180 311l57 -23q-51 -90 -160 -288h441 q88 147 180 311l57 -23q-51 -90 -160 -288h175l-101 -228h-182q-125 -289 -49 -364q110 -105 401 229zM199 207q109 -102 376 203q80 147 89 161h-416q-125 -288 -49 -364z" glyph-name="uniE03A" horiz-adv-x="1052" unicode="tt"/><glyph d="M1520 762q-66 -2 -153 -59.5t-152.5 -119t-178.5 -175.5q-33 -145 64 -187q78 -23 158.5 24.5t183.5 164.5l26 -29q-346 -467 -503 -399q-53 25 -63.5 82t0.5 101t44 138q4 12 6 19q-162 -162 -285.5 -252t-238.5 -93v46q68 8 136.5 40.5t148.5 100t130 117t142 143.5 q43 156 -45 197q-20 8 -38.5 9t-39 -6.5t-36 -17.5t-39 -31.5t-42 -40l-50 -50t-58.5 -56.5q-238 -281 -336 -367q-166 -145 -268 -90q-68 49 -70 136.5t42 191.5t140 272h-206l106 228h234q88 147 180 311l57 -23q-51 -90 -160 -288h176l-100 -228h-184q-125 -289 -49 -364 q57 -53 146 13.5t245 234.5q6 8 10 12q29 33 70 82t70.5 83t67.5 75t68.5 64.5t64.5 41.5t66.5 17t65.5 -19q37 -25 42 -76t-4 -85t-38 -118q-6 -18 -8 -26q139 141 247.5 218t209.5 79z" glyph-name="uniE03B" horiz-adv-x="1390" unicode="tx"/><glyph d="M1351.5 868q-61.5 0 -104.5 44t-43 104q0 61 43 105t104.5 44t105.5 -44t44 -105q0 -59 -44 -103.5t-105.5 -44.5zM1526 526l45 -39q-51 -61 -121 -116.5t-114 -81t-135 -72.5t-114 -59q-127 -256 -248.5 -440.5t-245.5 -282t-214 -45.5q-82 63 -67.5 154t110.5 202 t246.5 223.5t341.5 223.5l116 219q41 82 -22 123q-68 45 -168 -9q-59 -33 -109 -96q-49 -66 -139 -60.5t-106 83.5q-170 -244 -326 -380t-256 -91q-72 41 -77 122.5t64.5 211.5t125 214t168.5 242q20 29 30 43l41 -29q-344 -512 -106 -604q162 141 493 609l35 -33 q-74 -147 -63 -275q4 -68 37 -63q18 2 45 35q135 254 303 323q119 51 176 -20q49 -61 10 -178q-57 -143 -141 -318q29 14 93 41t101 46.5t91.5 65t99.5 111.5zM524 -336q51 -49 164 61.5t254 346.5q-225 -139 -342 -246t-76 -162z" glyph-name="uniE03C" horiz-adv-x="1411" unicode="vj"/><glyph d="M1491 440q-319 -344 -528 -434q-29 -16 -76 -26q-23 -6 -41 -7q-168 0 -205 128t88 274l29 -19q-47 -57 -24.5 -100t118.5 -23q66 20 103.5 53t48 79.5t10.5 86.5t-5 100t-3 97q-84 -92 -196 -134t-181 5q-180 -270 -351.5 -428t-277.5 -110q-72 41 -77 122.5t64.5 211.5 t125 214t168.5 242q20 29 30 43l41 -29q-344 -512 -106 -604q162 141 493 609l35 -33q-20 -104 55 -107q84 -4 189 97q12 12 22 24q10 18 31 39q80 63 164 16t92 -155l-27 -23q-23 27 -56.5 28t-74.5 -36q-51 -63 -69.5 -149t-22.5 -190.5t-14 -151.5q156 63 395 319z" glyph-name="uniE03D" horiz-adv-x="1374" unicode="vs"/><glyph d="M1372 436l27 -37q-47 -57 -85 -101t-82 -93t-81 -84t-77 -70t-74.5 -54.5t-68.5 -32.5t-65.5 -11t-60.5 18q-68 49 -70 136.5t42 191.5t141 272h-207l106 228h234q88 147 180 311l57 -23q-51 -90 -160 -288h177l-101 -228h-184q-125 -289 -49 -364q110 -105 401 229z M739 791l35 -33q-127 -221 -263 -405.5t-279.5 -297t-231.5 -73.5q-72 41 -77 122.5t64.5 211.5t125 214t168.5 242q20 29 30 43l41 -29q-344 -512 -106 -604q161 142 493 609z" glyph-name="uniE03E" horiz-adv-x="1306" unicode="vt"/><glyph d="M1880 436l27 -37q-47 -57 -85 -101t-82 -93t-81 -84t-77 -70t-74.5 -54.5t-68.5 -32.5t-66 -11t-60 18q-68 49 -70 136.5t42 191.5t140 272h-206l106 228h234q88 147 180 311l57 -23q-51 -90 -160 -288h176l-100 -228h-184q-125 -289 -49 -364q110 -105 401 229z M1223 764l37 -29q-246 -406 -357 -542q-213 -264 -375 -205q-152 61 -53 280q-133 -162 -242.5 -234.5t-205.5 -35.5q-121 49 -54 262q68 207 244 402q156 168 301 204l62 -123q-123 -29 -216.5 -82t-141.5 -111t-70.5 -116.5t-13.5 -104.5t42 -71q45 -29 107.5 -3t160 124 t154.5 163.5t189 223.5q8 8 12 14l37 -28q-66 -104 -105 -173t-68.5 -139.5t-25.5 -115.5t41 -68q168 -76 541 508z" glyph-name="uniE03F" horiz-adv-x="1814" unicode="wt"/><glyph d="M1233 690q-55 -197 -16 -237q18 -20 61 14l37 -37q-51 -53 -99.5 -56t-76 28.5t-35.5 76.5q-113 -178 -199 -286.5t-187.5 -173t-189.5 -31.5q-152 61 -53 280q-133 -162 -242.5 -234.5t-205.5 -35.5q-121 49 -54 262q68 207 244 402q156 168 301 204l62 -123 q-123 -29 -216.5 -82t-141.5 -111t-70.5 -116.5t-13.5 -104.5t42 -71q45 -29 107.5 -3t160 124t154.5 163.5t189 223.5q8 8 12 14l37 -28q-66 -104 -105 -173t-68.5 -139.5t-25.5 -115.5t41 -68q168 -76 541 508l37 -29zM2198 762q-66 -2 -153 -59.5t-152.5 -119 t-178.5 -175.5q-33 -145 64 -187q78 -23 158.5 24.5t183.5 164.5l26 -29q-346 -467 -504 -399q-53 25 -63 82t1 101t44 138q4 12 6 19q-162 -162 -285.5 -252t-238.5 -93v46q68 8 136.5 40.5t148 100t130 117t142.5 143.5q43 156 -45 197q-20 8 -38.5 9t-39 -6.5t-36 -17.5 t-39 -31.5t-42 -40t-50.5 -50t-58 -56.5v2l-31 41q-4 -4 -6 -4q29 33 70 82t70.5 83t67.5 75t68.5 64.5t64.5 41.5t66.5 17t65.5 -19q37 -25 42 -76t-4 -85t-38 -118q-6 -18 -8 -26q139 141 247.5 218t209.5 79z" glyph-name="uniE040" horiz-adv-x="2068" unicode="wx"/><glyph d="M1488.5 868q-61.5 0 -104.5 44t-43 104q0 61 43 105t104.5 44t105.5 -44t44 -105q0 -59 -44 -103.5t-105.5 -44.5zM1663 526l45 -39q-51 -61 -120.5 -116.5t-113.5 -81t-135.5 -72.5t-113.5 -59q-127 -256 -249 -440.5t-246 -282t-214 -45.5q-82 63 -67.5 154t110.5 202 t246.5 223.5t341.5 223.5l117 219q41 84 -23 125q-70 43 -170 -11q-57 -33 -104 -94q-133 -205 -289 -347t-248 -103q-53 25 -63.5 82t1 101t44.5 138q4 12 6 19q-162 -162 -286 -252t-238 -93v46q68 8 136 40.5t148 100t130 117t143 143.5q43 156 -45 197q-20 8 -39 9 t-39.5 -6.5t-36 -17.5t-39 -31.5t-41.5 -40t-50 -50t-59 -56.5l-36 39q29 33 69.5 82t70.5 83t67.5 75t68.5 64.5t64.5 41.5t66.5 17t66 -19q37 -25 42 -76t-4.5 -85t-37.5 -118q-6 -18 -9 -26q139 141 248 218t209 79l-2 -41q-66 -2 -153 -59.5t-152.5 -119t-177.5 -175.5 q-33 -145 63 -187q80 -25 177.5 42t185.5 192q135 252 301 323q121 51 180 -18q49 -63 10 -180q-57 -143 -141 -318q29 14 93.5 41t101 46.5t91 65t99.5 111.5zM662 -336q51 -49 163.5 61.5t253.5 346.5q-225 -139 -341.5 -246t-75.5 -162z" glyph-name="uniE041" horiz-adv-x="1548" unicode="xj"/><glyph d="M1841 762q-66 -2 -152.5 -59.5t-152.5 -119t-178 -175.5q-33 -145 63 -187q78 -23 159 24.5t183 164.5l27 -29q-346 -467 -504 -399q-53 25 -63.5 82t1 101t44.5 138q4 12 6 19q-162 -162 -286 -252t-238 -93v46q68 8 136 40.5t148 100t130 117t143 143.5q43 156 -45 197 q-20 8 -39 9t-38.5 -6.5t-34.5 -17.5t-39 -30.5t-41 -38t-48 -49t-55 -54.5q-39 -41 -111 -124t-121 -137t-109.5 -110.5t-109.5 -77t-86 -3.5q-53 25 -63.5 82t1 101t44.5 138q4 12 6 19q-162 -162 -286 -252t-238 -93v46q68 8 136 40.5t148 100t130 117t143 143.5 q43 156 -45 197q-20 8 -39 9t-39.5 -6.5t-36 -17.5t-39 -31.5t-41.5 -40t-50 -50t-59 -56.5l-36 39q29 33 69.5 82t70.5 83t67.5 75t68.5 64.5t64.5 41.5t66.5 17t66 -19q37 -25 42 -76t-4.5 -85t-37.5 -118q-6 -18 -9 -26q139 141 248 218t209 79l-2 -41q-66 -2 -153 -59.5 t-152.5 -119t-177.5 -175.5q-33 -145 63 -187q47 -14 110.5 22t102.5 73.5t123 129.5q23 23 33 35q27 31 68.5 80t69.5 81t65 72t66.5 61.5t62 38.5t65.5 16t64 -19q37 -25 42 -76t-4.5 -85t-37.5 -118q-6 -18 -9 -26q139 141 248 218t209 79z" glyph-name="uniE042" horiz-adv-x="1712" unicode="xx"/><glyph d="M1507.5 868q-61.5 0 -104.5 44t-43 104q0 61 43 105t104.5 44t105.5 -44t44 -105q0 -59 -44 -103.5t-105.5 -44.5zM1681 526l45 -39q-51 -61 -120.5 -116.5t-113.5 -81t-135 -72.5t-114 -59q-127 -256 -249 -440.5t-245.5 -282t-213.5 -45.5q-82 63 -68 154t110.5 202 t247 223.5t340.5 223.5l117 219q43 82 -22 125q-70 43 -170 -13q-47 -25 -89 -71q-139 -184 -483 -381q-94 -150 -194.5 -269.5t-191.5 -194.5t-171 -113t-140.5 -28.5t-94.5 62.5q-18 39 -9 78t39.5 74.5t80.5 73.5t114.5 75t139.5 77t153 79q156 78 231 118 q119 182 211 390q-170 -244 -358.5 -388.5t-302.5 -111.5q-115 57 -90.5 197.5t160.5 320.5t311 303l34 -37q-72 -68 -130 -131t-103 -126.5t-66.5 -116t-14.5 -95.5t48 -69q68 -49 195 22.5t251.5 226t180.5 326.5l63 -16q-121 -344 -295 -643q272 156 379 299 q135 254 301 323q121 51 178 -20q49 -61 11 -178q-57 -143 -142 -318q29 14 93.5 41t101.5 46.5t91 65t99 111.5zM680 -336q51 -49 163.5 61.5t254.5 346.5q-225 -139 -342 -246t-76 -162zM-29 -328q51 -57 176 42.5t267 299.5q-295 -160 -332 -182q-154 -97 -111 -160z" glyph-name="uniE043" horiz-adv-x="1566" unicode="yj"/><glyph d="M1835 762q-66 -2 -153 -59.5t-152.5 -119t-177.5 -175.5q-33 -145 63 -187q78 -23 159 24.5t183 164.5l27 -29q-346 -467 -504 -399q-53 25 -63.5 82t1 101t44.5 138q4 12 6 19q-162 -162 -286 -252t-239 -93v46q68 8 136.5 40.5t148.5 100t130 117t142 143.5 q43 156 -45 197q-20 8 -38.5 9t-39 -6.5t-36 -17.5t-39 -31.5t-42 -40l-50 -50t-58.5 -56.5q-86 -96 -370 -319q10 -23 12 -46q14 -94 -40 -212.5t-145.5 -216t-199 -174t-198.5 -86t-144 47.5q-27 37 -26 75t34 86t94.5 106.5t157.5 137.5t221 179q51 41 78 62 q-59 2 -250 -33v237q172 43 341 145.5t149 157.5q-39 61 -217.5 33t-307.5 -108l-116 196q96 109 252.5 145t293 -14.5t172.5 -167.5q31 -106 -43.5 -236t-212.5 -218q37 -16 60 -39q182 145 373 307q29 31 69.5 80t69 83t66.5 74t69 63.5t64.5 40.5t66.5 16t64 -19 q37 -25 42 -76t-4.5 -85t-37.5 -118q-6 -18 -9 -26q139 141 248 218t209 79zM518 18q-2 16 -14 29q-221 -174 -327.5 -282.5t-70.5 -157.5q53 -51 159 14.5t185.5 186t67.5 210.5z" glyph-name="uniE044" horiz-adv-x="1705" unicode="zx"/><glyph d="M1067 1884v-2601h-825v2601h825zM866 1710h-430v-86h170v-96h-172v-86h432v86h-172v96h172v86zM694 1374h-260v-270h432v88h-172v182zM606 1286v-94h-86v94h86zM866 1034h-432v-86h172v-96h-172v-86h260v182h172v86zM866 879h-86v-172h-346v-89h432v261zM866 561h-260 v-147h88v61h86v-123h-260v209h-86v-295h432v295zM866 111h-432v-295h432v295zM780 25v-123h-260v123h260zM866 -244h-432v-86h182l-182 -121v-86h432v86h-266l182 121h84v86z" glyph-name=".notdef" horiz-adv-x="1300"/><glyph glyph-name="glyph1" horiz-adv-x="0"/><glyph glyph-name="glyph2" horiz-adv-x="681"/><glyph glyph-name="space" horiz-adv-x="409" unicode=" "/><glyph d="M846 1477q41 43 95 21.5t54 -83.5q-244 -293 -628 -1063l-56 31q320 756 535 1094zM367 137.5q0 -55.5 -39 -94.5t-94.5 -39t-95.5 39t-40 94.5t40 95t95.5 39.5t94.5 -39.5t39 -95z" glyph-name="exclam" horiz-adv-x="864" unicode="!"/><glyph d="M315 846l-53 28l232 500l139 -78zM541 799l-54 30l236 500l139 -78z" glyph-name="quotedbl" horiz-adv-x="911" unicode="&quot;"/><glyph d="M1382 829h-233l-113 -206h299l-164 -261h-278l-201 -362l-55 31l182 331h-360l-201 -362l-53 31l182 331h-240l170 261h213l115 206h-285l172 263h256l226 409l55 -31l-209 -378h361l225 409l57 -31l-209 -378h254zM963 623l114 206h-362l-113 -206h361z" glyph-name="numbersign" horiz-adv-x="1433" unicode="#"/><glyph d="M1409 977q-135 84 -289 143l-153 -278q158 -86 240.5 -188.5t56.5 -243.5q-23 -127 -133.5 -209t-258 -99.5t-311.5 4.5l-59 -108l-56 29l52 92q-244 61 -367 211l207 254q113 -113 311 -191l154 279q-47 23 -83 43t-76 46.5t-67.5 53.5t-50 60.5t-34 68.5t-10.5 77 t16 87q66 178 258 252t440 24l61 113l56 -29l-53 -98q164 -45 301 -123zM911 870l150 271q-201 68 -343.5 57.5t-150.5 -94.5q-2 -23 13.5 -45.5t55.5 -47t73.5 -42t100 -49.5t101.5 -50zM1190 387q4 45 -43 91t-97.5 73t-156.5 76q-23 10 -35 16l-149 -270 q176 -63 325.5 -62.5t155.5 76.5z" glyph-name="dollar" horiz-adv-x="1609" unicode="$"/><glyph d="M748 1337q33 -156 -91 -327q-96 -131 -227 -185q-61 -27 -123 -26q-59 0 -110 28q-74 45 -93 136q-33 158 93 327q92 131 225 185q135 57 233 -2q75 -46 93 -136zM182 -12l-57 45l1143 1468l55 -39zM272 1327q-70 -84 -8 -197.5t165 -150.5t175 22q41 57 30 121 t-58.5 109t-105.5 81t-113.5 38t-84.5 -23zM1360 539q33 -156 -90 -328q-96 -131 -226 -184q-70 -27 -124 -27q-59 0 -111 29q-70 43 -92 135q-31 160 92 328q90 129 225 184q137 57 236 -2q72 -43 90 -135zM885 528q-70 -82 -7.5 -196.5t166 -151.5t175.5 23 q39 57 27.5 120.5t-57.5 108.5t-104.5 81t-113.5 38t-86 -23z" glyph-name="percent" horiz-adv-x="1464" unicode="%"/><glyph d="M1624 266l-61 -282q-246 0 -455 135q-203 -109 -413 -118t-308 89q-180 176 -103.5 374t394.5 365v9q-4 109 28.5 214t89 186t131 143.5t151.5 93t155 26.5t137 -47q123 -119 69.5 -239.5t-228.5 -226t-420 -171.5q2 -6 5 -14t3 -12q137 -317 422 -447q41 158 -4 363 l299 14q-8 -236 -173 -420q134 -35 281 -35zM1151 1278q-66 37 -136.5 11.5t-128 -81t-89 -148.5t-19.5 -190q326 131 412 260q59 91 -39 148zM580 289q78 -78 210 -111t244 -8q-291 229 -348 600q-72 -41 -120 -96.5t-69.5 -118.5t-0.5 -133t84 -133z" glyph-name="ampersand" horiz-adv-x="1755" unicode="&amp;"/><glyph d="M315 799l-53 30l236 500l139 -78z" glyph-name="quotesingle" horiz-adv-x="735" unicode="'"/><glyph d="M1376 1778l47 -49q-199 -152 -368.5 -330t-311 -389t-220.5 -430.5t-94 -455t67 -460.5l-283 -127q-152 557 158.5 1128.5t1004.5 1112.5z" glyph-name="parenleft" horiz-adv-x="940" unicode="("/><glyph d="M-305 -451l-47 50q199 152 368.5 329.5t311 388.5t220.5 430.5t94 455t-67 460.5l283 127q152 -557 -158.5 -1128.5t-1004.5 -1112.5z" glyph-name="parenright" horiz-adv-x="907" unicode=")"/><glyph d="M760 1190l-289 -43l199 -184l-107 -93l-164 248l-163 -248l-105 93l213 200l-254 88l64 125l229 -147l82 272l131 -55l-133 -225l260 104z" glyph-name="asterisk" horiz-adv-x="858" unicode="*"/><glyph d="M932 803l-148 -244h-305l-151 -274l-49 26l135 248h-316l148 244h303l151 276l52 -30l-138 -246h318z" glyph-name="plus" horiz-adv-x="1030" unicode="+"/><glyph d="M260 270q55 0 94 -40t39 -93q0 -217 -289 -397l-79 137q98 23 153 48.5t96 78.5q-2 0 -6 -1t-8 -1q-55 0 -94 39t-39 96q0 53 39 93t94 40z" glyph-name="comma" horiz-adv-x="421" unicode=","/><glyph d="M727 377h-612l131 217h612z" glyph-name="hyphen" horiz-adv-x="882" unicode="-"/><glyph d="M295 135.5q0 -57.5 -40 -96.5t-97 -39q-55 0 -94 39t-39 96.5t38.5 96t94.5 38.5q57 0 97 -38.5t40 -96z" glyph-name="period" horiz-adv-x="319" unicode="."/><glyph d="M94 2l-45 41l1290 1462l45 -41z" glyph-name="slash" horiz-adv-x="905" unicode="/"/><glyph d="M1169 1110q39 -276 -96 -580q-141 -305 -377 -452q-150 -96 -288 -96q-86 0 -154 32q-100 45 -163.5 142.5t-82.5 236.5q-39 281 101 580q137 299 372 452q242 156 447 64q202 -92 241 -379zM166 946q-74 -174 -45 -326.5t147.5 -236.5t254.5 -111.5t276.5 47 t212.5 238.5q53 123 59 234.5t-28.5 193.5t-97 143.5t-143.5 92t-171 31.5t-176 -29.5t-163 -101.5t-126 -175z" glyph-name="zero" horiz-adv-x="1177" unicode="0"/><glyph d="M928 1470l-641 -1206h301l-117 -264h-657l143 264h223l568 1012q-350 -340 -650 -338v260q207 4 416 79t358 224z" glyph-name="one" horiz-adv-x="665" unicode="1"/><glyph d="M1055 1450q68 -76 74 -164t-45.5 -181t-132.5 -187.5t-203.5 -200t-243.5 -198.5t-266 -202q-53 -39 -78 -57l796 2l-170 -264h-917v139q14 8 37.5 24.5t96.5 68t141.5 104.5t163.5 127t174 145.5t161 150.5t133 151.5t83 138t20.5 121t-66.5 89.5q-213 115 -561 -204 l-70 69q203 260 464.5 362.5t408.5 -34.5z" glyph-name="two" horiz-adv-x="1128" unicode="2"/><glyph d="M791 664q299 -135 198 -416q-63 -129 -200.5 -197.5t-285 -68.5t-288.5 64.5t-215 178.5l160 197q109 -78 294 -127t327.5 -43t142.5 67q0 78 -83 132.5t-190.5 76t-218.5 19.5q-14 -2 -41 -2l-4 217v57q135 0 298 44t273.5 124t81.5 164q-35 88 -179 112.5t-314 -28.5 t-271 -170l-45 61q88 162 209 261.5t238 123t222.5 -14.5t170.5 -134q86 -133 60.5 -267t-114.5 -242.5t-226 -188.5z" glyph-name="three" horiz-adv-x="1136" unicode="3"/><glyph d="M1251 1483l-436 -781h313l-145 -272h-321l-254 -455l-58 31l238 424h-588l729 1079l57 -30l-518 -777h473l453 811z" glyph-name="four" horiz-adv-x="1251" unicode="4"/><glyph d="M1229 1231h-606l-197 -348q106 53 207.5 70.5t182.5 1t148.5 -54.5t111.5 -97.5t67.5 -127t20.5 -144t-31 -150.5q-63 -154 -182.5 -252t-253.5 -127t-270 -13.5t-250 81t-177 163.5l170 207q119 -86 304 -132t347 -23.5t201 121.5q27 80 -11 141t-120 97t-191.5 54.5 t-226.5 17.5t-223 -18l450 803l5 -2l671 2z" glyph-name="five" horiz-adv-x="1327" unicode="5"/><glyph d="M911 971q180 -117 99 -369q-70 -217 -281 -409q-225 -205 -434 -218q-121 -6 -207 64q-84 72 -90 220.5t64.5 325.5t188.5 355t299 330.5t382 230.5l127 -268q-217 -70 -393.5 -160t-301 -194.5t-176 -226.5t-12.5 -242q199 293 401.5 465t333.5 96zM221 313 q86 -127 281 -92q166 31 272 141q117 123 41 234q-4 6 -8 10q-70 80 -171 64.5t-215 -102.5t-216 -226z" glyph-name="six" horiz-adv-x="1034" unicode="6"/><glyph d="M1167 1501q-160 -145 -298 -311t-256.5 -359.5t-188.5 -409.5t-70 -421h-354q74 289 287 620.5t501 614.5h-716l168 266h927z" glyph-name="seven" horiz-adv-x="1036" unicode="7"/><glyph d="M829 838q111 -59 136 -172q23 -96 -12 -208t-124 -212q-139 -168 -335 -236q-96 -37 -184.5 -37t-166.5 39q-106 57 -135 172q-23 96 13 207t122 211q96 111 211 178q-76 47 -98 135q-37 172 115 353q125 143 284 196q174 63 295 -2q86 -39 113 -143q20 -80 -10.5 -173 t-102.5 -179q-57 -70 -133 -123zM469 1307q-88 -88 -8 -207t210 -159t214 15q45 55 39 110.5t-41 108t-93.5 90.5t-119 59.5t-116.5 18.5t-85 -36zM754 236q57 68 51 134t-46 127.5t-109.5 106.5t-141.5 70.5t-141.5 20.5t-110.5 -44q-104 -106 -14 -253.5t244.5 -195.5 t267.5 34z" glyph-name="eight" horiz-adv-x="1071" unicode="8"/><glyph d="M1069 1415q49 -59 51 -166.5t-40 -235.5t-114.5 -268.5t-179 -270.5t-226.5 -233.5t-264 -166t-286 -62.5l-10 289q379 53 634 231.5t290 407.5q-217 -209 -446.5 -293t-356.5 15q-156 145 -27 378q104 190 332 336q258 164 463 135q112 -16 180 -96zM283 995 q53 -92 158.5 -126.5t236.5 4t250 149.5q-4 80 -33 154q-61 133 -250 135q-168 0 -291 -90q-133 -98 -75 -215q2 -7 4 -11z" glyph-name="nine" horiz-adv-x="1118" unicode="9"/><glyph d="M549 663.5q0 -57.5 -40 -96.5t-97 -39q-55 0 -94 39t-39 96.5t38.5 96.5t94.5 39q57 0 97 -39t40 -96.5zM418 135.5q0 -57.5 -40 -96.5t-97 -39q-55 0 -94.5 39t-39.5 96.5t39 96t95 38.5q57 0 97 -38.5t40 -96z" glyph-name="colon" horiz-adv-x="696" unicode=":"/><glyph d="M657 663.5q0 -57.5 -39.5 -96.5t-97.5 -39q-55 0 -94 39t-39 96.5t39 96.5t94 39q57 0 97 -39t40 -96.5zM366.5 270q55.5 0 94.5 -40t39 -93q0 -217 -289 -397l-80 137q98 23 153.5 48.5t96.5 78.5q-2 0 -6 -1t-8 -1q-55 0 -94.5 39t-39.5 96q0 53 39 93t94.5 40z" glyph-name="semicolon" horiz-adv-x="788" unicode=";"/><glyph d="M610 0l-512 360l664 435l22 -37l-471 -312l432 -290z" glyph-name="less" horiz-adv-x="882" unicode="&lt;"/><glyph d="M915 729h-686l148 244h686zM735 264h-686l148 244h686z" glyph-name="equal" horiz-adv-x="1112" unicode="="/><glyph d="M270 795l514 -361l-663 -434l-23 39l471 309l-434 291z" glyph-name="greater" horiz-adv-x="882" unicode=">"/><glyph d="M375 1339q100 74 206.5 115t196.5 46t164 -13.5t115 -63.5t41 -106q0 -80 -66.5 -168t-167 -173t-204 -175t-190.5 -204t-114 -228l-133 16q39 104 130 212t189.5 189.5t189.5 155.5t140.5 136.5t30.5 105.5q-27 59 -158 24.5t-309 -147.5zM367 135q0 -57 -39 -96 t-95 -39q-57 0 -96 39t-39 96q0 55 39 94t96 39q55 0 94.5 -39t39.5 -94z" glyph-name="question" horiz-adv-x="950" unicode="?"/><glyph d="M1346 1505q248 0 418.5 -112.5t239.5 -288.5t46 -383q-14 -129 -50 -237.5t-83 -184.5t-104.5 -133t-117 -90t-118.5 -48.5t-110.5 -13.5t-94.5 19q-199 98 -86 358q-397 -424 -577 -246q-106 119 16 338q106 190 303 326q233 160 397 100q74 -27 121 -104l-4 -6 q53 72 86 119l41 -31q-174 -248 -209 -312q-127 -229 0 -307q8 -4 17 -8q92 -39 193.5 -1t172 133t104 231.5t-11.5 289.5q-35 137 -164 227.5t-303 109t-357 -15.5t-348 -144.5t-255 -276.5q-111 -199 -110 -480.5t126 -408.5q403 -324 1000 -69l-121 -404 q-154 -39 -309.5 -27.5t-289.5 68.5t-248 155.5t-184.5 229.5t-99 290t8.5 341q39 186 136 364.5t233 319.5t318.5 227t377.5 86zM866 371q90 -76 238.5 -2.5t302.5 252.5q-184 102 -381 20q-133 -55 -176 -149q-33 -72 16 -121z" glyph-name="at" horiz-adv-x="2154" unicode="@"/><glyph d="M1651 268q63 -68 183 -40t237 143l20 -23q-49 -63 -127 -135t-175 -135.5t-184 -80.5t-155 28q-158 143 82 544q-197 98 -416 -12q-43 -47 -120.5 -132t-113.5 -124t-98.5 -99.5t-102.5 -88t-94.5 -59t-107.5 -43t-112 -11.5q-160 0 -245 71.5t-122 204.5l238 226 q31 -59 99.5 -107.5t161.5 -74t214 14.5t233 152l686 746q150 164 304.5 233.5t209.5 14.5q135 -139 -155 -428q-154 -168 -248 -300t-130 -207t-33 -135.5t17.5 -82t44.5 -52.5q7 -6 9 -8zM1253 709q186 80 402 45q121 162 274 327q80 94 35 160q-41 61 -139 33 q-88 -25 -174 -123z" glyph-name="A" horiz-adv-x="2002" unicode="A"/><glyph d="M1700 1247q29 -94 19.5 -187t-72 -175t-151.5 -143.5t-217 -93.5t-269 -21q244 -123 285.5 -309.5t-148.5 -352.5q-102 -84 -237.5 -100.5t-257.5 26.5t-222 132.5t-143 201.5l-125 -217l-53 31l391 684q80 137 101.5 280.5t-42.5 219.5q-70 63 -184.5 33.5 t-204.5 -119.5l-170 223q207 152 394.5 154t283.5 -146q80 -131 39 -313q119 176 248 284.5t241.5 141t213 14.5t172 -84t108.5 -164zM1094 12q82 113 43 236t-148.5 231.5t-257.5 179.5l25 58q156 -14 371.5 80t359 229t106.5 227q-12 29 -56 35t-109.5 -8t-145.5 -43 t-169 -73t-173 -94t-164 -109.5t-137 -118.5q-51 -98 -84 -150l-121 -209q43 -123 128 -238.5t181.5 -186t192 -91.5t158.5 45z" glyph-name="B" horiz-adv-x="1462" unicode="B"/><glyph d="M1393 465q-98 -150 -236.5 -260.5t-284 -165.5t-295 -57t-269.5 48t-206 166.5t-108 284.5q-23 170 49 343t201 307.5t299 232.5t339 135t327.5 -3t258.5 -167q47 -63 52.5 -146t-28.5 -163t-93.5 -152.5t-145.5 -125t-178 -72.5l-201 194q195 98 378.5 235.5 t146.5 200.5q-29 45 -122 47.5t-219 -34.5t-269.5 -98.5t-278.5 -147.5t-241.5 -175t-162 -188.5t-34.5 -183.5q29 -98 143.5 -171t271 -100.5t322.5 -18t316.5 80t232.5 189.5z" glyph-name="C" horiz-adv-x="1265" unicode="C"/><glyph d="M733 1198q86 111 194.5 183.5t217 100t214 19.5t190.5 -50t140.5 -122t70 -182.5t-28.5 -242.5t-146 -294q-317 -414 -688 -553t-655 45l-58 -102l-55 31l59 108q-106 82 -188 209l203 182q51 -72 125 -137l182 330q88 158 103.5 295t-50.5 207q-72 61 -185.5 29.5 t-205.5 -124.5l-172 222q207 156 393.5 161t284.5 -143q51 -80 55 -172zM1450 549q166 213 100 424q-51 162 -211 235q-207 94 -442 -26q-90 -47 -176 -125q-33 -143 -156 -365l-188 -340q252 -184 544.5 -126.5t528.5 323.5z" glyph-name="D" horiz-adv-x="1595" unicode="D"/><glyph d="M389 1161q70 156 207 246t279.5 101.5t275.5 -36t203 -145.5l-187 -231q-86 113 -249.5 156.5t-303 6t-165.5 -136.5q-33 -96 107 -188t335 -92l-6 -43h2l-15 -86l-4 -33l-12 -72q-256 0 -522 -85t-266 -171q0 -31 74.5 -62.5t191.5 -49t244 -19.5t247.5 33t186.5 102 l32 -37q-55 -113 -155.5 -194.5t-215 -119.5t-235.5 -36t-218 44t-158.5 132.5t-61.5 216.5q0 190 125 297t321 142q-139 149 -57 360z" glyph-name="E" horiz-adv-x="1087" unicode="E"/><glyph d="M780 1036q182 299 401.5 413t522.5 52l-70 -344q-188 12 -324 -5t-250 -77.5t-196 -131.5t-205 -202q-27 -49 -32 -57l-6 -10q176 14 387 -35l-105 -260q-180 154 -348 176l-164 -297q-80 -135 -170 -225t-143 -76q-63 27 -77.5 123t36.5 221t162 213q90 72 165.5 103.5 t178.5 48.5l28 49q78 139 96.5 284.5t-44.5 221.5q-70 61 -184.5 28.5t-207.5 -123.5l-172 222q207 156 393.5 160.5t286.5 -142.5q86 -133 41 -330zM334 289l149 268q-76 -4 -136 -24.5t-128 -79.5q-59 -51 -81.5 -120t-9.5 -119t44 -62q45 -16 78 16.5t84 120.5z" glyph-name="F" horiz-adv-x="1097" unicode="F"/><glyph d="M1577 1057q-301 221 -619.5 170t-572.5 -375q-115 -158 -115 -310.5t101 -230.5q49 -33 114.5 -37t132 15.5t143.5 60.5t145.5 88t141 106.5t129 111t109.5 104.5l53 -6q-47 -250 -165 -541q113 39 194.5 91t142.5 147l52 -15q-31 -63 -75 -110t-104.5 -80t-109.5 -52.5 t-127 -43.5q-143 -332 -312 -535t-309 -154q-33 12 -56.5 33t-34.5 60.5t2.5 91t61.5 130.5t132 173q68 70 161 122t141 67.5t169 51.5q104 254 164 482q-131 -137 -257 -252t-259.5 -213t-248 -152.5t-221 -70t-178.5 33.5q-248 174 123 734q139 217 341 389t414 266 t429 94t377 -112zM803 -315q98 43 272 442q-139 -43 -235.5 -92t-167.5 -137q-86 -127 -34 -196.5t165 -16.5z" glyph-name="G" horiz-adv-x="1449" unicode="G"/><glyph d="M1188 238q78 -57 177 -14.5t249 192.5l39 -35q-195 -223 -369 -329.5t-291 -49.5q-63 31 -76.5 114t16.5 197.5t95 257.5q-61 35 -148 52.5t-144.5 19.5t-180.5 2l-362 -659l-58 32l397 721q82 143 101.5 295t-45.5 230q-74 61 -194 28.5t-214 -127.5l-180 230 q215 162 409.5 168t297.5 -148q154 -236 -91 -663q193 68 512 14q229 412 553 750l52 -39q-90 -104 -174 -212t-169 -231t-144.5 -237.5t-94.5 -221t-26.5 -194.5t63.5 -143z" glyph-name="H" horiz-adv-x="1568" unicode="H"/><glyph d="M864 1358q145 -240 -123 -666l-272 -475h262l-119 -217h-612l119 217h280l289 506q78 135 98.5 276.5t-38.5 217.5q-68 61 -181.5 31.5t-204.5 -118.5l-165 220q205 150 389 151.5t278 -143.5z" glyph-name="I" horiz-adv-x="843" unicode="I"/><glyph d="M1382 614v-49q-158 -12 -325 -53l-250 -453q-113 -197 -234.5 -318.5t-221 -156.5t-180.5 -20.5t-130 76.5q-51 61 -38 144t64.5 172t150.5 182t219 174t270.5 148.5t304.5 104.5l78 140q78 141 97 286.5t-44 220.5q-72 61 -187.5 28.5t-205.5 -122.5l-175 223 q207 156 395.5 161t289.5 -142q152 -240 -113 -686l-51 -92q139 28 286 32zM762 111l209 376q-217 -63 -391 -158.5t-264.5 -207t-53.5 -209.5q35 -80 120 -89t192.5 67t187.5 221z" glyph-name="J" horiz-adv-x="1148" unicode="J"/><glyph d="M1561 1020q-332 63 -612.5 -46.5t-381.5 -344.5q88 -139 252 -255t343 -150t315 89l12 -12q-39 -127 -117 -207t-172 -104.5t-200.5 2t-200.5 97.5t-172 195t-117 283l-324 -587l-57 30l385 697q76 139 95.5 283.5t-44.5 221.5q-72 59 -187.5 26.5t-205.5 -122.5 l-172 223q207 158 394.5 163t287.5 -144q96 -154 27 -381q160 180 381 302t477 144z" glyph-name="K" horiz-adv-x="1591" unicode="K"/><glyph d="M313 442q86 23 202 -22t223.5 -111.5t217 -124t213 -55.5t177.5 92l40 -22q-190 -315 -415 -316q-61 0 -144.5 37t-159 88t-163.5 101.5t-165 83t-158 26.5t-146 -61l-10 14l-25 27l49 37l82 75q98 98 198.5 252t181.5 291t176 273.5t223 238.5t284 147q106 18 194.5 -8 t146.5 -87.5t95 -130t56 -146.5l-320 -195q-72 412 -338 324q-113 -45 -219.5 -146.5t-173 -200t-165 -250t-157.5 -231.5z" glyph-name="L" horiz-adv-x="1497" unicode="L"/><glyph d="M1870 461q-94 -139 -25 -180q68 -39 207 38q141 78 244 226l35 -21q-162 -283 -312.5 -424t-300.5 -102q-57 14 -75.5 75.5t13.5 158t111 200.5q66 96 114 173t96 170t68.5 162t14.5 128t-51 90q-182 96 -627 -412q-92 -139 -279.5 -397t-248.5 -348l-49 18 q354 522 486 791.5t32 347.5q-72 47 -180.5 1t-233.5 -167t-253 -277.5t-257 -349.5l-211 -382l-57 30l389 703q78 141 96.5 287.5t-45.5 224.5q-72 61 -188.5 28.5t-208.5 -125.5l-174 226q209 158 399.5 163t290.5 -145q129 -199 -37 -549q170 248 329 413t314.5 237.5 t268.5 5.5q133 -86 39 -334q197 217 365.5 309t281.5 25q53 -37 74.5 -86.5t6 -120t-42 -139t-93 -177t-125 -197.5t-156.5 -233q-31 -42 -45 -65z" glyph-name="M" horiz-adv-x="2160" unicode="M"/><glyph d="M1178 449q-96 -141 -23 -181q68 -39 209 39q139 78 242 225l34 -20q-162 -285 -312 -427t-302 -101q-57 14 -75.5 75.5t13 158.5t111.5 202q190 281 236 364q150 276 6 363q-127 70 -387 -166t-533 -625l-209 -376l-55 30l389 707q78 143 97.5 289.5t-44.5 224.5 q-74 61 -190.5 28.5t-208.5 -124.5l-176 225q211 158 400.5 163t291.5 -145q147 -229 -86 -643q291 399 565.5 622.5t421.5 147.5q74 -47 87.5 -119.5t-52 -210t-132 -243t-224.5 -342.5q-61 -92 -94 -141z" glyph-name="N" horiz-adv-x="1488" unicode="N"/><glyph d="M1577 1350q172 -209 70 -533q-102 -317 -404 -563q-307 -246 -633 -277q-27 -4 -82 -4q-281 0 -424 181q-172 207 -67 530q96 313 401 563q301 244 633 277q340 35 506 -174zM94 690q-47 -182 161 -303t525 -113q365 10 592 193q195 154 219 401q14 143 -188 242 q-229 109 -547 88q-383 -23 -596 -227q-125 -117 -166 -281z" glyph-name="O" horiz-adv-x="1511" unicode="O"/><glyph d="M1548 1075q29 -188 -11 -347t-132 -265.5t-222 -178t-277.5 -95t-302 -8t-294.5 72.5l-217 -272l-49 38l209 261q-127 63 -221 157l26 58q145 -43 324 -54l496 621l47 -39l-465 -584q197 -2 385 38t341.5 115t232.5 201t46 281q-63 213 -309 199q-236 -12 -510 -211 q-258 -188 -387 -430l-258 305q100 174 251.5 304t312.5 197.5t328 82t303 -28.5t232 -150.5t121 -267.5z" glyph-name="P" horiz-adv-x="1536" unicode="P"/><glyph d="M1606 813q-94 -309 -392 -549q-121 -98 -253 -164q178 -76 399 -14l104 -324q-276 -90 -472.5 -21t-284.5 269q-55 -12 -111 -18q-53 -4 -80 -4q-270 0 -416 176q-164 203 -65 520q98 307 393 549q297 240 619 270q330 33 493 -172q166 -205 66 -518zM92 688 q-41 -164 125 -274.5t430 -128.5q-4 70 2 127l47 14q18 -84 54 -143q145 4 277 38.5t247 102.5t190.5 180.5t89.5 257.5q14 141 -188 238q-225 106 -537 84q-377 -25 -583 -226q-115 -114 -154 -270z" glyph-name="Q" horiz-adv-x="1544" unicode="Q"/><glyph d="M1710 1315q57 -115 43 -229.5t-87 -207t-187.5 -170t-261 -120.5t-307 -61.5t-322.5 12.5q248 -215 523 -287t462 57l18 -18q-160 -254 -351 -306.5t-377.5 95t-336.5 469.5l25 22q131 14 294 82t306 159t263 186.5t183.5 176t47.5 115.5q-14 25 -75 27t-164 -30 t-226 -92t-276.5 -175t-297.5 -264q-25 -41 -37 -64l-383 -692l-55 31l381 692q78 139 97.5 283.5t-44.5 222.5q-72 59 -186.5 26.5t-204.5 -122.5l-174 221q207 156 393.5 161t286.5 -143q70 -109 53 -254q109 156 257.5 252t286.5 118.5t258 -21t175 -152.5z" glyph-name="R" horiz-adv-x="1681" unicode="R"/><glyph d="M1524 1380l-121 -303q-233 115 -469 160t-375 17.5t-139 -103.5q0 -53 94 -100t227 -94.5t264.5 -110t216.5 -171t72 -249.5q-10 -139 -112.5 -243.5t-255 -148.5t-321.5 -47t-334 57t-271 171l127 279q143 -121 407.5 -181.5t470 -37t205.5 117.5q0 61 -72.5 113.5 t-180 88.5t-227.5 86t-218 104.5t-149.5 148.5t-22.5 215q51 193 224 292t427 84.5t533 -145.5z" glyph-name="S" horiz-adv-x="1392" unicode="S"/><glyph d="M0 1063q371 629 1346 389q195 -39 340 12.5t161 139.5l242 -156q-117 -188 -295 -207.5t-489 123.5q-117 55 -239 55t-231.5 -44t-220 -126t-204 -181t-181.5 -222zM1253 1315l58 -21q-272 -737 -559 -1079t-652 -293v305q193 0 338.5 48.5t284.5 171t266 332.5t264 536z " glyph-name="T" horiz-adv-x="1269" unicode="T"/><glyph d="M1778 641l37 -47q-322 -328 -388 -389q-268 -250 -405 -230q-35 4 -64 25q-195 156 68 614q-354 -381 -610 -549.5t-387 -39.5q-51 63 -9.5 163.5t140 208t218.5 229.5t222 227t153.5 200.5t14.5 150.5q-96 129 -479 -125l-111 252q127 117 274.5 164t267.5 12.5 t169 -143.5q43 -88 9 -195.5t-113.5 -211t-174 -210t-176.5 -194.5t-118.5 -165t-0.5 -120q53 -53 169 3.5t282 211t320.5 320.5t353.5 395q129 156 274 324l47 -54q-338 -420 -442 -571q-367 -526 -182 -670l12 -8q37 -23 101.5 1t145.5 85.5t153.5 126t158.5 143.5 q47 46 70 66z" glyph-name="U" horiz-adv-x="1552" unicode="U"/><glyph d="M1112 1700l283 186q211 -219 173 -468t-321 -566q-436 -524 -760.5 -737t-457.5 -80q-51 51 -10.5 145t137 199.5t214 228.5t219 229.5t152 204t13.5 152.5q-96 127 -471 -125l-109 248q190 176 407.5 186t290.5 -153q49 -100 -12 -234.5t-175 -261.5t-228.5 -247 t-174 -219t-8.5 -150q90 -90 329 74.5t595 582.5q84 109 111.5 227.5t2 223t-75.5 192.5t-124 162z" glyph-name="V" horiz-adv-x="1064" unicode="V"/><glyph d="M2140 1884q205 -233 170 -474t-315 -554q-432 -524 -757 -736t-456 -79q-59 59 7.5 179t198.5 256t267.5 273.5t213 260.5t34.5 186l-6 6q-115 -137 -217 -254t-218 -245t-217.5 -228t-205.5 -193.5t-192.5 -153.5t-168 -97t-143 -33t-106.5 47q-59 59 7 178t198.5 256 t267.5 273.5t213 259.5t35 186q-96 127 -469 -123l-109 248q190 174 405.5 184.5t288.5 -153.5q49 -98 -11 -232.5t-174 -261.5t-228.5 -245.5t-173 -218t-9.5 -148.5q27 -27 63 -31t83 14.5t96 48t112.5 83t122 106.5t134 132t137 144.5t143.5 158.5t141.5 163t141.5 166 q18 18 49 53q74 84 98 86q18 2 31 -22q49 -98 -12.5 -232.5t-175 -261.5t-227 -245.5t-173 -218t-8.5 -148.5q90 -90 327.5 73.5t592.5 581.5q98 123 124.5 259t-8 245.5t-90 190.5t-117.5 124z" glyph-name="W" horiz-adv-x="1775" unicode="W"/><glyph d="M1352 236q129 -35 254 60t274 298l37 -29q-201 -301 -268 -381q-186 -225 -363 -217q-14 0 -29 2q-92 14 -136 97.5t-44 202t2 263.5q-635 -563 -1079 -563v301q588 0 1083 385q6 201 -23.5 343.5t-123.5 226.5q-72 55 -172 46t-196.5 -55.5t-157.5 -107.5l-103 268 q154 150 357.5 145t334.5 -155q53 -59 85 -134t46.5 -178.5t17.5 -158.5t7 -180q96 80 207 190.5t179.5 185t200.5 225t183 206.5l49 -49q-446 -532 -815 -869q8 -160 49.5 -251.5t143.5 -116.5z" glyph-name="X" horiz-adv-x="1712" unicode="X"/><glyph d="M1591 1491l47 -43q-106 -180 -244.5 -479t-248 -543t-228 -469t-233.5 -328.5t-215 -52.5q-135 72 -63 244q82 197 372 393q129 90 287 164q35 78 104.5 232.5t131 290.5t118.5 255q-1063 -1380 -1380 -1108q-47 47 -39 113.5t59.5 138.5t127 156t161.5 163.5t165 162.5 t137.5 155t76.5 137.5t-16 110.5q-31 39 -81 45t-114.5 -21.5t-112 -55.5t-110.5 -71l-109 248q125 115 269.5 161t262.5 12t165 -140q31 -86 7 -183.5t-85.5 -182.5t-139 -176t-154.5 -164.5t-134.5 -147.5t-75.5 -125t20 -96q29 -29 70 -30t93.5 25.5t109.5 65.5 t126.5 107.5t135.5 135t147.5 162t148.5 176.5t151.5 188.5t147 187.5t142.5 186zM659 -170q68 -43 158 83t217 398q-328 -184 -401 -338q-46 -92 26 -143z" glyph-name="Y" horiz-adv-x="1228" unicode="Y"/><glyph d="M438 315q100 16 261 -7t279 -44.5t239.5 17t189.5 163.5l33 -8q-25 -213 -149 -357.5t-277 -144.5q-127 0 -252 27t-213 58.5t-174 57t-171 22.5t-167 -46l-37 51q106 74 263 177.5t274.5 181.5t254 171t230.5 166.5t174 148.5t115 135.5t22 107.5q-12 49 -95 50 t-211 -38t-261 -92t-277 -121l-120 281q201 119 468 189.5t487 46t253 -170.5q14 -72 -31 -154.5t-134 -168.5t-213 -181.5t-271.5 -194.5t-306.5 -204q-122 -78 -183 -119z" glyph-name="Z" horiz-adv-x="1540" unicode="Z"/><glyph d="M1548 1292h-501l-666 -1194h534l-149 -336h-668l19 29h-2l1024 1829h561z" glyph-name="bracketleft" horiz-adv-x="1306" unicode="["/><glyph d="M1028 2l-1290 1462l45 41l1290 -1462z" glyph-name="backslash" horiz-adv-x="1171" unicode="\"/><glyph d="M-102 84h501l666 1194h-535l150 336h668l-19 -29h2l-1024 -1829h-561z" glyph-name="bracketright" horiz-adv-x="1249" unicode="]"/><glyph d="M242 350l-144 146q309 184 711 694l651 -696l-39 -35l-508 549q-272 -431 -671 -658z" glyph-name="asciicircum" horiz-adv-x="1558" unicode="^"/><glyph d="M889 -217h-889l131 217h889z" glyph-name="underscore" horiz-adv-x="1118" unicode="_"/><glyph d="M238 1491l280 -399l-61 -52l-359 342z" glyph-name="grave" horiz-adv-x="616" unicode="`"/><glyph d="M1059 561l39 -33q-109 -156 -166.5 -231.5t-141 -168.5t-151.5 -120.5t-131 -5.5q-119 43 -45 229q-119 -127 -239 -193.5t-199 -37.5q-86 37 -87 144.5t109 295.5q168 254 378 332t347 -76l64 74l41 -39q-137 -180 -206 -320.5t-24 -174.5q55 -35 166 48.5t246 276.5z M156 236q190 -66 399 167q23 41 68 103q-150 94 -289 71.5t-213 -147.5q-35 -86 -19.5 -131t54.5 -63z" glyph-name="a" unicode="a"/><glyph d="M362 782q162 59 269.5 128t150.5 126.5t54.5 109.5t-1 86t-34.5 48q-47 29 -120 -3t-146.5 -107.5t-148.5 -176t-129 -215t-86 -218t-20.5 -188.5t68.5 -124q109 -66 214.5 40.5t78.5 317.5q-6 29 -14 76l45 10q2 -8 7 -21.5t7 -17.5q10 -33 17.5 -50t20.5 -44t28.5 -39 t38 -23.5t54.5 -10.5t72 12l13 -39q-152 -47 -221 16q-4 -98 -44 -191.5t-99.5 -157t-130 -107.5t-135.5 -44t-118 33q-70 57 -76 180t43.5 271.5t131 312.5t191.5 308.5t220.5 254t221 157.5t190.5 9q123 -57 76 -217q-51 -178 -258 -346q-182 -145 -414 -219z" glyph-name="b" horiz-adv-x="686" unicode="b"/><glyph d="M778 465l33 -23q-193 -293 -438.5 -415.5t-376.5 22.5q-49 70 -36 161t60.5 178t124.5 173q115 129 286 210t247 22q82 -63 14.5 -181t-235.5 -192l-15 35q129 88 54 159q-72 59 -196 0t-165 -168.5t64 -230.5q43 -33 103 -35t134 25.5t163 94.5t179 165z" glyph-name="c" horiz-adv-x="712" unicode="c"/><glyph d="M772 252q111 -63 348 225l37 -37q-385 -514 -557 -422q-92 45 -14 297q-311 -412 -508 -352q-63 18 -103.5 73.5t-34 157t82.5 220.5q166 252 383 361.5t374 -1.5q150 297 398 721l53 -25q-78 -139 -138.5 -249.5t-132 -250t-115.5 -247t-78 -208.5t-32 -168.5t37 -94.5z M215 205q168 -37 422 254l25 61q-164 94 -326 54.5t-238 -171.5q-39 -74 5 -127t112 -71z" glyph-name="d" horiz-adv-x="1046" unicode="d"/><glyph d="M879 485l36 -39q-164 -190 -339 -316t-324.5 -154.5t-241.5 71.5q-53 74 -39.5 170t63.5 187.5t132 181.5q119 135 288 207.5t234 -0.5q61 -80 12 -168t-159.5 -168t-211 -132.5t-143.5 -62.5q25 -29 37 -41q66 -41 162 -30.5t230.5 89t263.5 205.5zM494 623 q-33 35 -91.5 22.5t-116 -44.5t-100.5 -89t-43 -111q90 4 183.5 28t142.5 60q35 27 42.5 71.5t-17.5 62.5z" glyph-name="e" horiz-adv-x="796" unicode="e"/><glyph d="M205 508q57 -141 178 -210t285 -9l16 -45q-287 -106 -434 -8q12 -90 12 -176.5t-14.5 -164t-38 -147.5t-56 -129t-69.5 -106.5t-79 -79t-84 -49t-85 -16.5t-80 22q-164 96 67.5 576t909.5 1535l45 -43q-337 -510 -573 -950zM-20 -385q57 -27 118.5 78.5t86 274.5 t-16.5 372q-12 27 -18 59q-352 -690 -170 -784z" glyph-name="f" horiz-adv-x="606" unicode="f"/><glyph d="M1077 354q-156 -158 -461 -321q-98 -156 -202.5 -281t-198.5 -202.5t-177 -117.5t-146.5 -31t-100.5 64q-31 66 -4 127.5t143.5 139.5t189.5 117.5t265 136.5q137 70 205 104q94 152 174 320q-164 -211 -341 -347.5t-319 -95.5q-68 20 -109.5 79.5t-34.5 164t85 227.5 q115 172 275.5 277.5t309 110.5t261.5 -99q4 14 11 41t11 39l64 -16q-121 -344 -295 -650q246 135 362 252zM248 221q102 -23 237.5 35.5t276.5 218.5q-178 119 -368.5 103.5t-268.5 -148.5q-35 -57 -12.5 -102t57.5 -69t78 -38zM45 -385q53 -59 186.5 46.5t282.5 315.5 q-307 -160 -369 -200q-143 -94 -100 -162z" glyph-name="g" horiz-adv-x="995" unicode="g"/><glyph d="M1016 481l31 -32q-270 -289 -383 -381q-193 -156 -289 -99q-78 53 -49.5 148.5t102.5 183.5t120 166t5 98q-53 27 -124 -4t-175 -144.5t-151.5 -170t-172.5 -219.5q-31 -39 -45 -58l-57 31l829 1501l56 -28l-668 -1215q49 59 87 105.5t87 102.5t89 97t87 85t87 74 t84 55.5t83 35.5t78 9t74 -17q57 -31 54 -82t-50 -104.5t-103.5 -116t-104.5 -117.5t-52 -108.5t53 -88.5q16 -12 37.5 -13t43 8.5t48.5 28.5t51.5 41.5t55 52.5t58.5 57.5t61.5 60t62.5 57.5z" glyph-name="h" horiz-adv-x="923" unicode="h"/><glyph d="M590 1003.5q0 -55.5 -37 -93.5t-94 -38q-55 0 -93 38t-38 93.5t37.5 93.5t93.5 38q57 0 94 -38t37 -93.5zM336 807l45 -41q-147 -188 -220 -348t-28 -203q43 -43 133 16.5t199 190.5l41 -27q-162 -221 -305.5 -332.5t-227.5 -66.5q-45 29 -57 78t11.5 116.5t59.5 137 t99.5 158.5t118.5 160t131 161z" glyph-name="i" horiz-adv-x="417" unicode="i"/><glyph d="M782 1016q0 -59 -44 -103.5t-105.5 -44.5t-104.5 44t-43 104q0 61 43 105t104.5 44t105.5 -44t44 -105zM852 487q-51 -61 -120.5 -116.5t-114 -81t-135.5 -72.5t-113 -59q-127 -256 -249 -440.5t-246 -282t-214 -45.5q-82 63 -67.5 154t110.5 202t246.5 223.5 t341.5 223.5l117 219q41 82 -23 123q-68 45 -168 -9q-59 -33 -108 -96l-37 23q135 254 301 325q121 51 180 -18q49 -61 10 -180q-57 -143 -141 -318q29 14 93.5 41t101 46.5t91 65.5t99.5 111zM-195 -336q51 -49 164 61.5t254 346.5q-225 -139 -342 -246t-76 -162z" glyph-name="j" horiz-adv-x="692" unicode="j"/><glyph d="M958 360l23 -24q-152 -203 -325 -310.5t-311 -75.5t-179 218l186 111q338 217 277 292q-63 70 -293 -88.5t-371 -371.5l-67 -123l-54 30l815 1483l56 -31l-596 -1081q199 236 414 364t307 33q154 -176 -430 -546q155 -269 548 120z" glyph-name="k" horiz-adv-x="907" unicode="k"/><glyph d="M254 219q119 -57 239.5 14.5t260.5 264.5l43 -29q-188 -231 -365.5 -375.5t-292.5 -111.5q-178 66 -82 419q88 319 330 672q215 317 387 404q76 39 129 16q51 -29 56.5 -98.5t-29.5 -160.5t-95.5 -195.5t-143.5 -210t-170 -196.5t-179 -162t-166 -101q6 -109 78 -150z M750 1257q-63 33 -167 -55t-201 -243.5t-155 -315.5q137 -4 290 129t224.5 284.5t8.5 200.5z" glyph-name="l" horiz-adv-x="663" unicode="l"/><glyph d="M1405 420l31 -31q-174 -236 -374 -373t-286 -61q-47 47 -22.5 113.5t86 130t120 134t81 124t-30.5 100.5q-111 72 -308 -145q-76 -84 -321 -416q-2 -4 -6 -8l-10 -17h-3l-40 17q27 49 81 137t83.5 142.5t57 119t24.5 106.5t-38 66q-37 20 -74.5 18t-82.5 -31.5t-91 -73.5 t-99.5 -107.5t-105.5 -132t-112 -148.5q-55 -76 -84 -113l-53 27l438 799l56 -31l-291 -526q442 651 663 553q123 -63 6 -295q303 371 476 295q70 -43 64.5 -116t-60 -145.5t-111.5 -151.5t-89 -134.5t7 -93.5q61 -45 181 39t237 229z" glyph-name="m" horiz-adv-x="1357" unicode="m"/><glyph d="M965 434l30 -28q-178 -246 -386 -388.5t-298 -62.5q-47 47 -22.5 117.5t90 137t126 140.5t85 130.5t-30.5 105.5q-111 76 -315 -152q-82 -92 -328 -422l-29 -51l-55 33l455 825l57 -33l-260 -469q426 602 643 506q61 -39 66.5 -99t-33.5 -123.5t-90.5 -134.5 t-100.5 -130.5t-65.5 -111.5t12.5 -77q63 -47 194.5 44t254.5 243z" glyph-name="n" horiz-adv-x="921" unicode="n"/><glyph d="M979 362q-129 -92 -248 -108l-18 -27q-115 -160 -279 -227q-86 -33 -151 -33q-78 0 -140 37q-88 51 -110 166q-41 188 110 403q117 160 281 230q166 70 289 -4q92 -55 112 -166q29 -133 -45 -289q80 6 181 55zM238 618q-106 -131 -21 -286q66 -121 191 -170 q147 -57 237 49q2 4 4 6q12 18 21 35q-150 8 -224.5 140t-31.5 280q-115 16 -176 -54zM702 350q16 150 -131 258q6 -221 131 -258z" glyph-name="o" horiz-adv-x="880" unicode="o"/><glyph d="M678 831q70 -16 89 -90.5t-3.5 -171t-73.5 -204.5q-41 -90 -110.5 -172t-150.5 -134.5t-162 -69t-151.5 30t-109.5 156.5l-422 -786l-59 28l764 1418l55 -33l-178 -330q164 184 289 281t223 77zM621 379q55 152 -60 176q-113 25 -282 -80q-88 -55 -160 -129 q70 -76 175 -102.5t199.5 8.5t127.5 127z" glyph-name="p" horiz-adv-x="776" unicode="p"/><glyph d="M1024 358l29 -26q-92 -147 -163 -206.5t-145 -37.5q-37 20 -53 64q-16 -121 -27.5 -183.5t-32 -168t-43 -161t-56 -113.5t-77.5 -77.5t-98 -5.5q-55 14 -80.5 52t-21.5 95.5t29.5 129t75 159.5t109.5 179.5t136 195.5q-297 -317 -487 -264q-51 12 -87 48t-53.5 91t1 138 t73.5 175q113 174 285 276.5t339 95.5t259 -134l-14 -23q4 6 35.5 45t48.5 58l32 -29q-119 -133 -254 -311q-8 -78 26 -126t95.5 -35t118.5 99zM248 233q102 -23 232 35t261 217q-168 113 -352 95.5t-260 -146.5q-41 -76 4 -128.5t115 -72.5zM442 -297q25 -6 48.5 11.5 t45 61.5t40 92t39 124t35 136t32.5 146q-158 -227 -232 -390t-8 -181z" glyph-name="q" horiz-adv-x="1003" unicode="q"/><glyph d="M819 408l25 -35q-242 -276 -432.5 -374.5t-296.5 3.5q-147 207 358 592q-197 -90 -283 -59q-35 -82 -167 -224l-27 33q39 53 77 139t42 144q-6 68 57.5 141.5t155.5 110.5l28 -17q-39 -55 45 -94q109 -49 263 -8q68 18 124 53l27 -35q-55 -41 -101 -76.5t-98.5 -78.5 t-92.5 -81t-78.5 -79t-63.5 -79t-39 -73t-12 -67.5t22 -59.5q121 -120 467 224z" glyph-name="r" horiz-adv-x="770" unicode="r"/><glyph d="M772 440q-319 -344 -528 -434q-29 -16 -76 -26q-20 -6 -41 -7q-168 0 -205 128t88 274l29 -19q-47 -57 -24.5 -100t118.5 -23q88 27 126 79.5t37 116t-8 129t5 136t59 117.5q80 63 164 16t92 -155l-26 -23q-23 27 -56.5 28t-74.5 -36q-51 -63 -70 -149t-23 -190.5 t-14 -151.5q156 63 395 319z" glyph-name="s" horiz-adv-x="655" unicode="s"/><glyph d="M600 436l27 -37q-47 -57 -85 -101t-82 -93t-81 -84t-77 -70t-74.5 -54.5t-68.5 -32.5t-66 -11t-60 18q-68 49 -70 136.5t42 191.5t140 272h-206l106 228h234q88 147 180 311l57 -23q-51 -90 -160 -288h176l-100 -228h-184q-125 -289 -49 -364q110 -105 401 229z" glyph-name="t" horiz-adv-x="534" unicode="t"/><glyph d="M1006 492l26 -25q-219 -291 -358 -410.5t-246 -68.5q-96 45 -10 243q-262 -301 -416 -243q-37 14 -57.5 39.5t-21.5 62.5t6.5 75t34 92t51 99t67.5 110.5t74.5 112t81 116t75.5 110.5l39 -25q-47 -76 -72.5 -119t-64.5 -111.5t-57.5 -111.5t-32.5 -90t-9 -76.5t27 -44.5 q70 -43 206 75t325 343q74 98 125 160l37 -29q-14 -16 -29 -39q-29 -37 -41 -57q-264 -369 -158 -461q57 -45 151.5 30t246.5 243z" glyph-name="u" unicode="u"/><glyph d="M774 758q-39 -78 -56.5 -130.5t-16.5 -95.5t30 -69.5t86 -40.5l-22 -57q-207 -37 -222 75q-168 -240 -321.5 -370.5t-251.5 -87.5q-72 41 -77 122.5t64.5 211.5t125 214t168.5 242q20 29 30 43l41 -29q-344 -512 -106 -604q162 141 493 609z" glyph-name="v" horiz-adv-x="718" unicode="v"/><glyph d="M1260 735q-31 -86 -5.5 -150.5t105.5 -64.5l-2 -37q-82 -31 -138.5 -11t-74.5 75q-92 -150 -161 -247t-150.5 -187t-157.5 -121t-148 -4q-152 61 -53 280q-133 -162 -242.5 -234.5t-205.5 -35.5q-121 49 -54 262q68 207 244 402q156 168 301 204l62 -123 q-123 -29 -216.5 -82t-141.5 -111t-70.5 -116.5t-13.5 -104.5t42 -71q45 -29 107.5 -3t160 124t154.5 163.5t189 223.5q8 8 12 14l37 -28q-66 -104 -105 -173t-68.5 -139.5t-25.5 -115.5t41 -68q168 -76 541 508z" glyph-name="w" horiz-adv-x="1212" unicode="w"/><glyph d="M985 762q-66 -2 -153 -59.5t-152.5 -119t-177.5 -175.5q-33 -145 63 -187q78 -23 159 24.5t183 164.5l27 -29q-346 -467 -504 -399q-53 25 -63.5 82t1 101t44.5 138q4 12 6 19q-162 -162 -286 -252t-238 -93v46q68 8 136 40.5t148 100t130 117t143 143.5q43 156 -45 197 q-20 8 -39 9t-39.5 -6.5t-36 -17.5t-39 -31.5t-41.5 -40t-50 -50t-59 -56.5l-36 39q29 33 69.5 82t70.5 83t67.5 75t68.5 64.5t64.5 41.5t66.5 17t66 -19q37 -25 42 -76t-4.5 -85t-37.5 -118q-6 -18 -9 -26q139 141 248 218t209 79z" glyph-name="x" horiz-adv-x="856" unicode="x"/><glyph d="M958 381q-145 -145 -434 -303q-94 -152 -195.5 -272.5t-192.5 -196.5t-172 -114t-141.5 -28.5t-94.5 62.5q-10 35 -13.5 63.5t18 61.5t46 61.5t71 61.5t91.5 60.5t105 60t116.5 61.5t124.5 64q137 70 205 104q106 166 196 367q-170 -244 -358.5 -388.5t-302.5 -111.5 q-115 57 -90.5 197.5t160.5 320.5t311 303l34 -37q-72 -68 -130 -131t-103 -126.5t-66.5 -116t-14.5 -95.5t48 -69q68 -49 195 22.5t252 226t180 326.5l63 -16q-125 -352 -284 -623q233 127 344 238zM-27 -328q51 -57 178.5 45.5t272.5 307.5q-301 -158 -361 -199 q-133 -91 -90 -154z" glyph-name="y" horiz-adv-x="876" unicode="y"/><glyph d="M600 119q8 -18 16 -56q14 -94 -40 -212.5t-145 -216t-198.5 -174t-198.5 -86t-145 47.5q-43 57 -47 116t36 137.5t165 177t332 210.5q-14 -2 -176 -28v237q172 43 341 145.5t148 157.5q-39 61 -217 33t-307 -108l-117 196q96 109 253 145t293 -14.5t173 -167.5 q31 -106 -44 -236t-212 -218q35 -16 59 -41q143 70 326 147l2 -57q-164 -63 -297 -135zM129 -393q53 -51 158.5 14.5t185.5 186t68 210.5q-2 29 -43 43q-217 -129 -321.5 -253.5t-47.5 -200.5z" glyph-name="z" horiz-adv-x="872" unicode="z"/><glyph d="M889 1446q33 106 115.5 184t182 114t204 34t182.5 -43l-78 -250q-170 63 -300 42.5t-239 -138.5q-35 -39 -71.5 -142.5t-68.5 -200t-115 -194.5t-203 -141q88 -51 106.5 -160t-8.5 -215.5t-50.5 -228t-10.5 -181.5q35 -115 158.5 -126t295.5 57l68 -215 q-80 -43 -173 -58.5t-179.5 -3.5t-155 67.5t-96.5 145.5q-14 66 -13.5 152t20 177t24.5 180t-4 159.5t-63.5 113.5t-154.5 43v201q225 0 363.5 133.5t263.5 493.5z" glyph-name="braceleft" horiz-adv-x="1310" unicode="{"/><glyph d="M104 0l-55 31l813 1474l56 -30z" glyph-name="bar" horiz-adv-x="655" unicode="|"/><glyph d="M989 1542q14 -63 13 -150t-20 -178.5t-24.5 -180.5t4 -159.5t63.5 -113.5t155 -43v-201q-225 0 -363.5 -133t-263.5 -494q-33 -106 -116 -184t-182 -113.5t-203.5 -33.5t-182.5 43l78 249q170 -63 300 -42.5t238 139.5q35 39 72 142.5t68.5 199.5t114.5 194.5t204 141.5 q-88 51 -106.5 159.5t8 215t50.5 228.5t11 181q-35 115 -158.5 126t-295.5 -56l-68 215q80 43 173 58t179 3t154.5 -67.5t97.5 -145.5z" glyph-name="braceright" horiz-adv-x="1441" unicode="}"/><glyph d="M709 424q-72 57 -148 35.5t-231 -150.5l-166 201q47 35 92 59.5t88 34.5t77 18.5t75 0t63.5 -11.5t60 -21.5t50 -23.5t49.5 -27.5t39 -24.5q63 -37 104 -44t104.5 26.5t153.5 124.5l131 -172q-51 -80 -133 -116t-190 -15.5t-219 106.5z" glyph-name="asciitilde" horiz-adv-x="1349" unicode="~"/><glyph d="M481 665.5q0 55.5 39 94.5t94.5 39t94.5 -39t39 -94.5t-39 -94.5t-94.5 -39t-94.5 39t-39 94.5zM0 -674q-41 -41 -94 -20.5t-53 84.5q246 297 628 1061l56 -29q-318 -758 -537 -1096z" glyph-name="exclamdown" horiz-adv-x="796" unicode="¡"/><glyph d="M653 817q135 94 60 174l-13 8l-262 -473q45 -25 99.5 -28.5t120 21t122.5 81.5l35 -51q-127 -127 -258 -190.5t-238 -49.5l-83 -153l-58 32l76 138q-43 18 -80 55q-55 74 -41 173t65.5 192.5t135.5 185.5q76 86 187.5 159.5t209.5 100.5l115 205l55 -31l-88 -160 q61 0 94 -26q88 -68 16.5 -195t-251.5 -205zM387 565l250 455q-68 6 -145.5 -36t-130 -106.5t-51.5 -151.5t77 -161z" glyph-name="cent" horiz-adv-x="1003" unicode="¢"/><glyph d="M983 1503q78 0 136.5 -15t96 -40t61 -66t35 -80.5t12.5 -98t-4 -105.5t-13 -113h-97q31 139 -15 207t-200 68q-59 0 -108 -25t-83 -59.5t-70 -101t-57.5 -119t-53.5 -144.5h366l-121 -266h-344q-59 -143 -123 -244q66 4 335.5 -13.5t377.5 11.5l-217 -299 q-96 0 -207.5 22.5t-181.5 42t-167 22.5t-163 -34q-33 -25 -49 -35l-31 54q231 137 359 473h-297l166 266h213q8 33 26.5 104.5t27.5 104.5t27.5 94.5t31 92t34 79.5t40.5 73.5t48 56.5t58.5 47.5t68.5 26.5t82 13z" glyph-name="sterling" horiz-adv-x="1421" unicode="£"/><glyph d="M870 590q-18 -37 -67 -86l133 -107l-236 -121l-38 132q-2 -2 -6.5 -2t-6.5 -3q-70 -27 -127 -26.5t-116 26.5l-37 -127l-238 121l148 117q-45 78 -39 182.5t65 200.5q0 2 4 10l-178 137l238 121l41 -147q57 47 116 67q145 55 265 -10q20 -10 24 -16l29 106l239 -121 l-161 -126q8 -33 10 -52q24 -139 -62 -276zM358 868q-25 -51 -2 -110.5t86.5 -107.5t133 -77.5t138 -19.5t103.5 65q31 59 7.5 120t-90 106t-139.5 70.5t-141.5 15t-95.5 -61.5z" glyph-name="currency" horiz-adv-x="1214" unicode="¤"/><glyph d="M1575 1356q-424 -168 -727 -529h258l-121 -266h-336q-10 -16 -29.5 -46t-23.5 -38h332l-121 -266h-358l-117 -211l-56 31l101 180h-279l166 266h260l45 84h-295l168 266h265q47 121 50 227.5t-48 166.5q-72 61 -185.5 28.5t-204.5 -123.5l-172 222q205 156 391.5 159.5 t284.5 -141.5q94 -147 31 -367q281 379 676 523z" glyph-name="yen" horiz-adv-x="1673" unicode="¥"/><glyph d="M621 940l-58 25l299 540l56 -30zM326 532l55 -28l-277 -504l-55 31z" glyph-name="brokenbar" horiz-adv-x="655" unicode="¦"/><glyph d="M1843 1047q-205 125 -411.5 186t-336.5 46t-139 -99q-4 -47 78 -98.5t199 -105.5t230.5 -121t182 -172t44.5 -232q-27 -162 -159 -240t-327 -74q27 -80 13 -168q-27 -156 -178.5 -243.5t-340 -93t-381 61t-292.5 191.5l215 269q74 -74 188.5 -136.5t233 -97.5t226 -49 t177.5 5.5t74 70.5q4 49 -42 95t-120 83t-164 81t-174 88t-148.5 106.5t-88 134t5.5 172.5q49 133 176 212.5t295 90.5q-27 80 6 174q61 172 235 253t410.5 54t474.5 -158zM1614 424q4 57 -50.5 105.5t-158.5 99.5q-43 20 -128 61t-120 58q-168 61 -323.5 75.5t-251 -19.5 t-101.5 -102q-2 -12 2 -24t14.5 -24.5t21.5 -24t31.5 -23.5t36 -21.5t44 -24.5t46 -23.5t52.5 -24.5t53 -25q166 -68 355.5 -109.5t330 -33.5t146.5 80z" glyph-name="section" horiz-adv-x="2021" unicode="§"/><glyph d="M776 1378.5q0 -57.5 -40 -96.5t-97 -39q-55 0 -94 39t-39 96.5t39 96t94 38.5q57 0 97 -38.5t40 -96zM369 1376.5q0 -57.5 -40 -96.5t-98 -39q-55 0 -94 39t-39 96.5t39 96t94 38.5q57 0 97.5 -38.5t40.5 -96z" glyph-name="dieresis" horiz-adv-x="874" unicode="¨"/><glyph d="M752 123q-270 0 -462 191.5t-192 461.5q0 272 191.5 464t462.5 192q272 0 463.5 -191.5t191.5 -464.5q0 -270 -191.5 -461.5t-463.5 -191.5zM751.5 1376q-247.5 0 -422.5 -176t-175 -424t175 -423t422.5 -175t424 175t176.5 423t-176.5 424t-424 176zM1032 651l29 -20 q-98 -125 -225 -197t-241 -76t-201 68t-105 213q-18 143 77 282.5t232 219.5t288.5 82t233.5 -105q68 -92 -9 -218t-212 -155l-113 111q113 59 214.5 134t80.5 112q-29 31 -113.5 23.5t-199.5 -59.5t-218.5 -115.5t-168 -143.5t-47.5 -145q27 -92 158 -135.5t288.5 -11.5 t251.5 136z" glyph-name="copyright" horiz-adv-x="1456" unicode="©"/><glyph d="M629 4l-514 361l663 434l23 -39l-471 -309l434 -291zM1067 0l-512 360l664 435l22 -37l-471 -312l432 -290z" glyph-name="guillemotleft" horiz-adv-x="1355" unicode="«"/><glyph d="M505.5 590q-188.5 0 -322.5 134t-134 325q0 188 134 322t322.5 134t324 -134t135.5 -322q0 -190 -135.5 -324.5t-324 -134.5zM506 1444q-164 0 -280.5 -116t-116.5 -279.5t116.5 -280.5t280.5 -117t280.5 117t116.5 280.5t-116.5 279.5t-280.5 116zM385 1008l47 112 q45 88 122 135.5t144.5 39t96.5 -63.5q39 -80 -16.5 -150.5t-164 -103.5t-219.5 -10v10q74 8 169 60.5t155.5 108.5t50.5 77q-8 6 -27.5 9t-60.5 -12.5t-86 -38t-101.5 -68.5t-109.5 -105zM207 1245q70 53 135.5 55.5t97.5 -49.5q51 -82 -39 -233l-131 -238l-18 11l131 237 q27 47 33 96.5t-15 77.5q-25 20 -64.5 9t-70.5 -42zM395 977q84 -82 184.5 -109.5t165.5 19.5l9 -6q-86 -133 -187.5 -106.5t-179.5 194.5z" glyph-name="registered" horiz-adv-x="1013" unicode="®"/><glyph d="M735 1309h-686l135 192h666z" glyph-name="macron" horiz-adv-x="899" unicode="¯"/><glyph d="M379 733q-76 0 -137 37q-117 68 -140.5 217.5t60.5 292.5q82 143 221 197q141 57 260 -11q119 -72 141 -221q18 -150 -61 -289q-82 -141 -221 -198q-62 -25 -123 -25zM215 1249q-31 -68 -14.5 -137.5t75 -119.5t127 -77.5t144.5 -10t123 82.5q29 76 7 147.5t-85.5 120 t-134 73t-140 4.5t-102.5 -83z" glyph-name="degree" horiz-adv-x="886" unicode="°"/><glyph d="M481 311l135 248h-315l148 244h303l151 276l51 -30l-137 -246h318l-148 -244h-305l-152 -274zM98 -217l131 217h889l-131 -217h-889z" glyph-name="plusminus" horiz-adv-x="1216" unicode="±"/><glyph d="M98 1159l418 338l115 -182l-494 -217z" glyph-name="acute" horiz-adv-x="729" unicode="´"/><glyph d="M350 1290q88 160 271.5 202t355.5 -48l-823 -1493l-56 31l404 731q-145 90 -188.5 256.5t36.5 320.5zM438 -117l-55 31l823 1491l56 -29z" glyph-name="paragraph" horiz-adv-x="1359" unicode="¶"/><glyph d="M455 407.5q0 -57.5 -40 -96.5t-98 -39q-55 0 -94 39t-39 96.5t39 96.5t94 39q57 0 97.5 -39t40.5 -96.5z" glyph-name="periodcentered" horiz-adv-x="503" unicode="·"/><glyph d="M322 66h84l-84 -115q88 20 139 -33t14 -160q-37 -98 -116.5 -131t-155.5 3t-105 122l31 47q63 -51 172 -62t127 30q8 23 -32 49t-96 43.5t-99 17.5z" glyph-name="cedilla" horiz-adv-x="587" unicode="¸"/><glyph d="M272 799l512 -361l-663 -434l-23 37l471 311l-432 291zM711 795l514 -361l-664 -434l-22 39l471 309l-435 291z" glyph-name="guillemotright" horiz-adv-x="1339" unicode="»"/><glyph d="M469 663.5q0 55.5 39 95.5t94 40q57 0 96 -40t39 -95.5t-39 -94.5t-96 -39q-55 0 -94 39t-39 94.5zM461 -541q-100 -74 -207 -115.5t-197 -47t-163.5 13t-114.5 63.5t-41 107q0 80 66.5 168t167 174t204 176t190.5 203.5t113 228.5l133 -18q-39 -102 -130 -210t-189 -190 t-189.5 -155.5t-140.5 -136t-31 -105.5q27 -59 157 -24.5t310 145.5z" glyph-name="questiondown" horiz-adv-x="761" unicode="¿"/><glyph d="M2228 1630l-61 -51l-359 342l140 109zM2146 1481q135 -139 -155 -428q-154 -168 -248 -300t-130 -207t-33 -135.5t17.5 -82t44.5 -52.5q6 -6 9 -8q63 -68 183 -40t237 143l20 -23q-49 -63 -127 -135t-175 -135.5t-184 -80.5t-155 28q-158 143 82 544q-197 98 -416 -12 q-43 -47 -120.5 -132t-113.5 -124t-98.5 -99.5t-102.5 -88t-94.5 -59t-107.5 -43t-112 -11.5q-160 0 -245 71.5t-122 204.5l238 226q31 -59 99.5 -107.5t161.5 -74t214 14.5t233 152l686 746q150 164 304.5 233.5t209.5 14.5zM1929 1081q80 94 35 160q-41 61 -139 33 q-88 -25 -174 -123l-398 -442q186 80 402 45q120 161 274 327z" glyph-name="Agrave" horiz-adv-x="2002" unicode="À"/><glyph d="M2562 1858l-494 -218l-38 62l417 338zM2146 1481q135 -139 -155 -428q-154 -168 -248 -300t-130 -207t-33 -135.5t17.5 -82t44.5 -52.5q6 -6 9 -8q63 -68 183 -40t237 143l20 -23q-49 -63 -127 -135t-175 -135.5t-184 -80.5t-155 28q-158 143 82 544q-197 98 -416 -12 q-43 -47 -120.5 -132t-113.5 -124t-98.5 -99.5t-102.5 -88t-94.5 -59t-107.5 -43t-112 -11.5q-160 0 -245 71.5t-122 204.5l238 226q31 -59 99.5 -107.5t161.5 -74t214 14.5t233 152l686 746q150 164 304.5 233.5t209.5 14.5zM1929 1081q80 94 35 160q-41 61 -139 33 q-88 -25 -174 -123l-398 -442q186 80 402 45q120 161 274 327z" glyph-name="Aacute" horiz-adv-x="2002" unicode="Á"/><glyph d="M2198 1952q141 -231 303 -264l-78 -175q-143 0 -215 83t-84 198l-303 -233l-58 59zM2146 1481q135 -139 -155 -428q-154 -168 -248 -300t-130 -207t-33 -135.5t17.5 -82t44.5 -52.5q6 -6 9 -8q63 -68 183 -40t237 143l20 -23q-49 -63 -127 -135t-175 -135.5t-184 -80.5 t-155 28q-158 143 82 544q-197 98 -416 -12q-43 -47 -120.5 -132t-113.5 -124t-98.5 -99.5t-102.5 -88t-94.5 -59t-107.5 -43t-112 -11.5q-160 0 -245 71.5t-122 204.5l238 226q31 -59 99.5 -107.5t161.5 -74t214 14.5t233 152l686 746q150 164 304.5 233.5t209.5 14.5z M1929 1081q80 94 35 160q-41 61 -139 33q-88 -25 -174 -123l-398 -442q186 80 402 45q120 161 274 327z" glyph-name="Acircumflex" horiz-adv-x="2002" unicode="Â"/><glyph d="M2406 1853l91 -118q-55 -84 -153.5 -94.5t-221.5 77.5q-49 41 -100.5 26t-159.5 -106l-115 140q29 23 58.5 38t53 24t51 12t46 4.5t43 -5t37 -9.5t35 -14t30.5 -16.5t28.5 -17.5t24.5 -14q53 -39 107.5 -28t144.5 101zM2146 1481q135 -139 -155 -428q-154 -168 -248 -300 t-130 -207t-33 -135.5t17.5 -82t44.5 -52.5q6 -6 9 -8q63 -68 183 -40t237 143l20 -23q-49 -63 -127 -135t-175 -135.5t-184 -80.5t-155 28q-158 143 82 544q-197 98 -416 -12q-43 -47 -120.5 -132t-113.5 -124t-98.5 -99.5t-102.5 -88t-94.5 -59t-107.5 -43t-112 -11.5 q-160 0 -245 71.5t-122 204.5l238 226q31 -59 99.5 -107.5t161.5 -74t214 14.5t233 152l686 746q150 164 304.5 233.5t209.5 14.5zM1929 1081q80 94 35 160q-41 61 -139 33q-88 -25 -174 -123l-398 -442q186 80 402 45q120 161 274 327z" glyph-name="Atilde" horiz-adv-x="2002" unicode="Ã"/><glyph d="M2292 1862q57 0 97 -39t40 -96.5t-40 -96.5t-97 -39q-55 0 -94 39t-39 96.5t39 96.5t94 39zM1884 1589q-55 0 -94 39t-39 96.5t39 96.5t94 39q57 0 97 -39t40 -96.5t-40 -96.5t-97 -39zM2146 1481q135 -139 -155 -428q-154 -168 -248 -300t-130 -207t-33 -135.5t17.5 -82 t44.5 -52.5q6 -6 9 -8q63 -68 183 -40t237 143l20 -23q-49 -63 -127 -135t-175 -135.5t-184 -80.5t-155 28q-158 143 82 544q-197 98 -416 -12q-43 -47 -120.5 -132t-113.5 -124t-98.5 -99.5t-102.5 -88t-94.5 -59t-107.5 -43t-112 -11.5q-160 0 -245 71.5t-122 204.5 l238 226q31 -59 99.5 -107.5t161.5 -74t214 14.5t233 152l686 746q150 164 304.5 233.5t209.5 14.5zM1929 1081q80 94 35 160q-41 61 -139 33q-88 -25 -174 -123l-398 -442q186 80 402 45q120 161 274 327z" glyph-name="Adieresis" horiz-adv-x="2002" unicode="Ä"/><glyph d="M2281 1884q10 -80 -34 -160q-43 -78 -123 -110q-35 -12 -68 -12q-43 0 -76 20q-66 37 -79 120t34 163q45 80 123 108q80 33 144 -6q67 -39 79 -123zM2218 1741q33 43 -26.5 94t-130 64.5t-97.5 -13.5q-23 -41 34.5 -100.5t123 -74.5t96.5 30zM2146 1481 q135 -139 -155 -428q-154 -168 -248 -300t-130 -207t-33 -135.5t17.5 -82t44.5 -52.5q6 -6 9 -8q63 -68 183 -40t237 143l20 -23q-49 -63 -127 -135t-175 -135.5t-184 -80.5t-155 28q-158 143 82 544q-197 98 -416 -12q-43 -47 -120.5 -132t-113.5 -124t-98.5 -99.5 t-102.5 -88t-94.5 -59t-107.5 -43t-112 -11.5q-160 0 -245 71.5t-122 204.5l238 226q31 -59 99.5 -107.5t161.5 -74t214 14.5t233 152l686 746q150 164 304.5 233.5t209.5 14.5zM1929 1081q80 94 35 160q-41 61 -139 33q-88 -25 -174 -123l-398 -442q186 80 402 45 q120 161 274 327z" glyph-name="Aring" horiz-adv-x="2002" unicode="Å"/><glyph d="M2185 1462q176 68 358.5 28t272.5 -165l-184 -227q-84 111 -245 153.5t-296 5t-162 -134.5q-33 -96 104.5 -185t327.5 -89l-6 -41h2l-28 -189q-162 0 -344.5 -38.5t-306.5 -97t-124 -113.5q0 -31 74 -70t188.5 -64.5t238.5 -31.5t243 37t182 133l27 -15 q-70 -111 -176.5 -191.5t-218 -120.5t-224 -41t-201 38t-143.5 125t-55 211q0 113 47 196q-190 92 -414 -18q-41 -45 -120.5 -133t-114.5 -125t-97.5 -99.5t-102.5 -89t-96 -59.5t-109.5 -44t-112.5 -11q-160 0 -246 72.5t-123 205.5l240 230q29 -59 98.5 -109.5t163.5 -75 t217 15.5t235 154l691 752q154 166 308 235.5t210 14.5q12 -13 22 -29zM1870 1161q29 66 80 129q-53 18 -132 -14.5t-155 -118.5l-403 -448q98 43 209.5 52t218.5 -34q100 55 239 82q-137 141 -57 352z" glyph-name="AE" horiz-adv-x="2549" unicode="Æ"/><glyph d="M72 520q29 -98 143.5 -171t271 -100.5t322.5 -18t316.5 80t232.5 189.5l35 -35q-150 -229 -377.5 -357t-452.5 -126l-22 -31q88 20 139 -33t14 -160q-37 -98 -116.5 -131t-155.5 3t-105 122l31 47q63 -51 172 -62t127 30q8 23 -32 49t-96 43.5t-99 17.5l69 107 q-197 20 -331.5 147t-163.5 350q-23 170 49 343t201 307.5t299 232.5t339 135t327.5 -3t258.5 -167q47 -63 52.5 -146t-28.5 -163t-93.5 -152.5t-145.5 -125t-178 -72.5l-201 194q195 98 378.5 235.5t146.5 200.5q-29 45 -122 47.5t-219 -34.5t-269.5 -98.5t-278.5 -147.5 t-241.5 -175t-161.5 -188.5t-35 -183.5z" glyph-name="Ccedilla" horiz-adv-x="1265" unicode="Ç"/><glyph d="M1110 1630l-61 -51l-359 342l139 109zM389 1161q70 156 207 246t279.5 101.5t275.5 -36t203 -145.5l-187 -231q-86 113 -249.5 156.5t-303 6t-165.5 -136.5q-33 -96 107 -188t335 -92l-6 -43h2l-15 -86l-4 -33l-12 -72q-256 0 -522 -85t-266 -171q0 -31 74.5 -62.5 t191.5 -49t244 -19.5t247.5 33t186.5 102l32 -37q-55 -113 -155.5 -194.5t-215 -119.5t-235.5 -36t-218 44t-158.5 132.5t-61.5 216.5q0 190 125 297t321 142q-139 149 -57 360z" glyph-name="Egrave" horiz-adv-x="1087" unicode="È"/><glyph d="M1444 1858l-494 -218l-39 62l418 338zM389 1161q70 156 207 246t279.5 101.5t275.5 -36t203 -145.5l-187 -231q-86 113 -249.5 156.5t-303 6t-165.5 -136.5q-33 -96 107 -188t335 -92l-6 -43h2l-15 -86l-4 -33l-12 -72q-256 0 -522 -85t-266 -171q0 -31 74.5 -62.5 t191.5 -49t244 -19.5t247.5 33t186.5 102l32 -37q-55 -113 -155.5 -194.5t-215 -119.5t-235.5 -36t-218 44t-158.5 132.5t-61.5 216.5q0 190 125 297t321 142q-139 149 -57 360z" glyph-name="Eacute" horiz-adv-x="1087" unicode="É"/><glyph d="M1006 1794l-304 -233l-57 59l434 332q141 -231 303 -264l-77 -175q-143 0 -215 83t-84 198zM389 1161q70 156 207 246t279.5 101.5t275.5 -36t203 -145.5l-187 -231q-86 113 -249.5 156.5t-303 6t-165.5 -136.5q-33 -96 107 -188t335 -92l-6 -43h2l-15 -86l-4 -33 l-12 -72q-256 0 -522 -85t-266 -171q0 -31 74.5 -62.5t191.5 -49t244 -19.5t247.5 33t186.5 102l32 -37q-55 -113 -155.5 -194.5t-215 -119.5t-235.5 -36t-218 44t-158.5 132.5t-61.5 216.5q0 190 125 297t321 142q-139 149 -57 360z" glyph-name="Ecircumflex" horiz-adv-x="1087" unicode="Ê"/><glyph d="M1174 1591q-55 0 -94.5 39t-39.5 96.5t39 96.5t95 39q57 0 97 -39t40 -96.5t-40 -96.5t-97 -39zM766 1589q-55 0 -94 39t-39 96.5t39 96.5t94 39q57 0 97 -39t40 -96.5t-40 -96.5t-97 -39zM389 1161q70 156 207 246t279.5 101.5t275.5 -36t203 -145.5l-187 -231 q-86 113 -249.5 156.5t-303 6t-165.5 -136.5q-33 -96 107 -188t335 -92l-6 -43h2l-15 -86l-4 -33l-12 -72q-256 0 -522 -85t-266 -171q0 -31 74.5 -62.5t191.5 -49t244 -19.5t247.5 33t186.5 102l32 -37q-55 -113 -155.5 -194.5t-215 -119.5t-235.5 -36t-218 44 t-158.5 132.5t-61.5 216.5q0 190 125 297t321 142q-139 149 -57 360z" glyph-name="Edieresis" horiz-adv-x="1087" unicode="Ë"/><glyph d="M774 1630l-61 -51l-359 342l140 109zM864 1358q145 -240 -123 -666l-272 -475h262l-119 -217h-612l119 217h280l289 506q78 135 98.5 276.5t-38.5 217.5q-68 61 -181.5 31.5t-204.5 -118.5l-165 220q205 150 389 151.5t278 -143.5z" glyph-name="Igrave" horiz-adv-x="843" unicode="Ì"/><glyph d="M1108 1858l-494 -218l-39 62l418 338zM197 1350q205 150 389 151.5t278 -143.5q145 -240 -123 -666l-272 -475h262l-119 -217h-612l119 217h280l289 506q78 135 98.5 276.5t-38.5 217.5q-68 61 -181.5 31.5t-204.5 -118.5z" glyph-name="Iacute" horiz-adv-x="843" unicode="Í"/><glyph d="M743 1952q141 -231 304 -264l-78 -175q-143 0 -215 83t-84 198l-303 -233l-58 59zM197 1350q205 150 389 151.5t278 -143.5q145 -240 -123 -666l-272 -475h262l-119 -217h-612l119 217h280l289 506q78 135 98.5 276.5t-38.5 217.5q-68 61 -181.5 31.5t-204.5 -118.5z" glyph-name="Icircumflex" horiz-adv-x="843" unicode="Î"/><glyph d="M838 1862q57 0 97 -39t40 -96.5t-40 -96.5t-97 -39q-55 0 -94 39t-39 96.5t39 96.5t94 39zM430 1589q-55 0 -94 39t-39 96.5t39 96.5t94 39q57 0 97 -39t40 -96.5t-40 -96.5t-97 -39zM197 1350q205 150 389 151.5t278 -143.5q145 -240 -123 -666l-272 -475h262l-119 -217 h-612l119 217h280l289 506q78 135 98.5 276.5t-38.5 217.5q-68 61 -181.5 31.5t-204.5 -118.5z" glyph-name="Idieresis" horiz-adv-x="843" unicode="Ï"/><glyph d="M733 1198q86 111 194.5 183.5t217 100t214 19.5t190.5 -50t140.5 -122t70 -182.5t-28.5 -242.5t-146 -294q-317 -414 -688 -553t-655 45l-58 -102l-55 31l59 108q-106 82 -188 209l203 182q51 -72 125 -137l182 330l6 12h-330l131 217h285q45 188 -39 273 q-72 61 -185.5 29.5t-205.5 -124.5l-172 222q207 156 393.5 161t284.5 -143q51 -80 55 -172zM1450 549q166 213 100 424q-51 162 -211 235q-207 94 -442 -26q-90 -47 -176 -125q-14 -57 -33 -105h242l-131 -217h-211q-6 -14 -23 -43l-188 -340q252 -184 544.5 -126.5 t528.5 323.5z" glyph-name="Eth" horiz-adv-x="1595" unicode="Ð"/><glyph d="M1012 1718q-49 41 -100.5 26t-159.5 -106l-115 140q29 23 58.5 38t53 24t50 12t46 4.5t44 -5t37 -9.5t35 -14t30.5 -16.5t28.5 -17.5t24.5 -14q53 -39 107.5 -28t144.5 101l90 -118q-55 -84 -153 -94.5t-221 77.5zM1178 449q-96 -141 -23 -181q68 -39 209 39 q139 78 242 225l34 -20q-162 -285 -312 -427t-302 -101q-57 14 -75.5 75.5t13 158.5t111.5 202q190 281 236 364q150 276 6 363q-127 70 -387 -166t-533 -625l-209 -376l-55 30l389 707q78 143 97.5 289.5t-44.5 224.5q-74 61 -190.5 28.5t-208.5 -124.5l-176 225 q211 158 400.5 163t291.5 -145q147 -229 -86 -643q291 399 565.5 622.5t421.5 147.5q74 -47 87.5 -119.5t-52 -210t-132 -243t-224.5 -342.5q-61 -92 -94 -141z" glyph-name="Ntilde" horiz-adv-x="1488" unicode="Ñ"/><glyph d="M969 2050l280 -399l-61 -52l-359 343zM1577 1350q172 -209 70 -533q-102 -317 -404 -563q-307 -246 -633 -277q-27 -4 -82 -4q-281 0 -424 181q-172 207 -67 530q96 313 401 563q301 244 633 277q340 35 506 -174zM94 690q-47 -182 161 -303t525 -113q365 10 592 193 q195 154 219 401q14 143 -188 242q-229 109 -547 88q-383 -23 -596 -227q-125 -117 -166 -281z" glyph-name="Ograve" horiz-adv-x="1511" unicode="Ò"/><glyph d="M1051 1722l417 338l115 -182l-493 -217zM1577 1350q172 -209 70 -533q-102 -317 -404 -563q-307 -246 -633 -277q-27 -4 -82 -4q-281 0 -424 181q-172 207 -67 530q96 313 401 563q301 244 633 277q340 35 506 -174zM94 690q-47 -182 161 -303t525 -113q365 10 592 193 q195 154 219 401q14 143 -188 242q-229 109 -547 88q-383 -23 -596 -227q-125 -117 -166 -281z" glyph-name="Oacute" horiz-adv-x="1511" unicode="Ó"/><glyph d="M784 1640l435 332q141 -231 303 -264l-78 -174q-143 0 -215 83t-84 198l-303 -234zM1577 1350q172 -209 70 -533q-102 -317 -404 -563q-307 -246 -633 -277q-27 -4 -82 -4q-281 0 -424 181q-172 207 -67 530q96 313 401 563q301 244 633 277q340 35 506 -174zM94 690 q-47 -182 161 -303t525 -113q365 10 592 193q195 154 219 401q14 143 -188 242q-229 109 -547 88q-383 -23 -596 -227q-125 -117 -166 -281z" glyph-name="Ocircumflex" horiz-adv-x="1511" unicode="Ô"/><glyph d="M1143 1739q-49 41 -100.5 25.5t-159.5 -105.5l-115 139q29 23 58.5 38t53 24.5t50 12.5t46 4t44 -5t37 -9t35 -14.5t30.5 -16.5t28.5 -17.5t25.5 -14.5q53 -39 107 -27.5t144 101.5l91 -119q-55 -84 -153.5 -94t-221.5 78zM1577 1350q172 -209 70 -533 q-102 -317 -404 -563q-307 -246 -633 -277q-27 -4 -82 -4q-281 0 -424 181q-172 207 -67 530q96 313 401 563q301 244 633 277q340 35 506 -174zM94 690q-47 -182 161 -303t525 -113q365 10 592 193q195 154 219 401q14 143 -188 242q-229 109 -547 88q-383 -23 -596 -227 q-125 -117 -166 -281z" glyph-name="Otilde" horiz-adv-x="1511" unicode="Õ"/><glyph d="M1450 1747q0 -57 -40 -96t-97 -39q-55 0 -94 39t-39 96t38.5 96t94.5 39q57 0 97 -39t40 -96zM1042 1745q0 -57 -39.5 -96t-97.5 -39q-55 0 -94 39t-39 96t39 96t94 39q57 0 97 -39t40 -96zM1577 1350q172 -209 70 -533q-102 -317 -404 -563q-307 -246 -633 -277 q-27 -4 -82 -4q-281 0 -424 181q-172 207 -67 530q96 313 401 563q301 244 633 277q340 35 506 -174zM94 690q-47 -182 161 -303t525 -113q365 10 592 193q195 154 219 401q14 143 -188 242q-229 109 -547 88q-383 -23 -596 -227q-125 -117 -166 -281z" glyph-name="Odieresis" horiz-adv-x="1511" unicode="Ö"/><glyph d="M1124 952l-323 -188l274 -205l-252 -237l-342 256l-360 -209l-23 63l326 189l-274 204l288 211l307 -229l361 209z" glyph-name="multiply" horiz-adv-x="1222" unicode="×"/><glyph d="M1577 1350q172 -209 70 -533q-102 -317 -404 -563q-307 -246 -633 -277q-27 -4 -82 -4q-219 0 -358 115l-76 -86l-45 41l76 86l-21 25q-172 207 -67 530q96 313 401 563q301 244 633 277q147 16 268 -19l76 86l45 -41l-59 -67q108 -49 176 -133zM94 690 q-27 -109 36 -195.5t194 -142.5l743 844q-152 14 -302.5 -6.5t-289.5 -76.5t-241.5 -166t-139.5 -257zM1591 868q12 115 -116.5 201t-335.5 119l-756 -858q162 -55 359.5 -54.5t381 57t315.5 195.5t152 340z" glyph-name="Oslash" horiz-adv-x="1511" unicode="Ø"/><glyph d="M1311 1630l-62 -51l-358 342l139 109zM1778 641l37 -47q-322 -328 -388 -389q-268 -250 -405 -230q-35 4 -64 25q-195 156 68 614q-354 -381 -610 -549.5t-387 -39.5q-51 63 -9.5 163.5t140 208t218.5 229.5t222 227t153.5 200.5t14.5 150.5q-96 129 -479 -125l-111 252 q127 117 274.5 164t267.5 12.5t169 -143.5q43 -88 9 -195.5t-113.5 -211t-174 -210t-176.5 -194.5t-118.5 -165t-0.5 -120q53 -53 169 3.5t282 211t320.5 320.5t353.5 395q129 156 274 324l47 -54q-338 -420 -442 -571q-367 -526 -182 -670l12 -8q37 -23 101.5 1t145.5 85.5 t153.5 126t158.5 143.5q47 46 70 66z" glyph-name="Ugrave" horiz-adv-x="1552" unicode="Ù"/><glyph d="M1645 1858l-494 -218l-39 62l418 338zM1778 641l37 -47q-322 -328 -388 -389q-268 -250 -405 -230q-35 4 -64 25q-195 156 68 614q-354 -381 -610 -549.5t-387 -39.5q-51 63 -9.5 163.5t140 208t218.5 229.5t222 227t153.5 200.5t14.5 150.5q-96 129 -479 -125l-111 252 q127 117 274.5 164t267.5 12.5t169 -143.5q43 -88 9 -195.5t-113.5 -211t-174 -210t-176.5 -194.5t-118.5 -165t-0.5 -120q53 -53 169 3.5t282 211t320.5 320.5t353.5 395q129 156 274 324l47 -54q-338 -420 -442 -571q-367 -526 -182 -670l12 -8q37 -23 101.5 1t145.5 85.5 t153.5 126t158.5 143.5q47 46 70 66z" glyph-name="Uacute" horiz-adv-x="1552" unicode="Ú"/><glyph d="M1206 1794l-303 -233l-57 59l434 332q141 -231 303 -264l-78 -175q-143 0 -215 83t-84 198zM1778 641l37 -47q-322 -328 -388 -389q-268 -250 -405 -230q-35 4 -64 25q-195 156 68 614q-354 -381 -610 -549.5t-387 -39.5q-51 63 -9.5 163.5t140 208t218.5 229.5t222 227 t153.5 200.5t14.5 150.5q-96 129 -479 -125l-111 252q127 117 274.5 164t267.5 12.5t169 -143.5q43 -88 9 -195.5t-113.5 -211t-174 -210t-176.5 -194.5t-118.5 -165t-0.5 -120q53 -53 169 3.5t282 211t320.5 320.5t353.5 395q129 156 274 324l47 -54q-338 -420 -442 -571 q-367 -526 -182 -670l12 -8q37 -23 101.5 1t145.5 85.5t153.5 126t158.5 143.5q47 46 70 66z" glyph-name="Ucircumflex" horiz-adv-x="1552" unicode="Û"/><glyph d="M1374 1591q-55 0 -94 39t-39 96.5t39 96.5t94 39q57 0 97 -39t40 -96.5t-40 -96.5t-97 -39zM967 1589q-55 0 -94 39t-39 96.5t38.5 96.5t94.5 39q57 0 97 -39t40 -96.5t-40 -96.5t-97 -39zM1778 641l37 -47q-322 -328 -388 -389q-268 -250 -405 -230q-35 4 -64 25 q-195 156 68 614q-354 -381 -610 -549.5t-387 -39.5q-51 63 -9.5 163.5t140 208t218.5 229.5t222 227t153.5 200.5t14.5 150.5q-96 129 -479 -125l-111 252q127 117 274.5 164t267.5 12.5t169 -143.5q43 -88 9 -195.5t-113.5 -211t-174 -210t-176.5 -194.5t-118.5 -165 t-0.5 -120q53 -53 169 3.5t282 211t320.5 320.5t353.5 395q129 156 274 324l47 -54q-338 -420 -442 -571q-367 -526 -182 -670l12 -8q37 -23 101.5 1t145.5 85.5t153.5 126t158.5 143.5q47 46 70 66z" glyph-name="Udieresis" horiz-adv-x="1552" unicode="Ü"/><glyph d="M1565 1858l-494 -218l-39 62l418 338zM1591 1491l47 -43q-106 -180 -244.5 -479t-248 -543t-228 -469t-233.5 -328.5t-215 -52.5q-135 72 -63 244q82 197 372 393q129 90 287 164q35 78 104.5 232.5t131 290.5t118.5 255q-1063 -1380 -1380 -1108q-47 47 -39 113.5 t59.5 138.5t127 156t161.5 163.5t165 162.5t137.5 155t76.5 137.5t-16 110.5q-31 39 -81 45t-114.5 -21.5t-112 -55.5t-110.5 -71l-109 248q125 115 269.5 161t262.5 12t165 -140q31 -86 7 -183.5t-85.5 -182.5t-139 -176t-154.5 -164.5t-134.5 -147.5t-75.5 -125t20 -96 q29 -29 70 -30t93.5 25.5t109.5 65.5t126.5 107.5t135.5 135t147.5 162t148.5 176.5t151.5 188.5t147 187.5t142.5 186zM659 -170q68 -43 158 83t217 398q-328 -184 -401 -338q-46 -92 26 -143z" glyph-name="Yacute" horiz-adv-x="1228" unicode="Ý"/><glyph d="M1071 1278q131 -6 239.5 -37t190.5 -89t116 -152.5t7 -215.5q-51 -201 -243.5 -346t-432 -208.5t-491.5 -65.5l-92 -166l-56 31l76 137q-137 2 -254 31l125 385q168 -43 326 -60l231 420q-178 -4 -438 -33l106 267q238 98 518 102l125 227l56 -30zM1538 711 q10 72 -37 121t-144 73.5t-212 33.5t-258 5l-238 -430q213 -16 403.5 -10t329 60.5t156.5 146.5z" glyph-name="Thorn" horiz-adv-x="1634" unicode="Þ"/><glyph d="M700 891q131 -41 174.5 -134t7.5 -206t-134 -227q-176 -229 -368 -298t-360 35l201 283q47 -43 135 -63.5t184.5 0t145.5 90.5q31 53 35 104t-13.5 90t-55.5 78t-81 67.5t-100 59.5l373 324q68 63 20 118q-47 55 -145 33q-94 -20 -172 -119l-844 -1439l-55 28l844 1440 q113 203 245.5 296t253.5 26q88 -49 62.5 -148.5t-119 -211t-234.5 -226.5z" glyph-name="germandbls" horiz-adv-x="1058" unicode="ß"/><glyph d="M702 928l-61 -51l-358 342l139 108zM1059 561l39 -33q-109 -156 -166.5 -231.5t-141 -168.5t-151.5 -120.5t-131 -5.5q-119 43 -45 229q-119 -127 -239 -193.5t-199 -37.5q-86 37 -87 144.5t109 295.5q168 254 378 332t347 -76l64 74l41 -39q-137 -180 -206 -320.5 t-24 -174.5q55 -35 166 48.5t246 276.5zM156 236q190 -66 399 167q23 41 68 103q-150 94 -289 71.5t-213 -147.5q-35 -86 -19.5 -131t54.5 -63z" glyph-name="agrave" unicode="à"/><glyph d="M1036 1155l-493 -217l-39 61l418 338zM1059 561l39 -33q-109 -156 -166.5 -231.5t-141 -168.5t-151.5 -120.5t-131 -5.5q-119 43 -45 229q-119 -127 -239 -193.5t-199 -37.5q-86 37 -87 144.5t109 295.5q168 254 378 332t347 -76l64 74l41 -39q-137 -180 -206 -320.5 t-24 -174.5q55 -35 166 48.5t246 276.5zM156 236q190 -66 399 167q23 41 68 103q-150 94 -289 71.5t-213 -147.5q-35 -86 -19.5 -131t54.5 -63z" glyph-name="aacute" unicode="á"/><glyph d="M598 1092l-303 -234l-57 60l434 331q141 -231 303 -264l-78 -174q-143 0 -215 83t-84 198zM1059 561l39 -33q-109 -156 -166.5 -231.5t-141 -168.5t-151.5 -120.5t-131 -5.5q-119 43 -45 229q-119 -127 -239 -193.5t-199 -37.5q-86 37 -87 144.5t109 295.5 q168 254 378 332t347 -76l64 74l41 -39q-137 -180 -206 -320.5t-24 -174.5q55 -35 166 48.5t246 276.5zM156 236q190 -66 399 167q23 41 68 103q-150 94 -289 71.5t-213 -147.5q-35 -86 -19.5 -131t54.5 -63z" glyph-name="acircumflex" unicode="â"/><glyph d="M596 1016q-49 41 -100.5 25.5t-159.5 -105.5l-115 139q29 23 58.5 38t53 24.5t51.5 12.5t46.5 4t43 -5t36.5 -9t34.5 -14.5t31 -16.5t29 -17.5t24.5 -14.5q53 -39 107.5 -27.5t144.5 101.5l90 -119q-55 -84 -153.5 -94t-221.5 78zM1059 561l39 -33 q-109 -156 -166.5 -231.5t-141 -168.5t-151.5 -120.5t-131 -5.5q-119 43 -45 229q-119 -127 -239 -193.5t-199 -37.5q-86 37 -87 144.5t109 295.5q168 254 378 332t347 -76l64 74l41 -39q-137 -180 -206 -320.5t-24 -174.5q55 -35 166 48.5t246 276.5zM156 236 q190 -66 399 167q23 41 68 103q-150 94 -289 71.5t-213 -147.5q-35 -86 -19.5 -131t54.5 -63z" glyph-name="atilde" unicode="ã"/><glyph d="M766 889q-55 0 -94 39t-39 96t39 96t94 39q57 0 97 -39t40 -96t-40 -96t-97 -39zM358 887q-55 0 -94 39t-39 96t39 96t94 39q57 0 97.5 -39t40.5 -96t-40.5 -96t-97.5 -39zM1059 561l39 -33q-109 -156 -166.5 -231.5t-141 -168.5t-151.5 -120.5t-131 -5.5 q-119 43 -45 229q-119 -127 -239 -193.5t-199 -37.5q-86 37 -87 144.5t109 295.5q168 254 378 332t347 -76l64 74l41 -39q-137 -180 -206 -320.5t-24 -174.5q55 -35 166 48.5t246 276.5zM156 236q190 -66 399 167q23 41 68 103q-150 94 -289 71.5t-213 -147.5 q-35 -86 -19.5 -131t54.5 -63z" glyph-name="adieresis" unicode="ä"/><glyph d="M455 920q-66 37 -79.5 119.5t34.5 162.5q45 80 122 109q80 33 144 -6q68 -39 80 -123q10 -80 -35 -160q-43 -78 -123 -111q-33 -12 -68 -12q-42 1 -75 21zM438 1184q-23 -41 34.5 -100.5t123.5 -75t96 29.5q33 43 -26.5 94.5t-130 65t-97.5 -13.5zM1059 561l39 -33 q-109 -156 -166.5 -231.5t-141 -168.5t-151.5 -120.5t-131 -5.5q-119 43 -45 229q-119 -127 -239 -193.5t-199 -37.5q-86 37 -87 144.5t109 295.5q168 254 378 332t347 -76l64 74l41 -39q-137 -180 -206 -320.5t-24 -174.5q55 -35 166 48.5t246 276.5zM156 236 q190 -66 399 167q23 41 68 103q-150 94 -289 71.5t-213 -147.5q-35 -86 -19.5 -131t54.5 -63z" glyph-name="aring" unicode="å"/><glyph d="M1384 489l37 -38q-162 -188 -331.5 -310.5t-316 -150t-236.5 68.5q-63 100 -23 240q-127 -150 -264 -237t-227 -54q-82 37 -84 141.5t106 292.5q172 260 387 332t346 -100l-2 -4q119 100 240 137t184 -21q61 -78 13 -162.5t-155.5 -162.5t-206.5 -129t-140 -62 q20 -25 34 -39q63 -41 158.5 -30.5t225.5 86t255 202.5zM1014 623q-33 35 -91.5 23.5t-114.5 -43.5t-98 -87t-42 -108q88 2 178 25.5t139 62.5q35 23 43.5 65t-14.5 62zM578 438q29 45 45 68q-152 96 -291 74.5t-213 -146.5q-35 -86 -19.5 -130t54.5 -62q201 -72 424 196z " glyph-name="ae" horiz-adv-x="1302" unicode="æ"/><glyph d="M811 442q-123 -186 -278.5 -310t-292.5 -152l-7 -9q88 20 139.5 -33t14.5 -159q-37 -98 -117 -131t-155.5 3t-104.5 122l31 47q63 -51 172 -62.5t127 29.5q8 23 -32 49.5t-96 44t-99 17.5l47 75q-100 4 -164 76q-49 70 -36 161t60.5 178t124.5 173q115 129 286 210 t247 22q82 -63 14.5 -181t-235.5 -192l-15 35q129 88 54 159q-72 59 -196 0t-165 -168.5t64 -230.5q43 -33 103 -35t134 25.5t163 94.5t179 165z" glyph-name="ccedilla" horiz-adv-x="712" unicode="ç"/><glyph d="M256 1382l281 -399l-62 -51l-358 342zM879 485l36 -39q-164 -190 -339 -316t-324.5 -154.5t-241.5 71.5q-53 74 -39.5 170t63.5 187.5t132 181.5q119 135 288 207.5t234 -0.5q61 -80 12 -168t-159.5 -168t-211 -132.5t-143.5 -62.5q25 -29 37 -41q66 -41 162 -30.5 t230.5 89t263.5 205.5zM494 623q-33 35 -91.5 22.5t-116 -44.5t-100.5 -89t-43 -111q90 4 183.5 28t142.5 60q35 27 42.5 71.5t-17.5 62.5z" glyph-name="egrave" horiz-adv-x="796" unicode="è"/><glyph d="M338 1055l418 338l114 -183l-493 -217zM879 485l36 -39q-164 -190 -339 -316t-324.5 -154.5t-241.5 71.5q-53 74 -39.5 170t63.5 187.5t132 181.5q119 135 288 207.5t234 -0.5q61 -80 12 -168t-159.5 -168t-211 -132.5t-143.5 -62.5q25 -29 37 -41q66 -41 162 -30.5 t230.5 89t263.5 205.5zM494 623q-33 35 -91.5 22.5t-116 -44.5t-100.5 -89t-43 -111q90 4 183.5 28t142.5 60q35 27 42.5 71.5t-17.5 62.5z" glyph-name="eacute" horiz-adv-x="796" unicode="é"/><glyph d="M72 973l434 332q141 -231 303 -265l-78 -174q-143 0 -215 83t-84 198l-303 -234zM879 485l36 -39q-164 -190 -339 -316t-324.5 -154.5t-241.5 71.5q-53 74 -39.5 170t63.5 187.5t132 181.5q119 135 288 207.5t234 -0.5q61 -80 12 -168t-159.5 -168t-211 -132.5 t-143.5 -62.5q25 -29 37 -41q66 -41 162 -30.5t230.5 89t263.5 205.5zM494 623q-33 35 -91.5 22.5t-116 -44.5t-100.5 -89t-43 -111q90 4 183.5 28t142.5 60q35 27 42.5 71.5t-17.5 62.5z" glyph-name="ecircumflex" horiz-adv-x="796" unicode="ê"/><glyph d="M737 1079.5q0 -57.5 -40 -96.5t-97 -39q-55 0 -94 39t-39 96.5t39 96t94 38.5q57 0 97 -38.5t40 -96zM330 1077.5q0 -57.5 -40 -96.5t-97 -39q-55 0 -94.5 39t-39.5 96.5t39 96t95 38.5q57 0 97 -38.5t40 -96zM879 485l36 -39q-164 -190 -339 -316t-324.5 -154.5 t-241.5 71.5q-53 74 -39.5 170t63.5 187.5t132 181.5q119 135 288 207.5t234 -0.5q61 -80 12 -168t-159.5 -168t-211 -132.5t-143.5 -62.5q25 -29 37 -41q66 -41 162 -30.5t230.5 89t263.5 205.5zM494 623q-33 35 -91.5 22.5t-116 -44.5t-100.5 -89t-43 -111q90 4 183.5 28 t142.5 60q35 27 42.5 71.5t-17.5 62.5z" glyph-name="edieresis" horiz-adv-x="796" unicode="ë"/><glyph d="M225 1364l281 -399l-62 -52l-358 342zM336 807l45 -41q-147 -188 -220 -348t-28 -203q43 -43 133 16.5t199 190.5l41 -27q-162 -221 -305.5 -332.5t-227.5 -66.5q-45 29 -57 78t11.5 116.5t59.5 137t99.5 158.5t118.5 160t131 161z" glyph-name="igrave" horiz-adv-x="417" unicode="ì"/><glyph d="M307 1036l418 338l115 -182l-494 -217zM336 807l45 -41q-147 -188 -220 -348t-28 -203q43 -43 133 16.5t199 190.5l41 -27q-162 -221 -305.5 -332.5t-227.5 -66.5q-45 29 -57 78t11.5 116.5t59.5 137t99.5 158.5t118.5 160t131 161z" glyph-name="iacute" horiz-adv-x="417" unicode="í"/><glyph d="M41 954l434 332q141 -231 303 -264l-78 -174q-143 0 -214.5 83t-84.5 197l-303 -233zM336 807l45 -41q-147 -188 -220 -348t-28 -203q43 -43 133 16.5t199 190.5l41 -27q-162 -221 -305.5 -332.5t-227.5 -66.5q-45 29 -57 78t11.5 116.5t59.5 137t99.5 158.5t118.5 160 t131 161z" glyph-name="icircumflex" horiz-adv-x="417" unicode="î"/><glyph d="M707 1061q0 -57 -40 -96t-98 -39q-55 0 -94 39t-39 96t39 96t94 39q57 0 97.5 -39t40.5 -96zM299 1058.5q0 -57.5 -40 -96t-97 -38.5q-55 0 -94 38.5t-39 96t38.5 96.5t94.5 39q57 0 97 -39t40 -96.5zM336 807l45 -41q-147 -188 -220 -348t-28 -203q43 -43 133 16.5 t199 190.5l41 -27q-162 -221 -305.5 -332.5t-227.5 -66.5q-45 29 -57 78t11.5 116.5t59.5 137t99.5 158.5t118.5 160t131 161z" glyph-name="idieresis" horiz-adv-x="417" unicode="ï"/><glyph d="M877 1141v-101h-119q53 -166 48 -328.5t-70.5 -305t-154.5 -243t-204 -142t-219 -3.5q-117 57 -145.5 168t20.5 228.5t179 232.5t308 178l17 -45q-109 -37 -185 -101.5t-104.5 -132t-18 -136t59.5 -117.5q33 -37 89 -32t110.5 31.5t101.5 89t61 138.5q47 244 -182 520 h-287v101h195q-68 66 -178 149l184 213q223 -150 332 -362h162z" glyph-name="eth" horiz-adv-x="806" unicode="ð"/><glyph d="M492 1036q-49 41 -100.5 26t-160.5 -106l-114 140q29 23 58.5 38t53 24t51 12.5t46 4.5t43 -5.5t37 -9.5t35 -14t30.5 -16.5t28.5 -17.5t24.5 -14q53 -39 107.5 -28t144.5 101l90 -118q-55 -84 -153 -94.5t-221 77.5zM965 434l30 -28q-178 -246 -386 -388.5t-298 -62.5 q-47 47 -22.5 117.5t90 137t126 140.5t85 130.5t-30.5 105.5q-111 76 -315 -152q-82 -92 -328 -422l-29 -51l-55 33l455 825l57 -33l-260 -469q426 602 643 506q61 -39 66.5 -99t-33.5 -123.5t-90.5 -134.5t-100.5 -130.5t-65.5 -111.5t12.5 -77q63 -47 194.5 44t254.5 243z " glyph-name="ntilde" horiz-adv-x="921" unicode="ñ"/><glyph d="M662 954l-62 -51l-358 342l139 109zM979 362q-129 -92 -248 -108l-18 -27q-115 -160 -279 -227q-86 -33 -151 -33q-78 0 -140 37q-88 51 -110 166q-41 188 110 403q117 160 281 230q166 70 289 -4q92 -55 112 -166q29 -133 -45 -289q80 6 181 55zM238 618 q-106 -131 -21 -286q66 -121 191 -170q147 -57 237 49q2 4 4 6q12 18 21 35q-150 8 -224.5 140t-31.5 280q-115 16 -176 -54zM702 350q16 150 -131 258q6 -221 131 -258z" glyph-name="ograve" horiz-adv-x="880" unicode="ò"/><glyph d="M995 1182l-493 -217l-39 61l418 338zM961 399l18 -37q-129 -92 -248 -108l-18 -27q-115 -160 -279 -227q-86 -33 -151 -33q-78 0 -140 37q-88 51 -110 166q-41 188 110 403q117 160 281 230q166 70 289 -4q92 -55 112 -166q29 -133 -45 -289q81 6 181 55zM238 618 q-106 -131 -21 -286q66 -121 191 -170q147 -57 237 49q2 4 4 6q12 18 21 35q-150 8 -224.5 140t-31.5 280q-115 16 -176 -54zM702 350q16 150 -131 258q6 -221 131 -258z" glyph-name="oacute" horiz-adv-x="880" unicode="ó"/><glyph d="M557 1118l-303 -233l-57 59l434 332q141 -231 303 -264l-78 -174q-143 0 -215 82.5t-84 197.5zM979 362q-129 -92 -248 -108l-18 -27q-115 -160 -279 -227q-86 -33 -151 -33q-78 0 -140 37q-88 51 -110 166q-41 188 110 403q117 160 281 230q166 70 289 -4 q92 -55 112 -166q29 -133 -45 -289q80 6 181 55zM238 618q-106 -131 -21 -286q66 -121 191 -170q147 -57 237 49q2 4 4 6q12 18 21 35q-150 8 -224.5 140t-31.5 280q-115 16 -176 -54zM702 350q16 150 -131 258q6 -221 131 -258z" glyph-name="ocircumflex" horiz-adv-x="880" unicode="ô"/><glyph d="M555 1042q-49 41 -100.5 26t-159.5 -105l-115 139q29 23 58.5 38t53 24.5t50.5 12.5t46.5 4t44 -5.5t36.5 -9.5t34.5 -14t31 -16.5t29 -17.5t24.5 -14q53 -39 107.5 -28t144.5 102l90 -119q-55 -84 -153.5 -94.5t-221.5 77.5zM979 362q-129 -92 -248 -108l-18 -27 q-115 -160 -279 -227q-86 -33 -151 -33q-78 0 -140 37q-88 51 -110 166q-41 188 110 403q117 160 281 230q166 70 289 -4q92 -55 112 -166q29 -133 -45 -289q80 6 181 55zM238 618q-106 -131 -21 -286q66 -121 191 -170q147 -57 237 49q2 4 4 6q12 18 21 35 q-150 8 -224.5 140t-31.5 280q-115 16 -176 -54zM702 350q16 150 -131 258q6 -221 131 -258z" glyph-name="otilde" horiz-adv-x="880" unicode="õ"/><glyph d="M725 915q-55 0 -94 39t-39 96.5t39 96.5t94 39q57 0 97 -39t40 -96.5t-40 -96.5t-97 -39zM317 913q-55 0 -94 39t-39 96.5t39 96.5t94 39q57 0 97.5 -39t40.5 -96.5t-40.5 -96.5t-97.5 -39zM979 362q-129 -92 -248 -108l-18 -27q-115 -160 -279 -227q-86 -33 -151 -33 q-78 0 -140 37q-88 51 -110 166q-41 188 110 403q117 160 281 230q166 70 289 -4q92 -55 112 -166q29 -133 -45 -289q80 6 181 55zM238 618q-106 -131 -21 -286q66 -121 191 -170q147 -57 237 49q2 4 4 6q12 18 21 35q-150 8 -224.5 140t-31.5 280q-115 16 -176 -54z M702 350q16 150 -131 258q6 -221 131 -258z" glyph-name="odieresis" horiz-adv-x="880" unicode="ö"/><glyph d="M629 753.5q0 -57.5 -40 -96.5t-97 -39q-55 0 -94.5 39t-39.5 96.5t39 96.5t95 39q57 0 97 -39t40 -96.5zM686 326h-686l147 243h687zM457 118.5q0 -57.5 -40 -96t-98 -38.5q-55 0 -94 38.5t-39 96t39 96.5t94 39q57 0 97.5 -39t40.5 -96.5z" glyph-name="divide" horiz-adv-x="882" unicode="÷"/><glyph d="M979 362q-129 -92 -248 -108l-18 -27q-115 -160 -279 -227q-86 -33 -151 -33q-78 0 -140 37q-12 6 -43 33l-61 -72l-45 41l69 80q-20 37 -30 84q-41 188 110 403q117 160 281 230q154 66 274 4l68 76l45 -41l-61 -70q61 -57 75 -139q29 -133 -45 -289q80 6 181 55z M238 618q-61 -88 -56.5 -169.5t62.5 -159.5l166 190q-23 98 4 193q-115 16 -176 -54zM702 350q14 141 -110 242l-19 -21q14 -186 129 -221zM283 244q88 -86 189 -98.5t177 71.5q12 18 21 35q-162 8 -236 162z" glyph-name="oslash" horiz-adv-x="880" unicode="ø"/><glyph d="M633 928l-62 -51l-358 342l139 108zM1006 492l26 -25q-219 -291 -358 -410.5t-246 -68.5q-96 45 -10 243q-262 -301 -416 -243q-37 14 -57.5 39.5t-21.5 62.5t6.5 75t34 92t51 99t67.5 110.5t74.5 112t81 116t75.5 110.5l39 -25q-47 -76 -72.5 -119t-64.5 -111.5 t-57.5 -111.5t-32.5 -90t-9 -76.5t27 -44.5q70 -43 206 75t325 343q74 98 125 160l37 -29q-14 -16 -29 -39q-29 -37 -41 -57q-264 -369 -158 -461q57 -45 151.5 30t246.5 243z" glyph-name="ugrave" unicode="ù"/><glyph d="M967 1155l-494 -217l-39 61l418 338zM1006 492l26 -25q-219 -291 -358 -410.5t-246 -68.5q-96 45 -10 243q-262 -301 -416 -243q-37 14 -57.5 39.5t-21.5 62.5t6.5 75t34 92t51 99t67.5 110.5t74.5 112t81 116t75.5 110.5l39 -25q-47 -76 -72.5 -119t-64.5 -111.5 t-57.5 -111.5t-32.5 -90t-9 -76.5t27 -44.5q70 -43 206 75t325 343q74 98 125 160l37 -29q-14 -16 -29 -39q-29 -37 -41 -57q-264 -369 -158 -461q57 -45 151.5 30t246.5 243z" glyph-name="uacute" unicode="ú"/><glyph d="M528 1092l-303 -234l-57 60l434 331q141 -231 303 -264l-78 -174q-143 0 -215 83t-84 198zM1006 492l26 -25q-219 -291 -358 -410.5t-246 -68.5q-96 45 -10 243q-262 -301 -416 -243q-37 14 -57.5 39.5t-21.5 62.5t6.5 75t34 92t51 99t67.5 110.5t74.5 112t81 116 t75.5 110.5l39 -25q-47 -76 -72.5 -119t-64.5 -111.5t-57.5 -111.5t-32.5 -90t-9 -76.5t27 -44.5q70 -43 206 75t325 343q74 98 125 160l37 -29q-14 -16 -29 -39q-29 -37 -41 -57q-264 -369 -158 -461q57 -45 151.5 30t246.5 243z" glyph-name="ucircumflex" unicode="û"/><glyph d="M696 889q-55 0 -94 39t-39 96t39 96t94 39q57 0 97.5 -39t40.5 -96t-40.5 -96t-97.5 -39zM289 887q-55 0 -94 39t-39 96t38.5 96t94.5 39q57 0 97 -39t40 -96t-40 -96t-97 -39zM1006 492l26 -25q-219 -291 -358 -410.5t-246 -68.5q-96 45 -10 243q-262 -301 -416 -243 q-37 14 -57.5 39.5t-21.5 62.5t6.5 75t34 92t51 99t67.5 110.5t74.5 112t81 116t75.5 110.5l39 -25q-47 -76 -72.5 -119t-64.5 -111.5t-57.5 -111.5t-32.5 -90t-9 -76.5t27 -44.5q70 -43 206 75t325 343q74 98 125 160l37 -29q-14 -16 -29 -39q-29 -37 -41 -57 q-264 -369 -158 -461q57 -45 151.5 30t246.5 243z" glyph-name="udieresis" unicode="ü"/><glyph d="M1055 1155l-494 -217l-39 61l418 338zM926 414l32 -33q-145 -145 -434 -303q-94 -152 -195.5 -272.5t-192.5 -196.5t-172 -114t-141.5 -28.5t-94.5 62.5q-10 35 -13.5 63.5t18 61.5t46 61.5t71 61.5t91.5 60.5t105 60t116.5 61.5t124.5 64q137 70 205 104 q106 166 196 367q-170 -244 -358.5 -388.5t-302.5 -111.5q-115 57 -90.5 197.5t160.5 320.5t311 303l34 -37q-72 -68 -130 -131t-103 -126.5t-66.5 -116t-14.5 -95.5t48 -69q68 -49 195 22.5t252 226t180 326.5l63 -16q-125 -352 -284 -623q233 127 344 238zM-27 -328 q51 -57 178.5 45.5t272.5 307.5q-301 -158 -361 -199q-133 -91 -90 -154z" glyph-name="yacute" horiz-adv-x="876" unicode="ý"/><glyph d="M649 801q66 -14 84.5 -86t-3 -163t-68.5 -198q-51 -109 -142.5 -201t-190 -136t-191.5 -5t-138 176l-406 -753l-53 28l1075 2001l52 -32l-539 -1004q174 195 300 295.5t220 77.5zM598 371q51 147 -61 170q-111 20 -275 -82q-82 -51 -145 -119q66 -72 166 -97.5t190 8.5 t125 120z" glyph-name="thorn" horiz-adv-x="737" unicode="þ"/><glyph d="M784 889q-55 0 -94 39t-39 96t39 96t94 39q57 0 97.5 -39t40.5 -96t-40.5 -96t-97.5 -39zM377 887q-55 0 -94 39t-39 96t39 96t94 39q57 0 97 -39t40 -96t-40 -96t-97 -39zM958 381q-145 -145 -434 -303q-94 -152 -195.5 -272.5t-192.5 -196.5t-172 -114t-141.5 -28.5 t-94.5 62.5q-10 35 -13.5 63.5t18 61.5t46 61.5t71 61.5t91.5 60.5t105 60t116.5 61.5t124.5 64q137 70 205 104q106 166 196 367q-170 -244 -358.5 -388.5t-302.5 -111.5q-115 57 -90.5 197.5t160.5 320.5t311 303l34 -37q-72 -68 -130 -131t-103 -126.5t-66.5 -116 t-14.5 -95.5t48 -69q68 -49 195 22.5t252 226t180 326.5l63 -16q-125 -352 -284 -623q233 127 344 238zM-27 -328q51 -57 178.5 45.5t272.5 307.5q-301 -158 -361 -199q-133 -91 -90 -154z" glyph-name="ydieresis" horiz-adv-x="876" unicode="ÿ"/><glyph d="M1890 1829h666l-115 -193h-686zM2146 1481q135 -139 -155 -428q-154 -168 -248 -300t-130 -207t-33 -135.5t17.5 -82t44.5 -52.5q6 -6 9 -8q63 -68 183 -40t237 143l20 -23q-49 -63 -127 -135t-175 -135.5t-184 -80.5t-155 28q-158 143 82 544q-197 98 -416 -12 q-43 -47 -120.5 -132t-113.5 -124t-98.5 -99.5t-102.5 -88t-94.5 -59t-107.5 -43t-112 -11.5q-160 0 -245 71.5t-122 204.5l238 226q31 -59 99.5 -107.5t161.5 -74t214 14.5t233 152l686 746q150 164 304.5 233.5t209.5 14.5zM1929 1081q80 94 35 160q-41 61 -139 33 q-88 -25 -174 -123l-398 -442q186 80 402 45q120 161 274 327z" glyph-name="Amacron" horiz-adv-x="2002" unicode="Ā"/><glyph d="M1030 1126l-115 -192h-686l136 192h665zM1059 561l39 -33q-109 -156 -166.5 -231.5t-141 -168.5t-151.5 -120.5t-131 -5.5q-119 43 -45 229q-119 -127 -239 -193.5t-199 -37.5q-86 37 -87 144.5t109 295.5q168 254 378 332t347 -76l64 74l41 -39q-137 -180 -206 -320.5 t-24 -174.5q55 -35 166 48.5t246 276.5zM156 236q190 -66 399 167q23 41 68 103q-150 94 -289 71.5t-213 -147.5q-35 -86 -19.5 -131t54.5 -63z" glyph-name="amacron" unicode="ā"/><glyph d="M2361 1976h45q0 -137 -91 -233t-224 -96q-129 0 -222 96t-93 233h47q0 -53 26.5 -88t76.5 -47t83 -15t82 -3q39 0 63.5 1t68.5 9t69.5 22.5t47 46t21.5 74.5zM2146 1481q135 -139 -155 -428q-154 -168 -248 -300t-130 -207t-33 -135.5t17.5 -82t44.5 -52.5q6 -6 9 -8 q63 -68 183 -40t237 143l20 -23q-49 -63 -127 -135t-175 -135.5t-184 -80.5t-155 28q-158 143 82 544q-197 98 -416 -12q-43 -47 -120.5 -132t-113.5 -124t-98.5 -99.5t-102.5 -88t-94.5 -59t-107.5 -43t-112 -11.5q-160 0 -245 71.5t-122 204.5l238 226q31 -59 99.5 -107.5 t161.5 -74t214 14.5t233 152l686 746q150 164 304.5 233.5t209.5 14.5zM1929 1081q80 94 35 160q-41 61 -139 33q-88 -25 -174 -123l-398 -442q186 80 402 45q120 161 274 327z" glyph-name="Abreve" horiz-adv-x="2002" unicode="Ă"/><glyph d="M565 944q-129 0 -222 96.5t-93 233.5h47q0 -53 26.5 -88t77 -47.5t83 -15.5t81.5 -3q39 0 63.5 1t68.5 9.5t70 22.5t47.5 46t21.5 75h45q0 -137 -91.5 -233.5t-224.5 -96.5zM1059 561l39 -33q-109 -156 -166.5 -231.5t-141 -168.5t-151.5 -120.5t-131 -5.5 q-119 43 -45 229q-119 -127 -239 -193.5t-199 -37.5q-86 37 -87 144.5t109 295.5q168 254 378 332t347 -76l64 74l41 -39q-137 -180 -206 -320.5t-24 -174.5q55 -35 166 48.5t246 276.5zM156 236q190 -66 399 167q23 41 68 103q-150 94 -289 71.5t-213 -147.5 q-35 -86 -19.5 -131t54.5 -63z" glyph-name="abreve" unicode="ă"/><glyph d="M1651 268q63 -68 183 -40t237 143l20 -23q-104 -133 -282.5 -257t-299.5 -95q-86 -111 -55 -170q53 -53 205 74l27 -27q-119 -133 -217.5 -182t-159.5 4q-53 63 -16.5 150t149.5 188q-141 147 90 536q-197 98 -416 -12q-43 -47 -120.5 -132t-113.5 -124t-98.5 -99.5 t-102.5 -88t-94.5 -59t-107.5 -43t-112 -11.5q-160 0 -245 71.5t-122 204.5l238 226q31 -59 99.5 -107.5t161.5 -74t214 14.5t233 152l686 746q150 164 304.5 233.5t209.5 14.5q135 -139 -155 -428q-154 -168 -248 -300t-130 -207t-33 -135.5t17.5 -82t44.5 -52.5q7 -6 9 -8 zM1253 709q186 80 402 45q121 162 274 327q80 94 35 160q-41 61 -139 33q-88 -25 -174 -123z" glyph-name="Aogonek" horiz-adv-x="2002" unicode="Ą"/><glyph d="M1098 528q-80 -113 -123 -174t-110.5 -144t-113.5 -123t-100.5 -68.5t-103.5 -24.5q-57 -61 -82 -121.5t-8 -91.5q53 -53 205 74l26 -27q-119 -133 -217 -182t-160 4q-57 68 -10 164t176 202q-78 55 -14 215q-119 -127 -239 -193.5t-199 -37.5q-86 37 -87 144.5 t109 295.5q168 254 378 332t347 -76l64 74l41 -39q-137 -180 -206 -320.5t-24 -174.5q55 -35 166 49t246 276zM156 236q190 -66 399 167q23 41 68 103q-150 94 -289 71.5t-213 -147.5q-35 -86 -19.5 -131t54.5 -63z" glyph-name="aogonek" unicode="ą"/><glyph d="M971 1690l418 338l114 -183l-493 -217zM1393 465q-98 -150 -236.5 -260.5t-284 -165.5t-295 -57t-269.5 48t-206 166.5t-108 284.5q-23 170 49 343t201 307.5t299 232.5t339 135t327.5 -3t258.5 -167q47 -63 52.5 -146t-28.5 -163t-93.5 -152.5t-145.5 -125t-178 -72.5 l-201 194q195 98 378.5 235.5t146.5 200.5q-29 45 -122 47.5t-219 -34.5t-269.5 -98.5t-278.5 -147.5t-241.5 -175t-162 -188.5t-34.5 -183.5q29 -98 143.5 -171t271 -100.5t322.5 -18t316.5 80t232.5 189.5z" glyph-name="Cacute" horiz-adv-x="1265" unicode="Ć"/><glyph d="M344 1034l418 338l115 -182l-494 -217zM778 465l33 -23q-193 -293 -438.5 -415.5t-376.5 22.5q-49 70 -36 161t60.5 178t124.5 173q115 129 286 210t247 22q82 -63 14.5 -181t-235.5 -192l-15 35q129 88 54 159q-72 59 -196 0t-165 -168.5t64 -230.5q43 -33 103 -35 t134 25.5t163 94.5t179 165z" glyph-name="cacute" horiz-adv-x="712" unicode="ć"/><glyph d="M1167 1753q0 -57 -40 -96t-97 -39q-55 0 -94 39t-39 96t39 96t94 39q57 0 97 -39t40 -96zM1393 465q-98 -150 -236.5 -260.5t-284 -165.5t-295 -57t-269.5 48t-206 166.5t-108 284.5q-23 170 49 343t201 307.5t299 232.5t339 135t327.5 -3t258.5 -167q47 -63 52.5 -146 t-28.5 -163t-93.5 -152.5t-145.5 -125t-178 -72.5l-201 194q195 98 378.5 235.5t146.5 200.5q-29 45 -122 47.5t-219 -34.5t-269.5 -98.5t-278.5 -147.5t-241.5 -175t-162 -188.5t-34.5 -183.5q29 -98 143.5 -171t271 -100.5t322.5 -18t316.5 80t232.5 189.5z" glyph-name="Cdotaccent" horiz-adv-x="1265" unicode="Ċ"/><glyph d="M541 1097.5q0 -57.5 -40 -96t-98 -38.5q-55 0 -94 38.5t-39 96t39 96.5t94 39q57 0 97.5 -39t40.5 -96.5zM778 465l33 -23q-193 -293 -438.5 -415.5t-376.5 22.5q-49 70 -36 161t60.5 178t124.5 173q115 129 286 210t247 22q82 -63 14.5 -181t-235.5 -192l-15 35 q129 88 54 159q-72 59 -196 0t-165 -168.5t64 -230.5q43 -33 103 -35t134 25.5t163 94.5t179 165z" glyph-name="cdotaccent" horiz-adv-x="712" unicode="ċ"/><glyph d="M1518 1974l-451 -342q-143 240 -313 273l80 180q150 0 222 -85t89 -206l315 244zM1393 465q-98 -150 -236.5 -260.5t-284 -165.5t-295 -57t-269.5 48t-206 166.5t-108 284.5q-23 170 49 343t201 307.5t299 232.5t339 135t327.5 -3t258.5 -167q47 -63 52.5 -146 t-28.5 -163t-93.5 -152.5t-145.5 -125t-178 -72.5l-201 194q195 98 378.5 235.5t146.5 200.5q-29 45 -122 47.5t-219 -34.5t-269.5 -98.5t-278.5 -147.5t-241.5 -175t-162 -188.5t-34.5 -183.5q29 -98 143.5 -171t271 -100.5t322.5 -18t316.5 80t232.5 189.5z" glyph-name="Ccaron" horiz-adv-x="1265" unicode="Č"/><glyph d="M891 1319l-451 -342q-143 240 -313 272l80 181q150 0 222.5 -85t88.5 -206l316 243zM778 465l33 -23q-193 -293 -438.5 -415.5t-376.5 22.5q-49 70 -36 161t60.5 178t124.5 173q115 129 286 210t247 22q82 -63 14.5 -181t-235.5 -192l-15 35q129 88 54 159q-72 59 -196 0 t-165 -168.5t64 -230.5q43 -33 103 -35t134 25.5t163 94.5t179 165z" glyph-name="ccaron" horiz-adv-x="712" unicode="č"/><glyph d="M1284 1710q-143 240 -313 272l80 181q150 0 222.5 -85t88.5 -206l315 244l58 -64zM733 1198q86 111 194.5 183.5t217 100t214 19.5t190.5 -50t140.5 -122t70 -182.5t-28.5 -242.5t-146 -294q-317 -414 -688 -553t-655 45l-58 -102l-55 31l59 108q-106 82 -188 209 l203 182q51 -72 125 -137l182 330q88 158 103.5 295t-50.5 207q-72 61 -185.5 29.5t-205.5 -124.5l-172 222q207 156 393.5 161t284.5 -143q51 -80 55 -172zM1450 549q166 213 100 424q-51 162 -211 235q-207 94 -442 -26q-90 -47 -176 -125q-33 -143 -156 -365l-188 -340 q252 -184 544.5 -126.5t528.5 323.5z" glyph-name="Dcaron" horiz-adv-x="1595" unicode="Ď"/><glyph d="M700 1346q-143 240 -313 272l80 180q150 0 222.5 -85t88.5 -206l316 244l57 -63zM772 252q111 -63 348 225l37 -37q-385 -514 -557 -422q-92 45 -14 297q-311 -412 -508 -352q-63 18 -103.5 73.5t-34 157t82.5 220.5q166 252 383 361.5t374 -1.5q150 297 398 721l53 -25 q-78 -139 -138.5 -249.5t-132 -250t-115.5 -247t-78 -208.5t-32 -168.5t37 -94.5zM215 205q168 -37 422 254l25 61q-164 94 -326 54.5t-238 -171.5q-39 -74 5 -127t112 -71z" glyph-name="dcaron" horiz-adv-x="1046" unicode="ď"/><glyph d="M733 1198q86 111 194.5 183.5t217 100t214 19.5t190.5 -50t140.5 -122t70 -182.5t-28.5 -242.5t-146 -294q-317 -414 -688 -553t-655 45l-58 -102l-55 31l59 108q-106 82 -188 209l203 182q51 -72 125 -137l182 330l6 12h-330l131 217h285q45 188 -39 273 q-72 61 -185.5 29.5t-205.5 -124.5l-172 222q207 156 393.5 161t284.5 -143q51 -80 55 -172zM1450 549q166 213 100 424q-51 162 -211 235q-207 94 -442 -26q-90 -47 -176 -125q-14 -57 -33 -105h242l-131 -217h-211q-6 -14 -23 -43l-188 -340q252 -184 544.5 -126.5 t528.5 323.5z" glyph-name="Dcroat" horiz-adv-x="1595" unicode="Đ"/><glyph d="M1284 1155h-227q-426 -797 -285 -903q111 -63 348 225l37 -37q-385 -514 -557 -422q-92 45 -14 297q-311 -412 -508 -352q-63 18 -103.5 73.5t-34 157t82.5 220.5q166 252 383 361.5t374 -1.5q84 170 201 381h-383l88 111h358q20 35 134 229l53 -25l-115 -204h256z M215 205q168 -37 422 254l25 61q-164 94 -326 54.5t-238 -171.5q-39 -74 5 -127t112 -71z" glyph-name="dcroat" horiz-adv-x="1046" unicode="đ"/><glyph d="M1438 1829l-115 -193h-686l135 193h666zM389 1161q70 156 207 246t279.5 101.5t275.5 -36t203 -145.5l-187 -231q-86 113 -249.5 156.5t-303 6t-165.5 -136.5q-33 -96 107 -188t335 -92l-6 -43h2l-15 -86l-4 -33l-12 -72q-256 0 -522 -85t-266 -171q0 -31 74.5 -62.5 t191.5 -49t244 -19.5t247.5 33t186.5 102l32 -37q-55 -113 -155.5 -194.5t-215 -119.5t-235.5 -36t-218 44t-158.5 132.5t-61.5 216.5q0 190 125 297t321 142q-139 149 -57 360z" glyph-name="Emacron" horiz-adv-x="1087" unicode="Ē"/><glyph d="M750 989h-687l136 193h665zM879 485l36 -39q-164 -190 -339 -316t-324.5 -154.5t-241.5 71.5q-53 74 -39.5 170t63.5 187.5t132 181.5q119 135 288 207.5t234 -0.5q61 -80 12 -168t-159.5 -168t-211 -132.5t-143.5 -62.5q25 -29 37 -41q66 -41 162 -30.5t230.5 89 t263.5 205.5zM494 623q-33 35 -91.5 22.5t-116 -44.5t-100.5 -89t-43 -111q90 4 183.5 28t142.5 60q35 27 42.5 71.5t-17.5 62.5z" glyph-name="emacron" horiz-adv-x="796" unicode="ē"/><glyph d="M971 1630q-55 0 -94 39t-39 96.5t38.5 96.5t94.5 39q57 0 97 -39t40 -96.5t-40 -96.5t-97 -39zM389 1161q70 156 207 246t279.5 101.5t275.5 -36t203 -145.5l-187 -231q-86 113 -249.5 156.5t-303 6t-165.5 -136.5q-33 -96 107 -188t335 -92l-6 -43h2l-15 -86l-4 -33 l-12 -72q-256 0 -522 -85t-266 -171q0 -31 74.5 -62.5t191.5 -49t244 -19.5t247.5 33t186.5 102l32 -37q-55 -113 -155.5 -194.5t-215 -119.5t-235.5 -36t-218 44t-158.5 132.5t-61.5 216.5q0 190 125 297t321 142q-139 149 -57 360z" glyph-name="Edotaccent" horiz-adv-x="1087" unicode="Ė"/><glyph d="M535 1118.5q0 -57.5 -40 -96.5t-98 -39q-55 0 -94 39t-39 96.5t39 96t94 38.5q57 0 97.5 -38.5t40.5 -96zM879 485l36 -39q-164 -190 -339 -316t-324.5 -154.5t-241.5 71.5q-53 74 -39.5 170t63.5 187.5t132 181.5q119 135 288 207.5t234 -0.5q61 -80 12 -168 t-159.5 -168t-211 -132.5t-143.5 -62.5q25 -29 37 -41q66 -41 162 -30.5t230.5 89t263.5 205.5zM494 623q-33 35 -91.5 22.5t-116 -44.5t-100.5 -89t-43 -111q90 4 183.5 28t142.5 60q35 27 42.5 71.5t-17.5 62.5z" glyph-name="edotaccent" horiz-adv-x="796" unicode="ė"/><glyph d="M389 1161q70 156 207 246t279.5 101.5t275.5 -36t203 -145.5l-187 -231q-86 113 -249.5 156.5t-303 6t-165.5 -136.5q-33 -96 107 -188t335 -92l-6 -43h2l-15 -86l-4 -33l-12 -72q-256 0 -522 -85t-266 -171q0 -31 74.5 -62.5t191.5 -49t244 -19.5t247.5 33t186.5 102 l32 -37q-76 -154 -228 -244.5t-324 -103.5q-55 -59 -79 -118.5t-7 -90.5q53 -53 204 74l27 -26q-119 -133 -217 -182.5t-160 3.5q-55 63 -16 150.5t151 189.5q-172 14 -283.5 114.5t-111.5 276.5q0 190 125 297t321 142q-139 149 -57 360z" glyph-name="Eogonek" horiz-adv-x="1087" unicode="Ę"/><glyph d="M915 446q-174 -203 -360 -331.5t-334 -143.5q-57 -61 -82.5 -122.5t-9.5 -92.5q53 -53 205 74l26 -27q-119 -133 -217 -182t-159 4q-57 66 -15.5 156t162.5 194q-74 16 -121 72q-53 74 -39.5 170t63.5 187.5t132 181.5q119 135 288 207.5t234 -0.5q61 -80 12 -168 t-159.5 -168t-211 -132.5t-143.5 -62.5q25 -29 37 -41q66 -41 162 -30.5t230.5 89t263.5 205.5zM494 623q-33 35 -91.5 22.5t-116 -44.5t-100.5 -89t-43 -111q90 4 183.5 28t142.5 60q35 27 42.5 71.5t-17.5 62.5z" glyph-name="eogonek" horiz-adv-x="796" unicode="ę"/><glyph d="M1008 1645q-143 240 -314 272l80 180q150 0 222.5 -85t88.5 -206l316 244l57 -63zM389 1161q70 156 207 246t279.5 101.5t275.5 -36t203 -145.5l-187 -231q-86 113 -249.5 156.5t-303 6t-165.5 -136.5q-33 -96 107 -188t335 -92l-6 -43h2l-15 -86l-4 -33l-12 -72 q-256 0 -522 -85t-266 -171q0 -31 74.5 -62.5t191.5 -49t244 -19.5t247.5 33t186.5 102l32 -37q-55 -113 -155.5 -194.5t-215 -119.5t-235.5 -36t-218 44t-158.5 132.5t-61.5 216.5q0 190 125 297t321 142q-139 149 -57 360z" glyph-name="Ecaron" horiz-adv-x="1087" unicode="Ě"/><glyph d="M885 1339l-451 -342q-143 240 -313 273l80 180q150 0 222.5 -85t88.5 -206l315 244zM879 485l36 -39q-164 -190 -339 -316t-324.5 -154.5t-241.5 71.5q-53 74 -39.5 170t63.5 187.5t132 181.5q119 135 288 207.5t234 -0.5q61 -80 12 -168t-159.5 -168t-211 -132.5 t-143.5 -62.5q25 -29 37 -41q66 -41 162 -30.5t230.5 89t263.5 205.5zM494 623q-33 35 -91.5 22.5t-116 -44.5t-100.5 -89t-43 -111q90 4 183.5 28t142.5 60q35 27 42.5 71.5t-17.5 62.5z" glyph-name="ecaron" horiz-adv-x="796" unicode="ě"/><glyph d="M946 1647q-129 0 -222 96t-93 233h47q0 -53 26.5 -88t76.5 -47t83 -15t82 -3q39 0 63.5 1t68.5 9t70 22.5t47.5 46t21.5 74.5h45q0 -137 -91.5 -233t-224.5 -96zM1577 1057q-301 221 -619.5 170t-572.5 -375q-115 -158 -115 -310.5t101 -230.5q49 -33 114.5 -37t132 15.5 t143.5 60.5t145.5 88t141 106.5t129 111t109.5 104.5l53 -6q-47 -250 -165 -541q113 39 194.5 91t142.5 147l52 -15q-31 -63 -75 -110t-104.5 -80t-109.5 -52.5t-127 -43.5q-143 -332 -312 -535t-309 -154q-33 12 -56.5 33t-34.5 60.5t2.5 91t61.5 130.5t132 173 q68 70 161 122t141 67.5t169 51.5q104 254 164 482q-131 -137 -257 -252t-259.5 -213t-248 -152.5t-221 -70t-178.5 33.5q-248 174 123 734q139 217 341 389t414 266t429 94t377 -112zM803 -315q98 43 272 442q-139 -43 -235.5 -92t-167.5 -137q-86 -127 -34 -196.5 t165 -16.5z" glyph-name="Gbreve" horiz-adv-x="1449" unicode="Ğ"/><glyph d="M647 977q-129 0 -222 96t-93 234h47q0 -53 26.5 -88t76.5 -47.5t83 -15.5t82 -3q39 0 63.5 1t68.5 9t69.5 22.5t47.5 46.5t22 75h45q0 -137 -91.5 -233.5t-224.5 -96.5zM1077 354q-156 -158 -461 -321q-98 -156 -202.5 -281t-198.5 -202.5t-177 -117.5t-146.5 -31 t-100.5 64q-31 66 -4 127.5t143.5 139.5t189.5 117.5t265 136.5q137 70 205 104q94 152 174 320q-164 -211 -341 -347.5t-319 -95.5q-68 20 -109.5 79.5t-34.5 164t85 227.5q115 172 275.5 277.5t309 110.5t261.5 -99q4 14 11 41t11 39l64 -16q-121 -344 -295 -650 q246 135 362 252zM248 221q102 -23 237.5 35.5t276.5 218.5q-178 119 -368.5 103.5t-268.5 -148.5q-35 -57 -12.5 -102t57.5 -69t78 -38zM45 -385q53 -59 186.5 46.5t282.5 315.5q-307 -160 -369 -200q-143 -94 -100 -162z" glyph-name="gbreve" horiz-adv-x="995" unicode="ğ"/><glyph d="M944 1630q-55 0 -94 39t-39 96.5t39 96.5t94 39q57 0 97 -39t40 -96.5t-40 -96.5t-97 -39zM1577 1057q-301 221 -619.5 170t-572.5 -375q-115 -158 -115 -310.5t101 -230.5q49 -33 114.5 -37t132 15.5t143.5 60.5t145.5 88t141 106.5t129 111t109.5 104.5l53 -6 q-47 -250 -165 -541q113 39 194.5 91t142.5 147l52 -15q-31 -63 -75 -110t-104.5 -80t-109.5 -52.5t-127 -43.5q-143 -332 -312 -535t-309 -154q-33 12 -56.5 33t-34.5 60.5t2.5 91t61.5 130.5t132 173q68 70 161 122t141 67.5t169 51.5q104 254 164 482 q-131 -137 -257 -252t-259.5 -213t-248 -152.5t-221 -70t-178.5 33.5q-248 174 123 734q139 217 341 389t414 266t429 94t377 -112zM803 -315q98 43 272 442q-139 -43 -235.5 -92t-167.5 -137q-86 -127 -34 -196.5t165 -16.5z" glyph-name="Gdotaccent" horiz-adv-x="1449" unicode="Ġ"/><glyph d="M645 961q-55 0 -94 38.5t-39 96t39 96.5t94 39q57 0 97 -39t40 -96.5t-40 -96t-97 -38.5zM1077 354q-156 -158 -461 -321q-98 -156 -202.5 -281t-198.5 -202.5t-177 -117.5t-146.5 -31t-100.5 64q-31 66 -4 127.5t143.5 139.5t189.5 117.5t265 136.5q137 70 205 104 q94 152 174 320q-164 -211 -341 -347.5t-319 -95.5q-68 20 -109.5 79.5t-34.5 164t85 227.5q115 172 275.5 277.5t309 110.5t261.5 -99q4 14 11 41t11 39l64 -16q-121 -344 -295 -650q246 135 362 252zM248 221q102 -23 237.5 35.5t276.5 218.5q-178 119 -368.5 103.5 t-268.5 -148.5q-35 -57 -12.5 -102t57.5 -69t78 -38zM45 -385q53 -59 186.5 46.5t282.5 315.5q-307 -160 -369 -200q-143 -94 -100 -162z" glyph-name="gdotaccent" horiz-adv-x="995" unicode="ġ"/><glyph d="M1577 1057q-301 221 -619.5 170t-572.5 -375q-115 -158 -115 -310.5t101 -230.5q49 -33 114.5 -37t132 15.5t143.5 60.5t145.5 88t141 106.5t129 111t109.5 104.5l53 -6q-47 -250 -165 -541q113 39 194.5 91t142.5 147l52 -15q-31 -63 -75 -110t-104.5 -80t-109.5 -52.5 t-127 -43.5q-143 -332 -312 -535t-309 -154q-33 12 -56.5 33t-34.5 60.5t2.5 91t61.5 130.5t132 173q68 70 161 122t141 67.5t169 51.5q104 254 164 482q-131 -137 -257 -252t-259.5 -213t-248 -152.5t-221 -70t-178.5 33.5q-248 174 123 734q139 217 341 389t414 266 t429 94t377 -112zM803 -315q98 43 272 442q-139 -43 -235.5 -92t-167.5 -137q-86 -127 -34 -196.5t165 -16.5zM532 -766q63 0 107.5 -45t44.5 -111q0 -53 -46 -129.5t-93 -126.5l-45 -49l-56 35l88 119q-61 0 -106 45t-45 106q0 66 45 111t106 45z" glyph-name="Gcommaaccent" horiz-adv-x="1449" unicode="Ģ"/><glyph d="M647 1014q-63 0 -107 45t-44 110q0 63 46 140t93 121l45 45l41 -27l-74 -127q61 0 106.5 -45t45.5 -107q0 -66 -45.5 -110.5t-106.5 -44.5zM1077 354q-156 -158 -461 -321q-98 -156 -202.5 -281t-198.5 -202.5t-177 -117.5t-146.5 -31t-100.5 64q-31 66 -4 127.5 t143.5 139.5t189.5 117.5t265 136.5q137 70 205 104q94 152 174 320q-164 -211 -341 -347.5t-319 -95.5q-68 20 -109.5 79.5t-34.5 164t85 227.5q115 172 275.5 277.5t309 110.5t261.5 -99q4 14 11 41t11 39l64 -16q-121 -344 -295 -650q246 135 362 252zM248 221 q102 -23 237.5 35.5t276.5 218.5q-178 119 -368.5 103.5t-268.5 -148.5q-35 -57 -12.5 -102t57.5 -69t78 -38zM45 -385q53 -59 186.5 46.5t282.5 315.5q-307 -160 -369 -200q-143 -94 -100 -162z" glyph-name="gcommaaccent" horiz-adv-x="995" unicode="ģ"/><glyph d="M1188 238q78 -57 177 -14.5t249 192.5l39 -35q-195 -223 -369 -329.5t-291 -49.5q-63 31 -76.5 114t16.5 197.5t95 257.5q-61 35 -148 52.5t-144.5 19.5t-180.5 2l-362 -659l-58 32l397 721q92 164 105 332h-168l63 94h101q-8 59 -45 99q-74 61 -194 28.5t-214 -127.5 l-180 230q215 162 409.5 168t297.5 -148q70 -109 57 -250l622 -2q143 197 295 353l52 -39q-147 -168 -252 -314h100l-63 -94h-105q-432 -628 -225 -831zM616 752q193 68 512 14q76 139 191 303l-569 2q-34 -145 -134 -319z" glyph-name="Hbar" horiz-adv-x="1568" unicode="Ħ"/><glyph d="M1016 481l31 -32q-270 -289 -383 -381q-193 -156 -289 -99q-78 53 -49.5 148.5t102.5 183.5t120 166t5 98q-53 27 -124 -4t-175 -144.5t-151.5 -170t-172.5 -219.5q-31 -39 -45 -58l-57 31l674 1221h-324l88 110h297l94 170l56 -28l-78 -142h317l-88 -110h-291l-528 -963 q49 59 87 105.5t87 102.5t89 97t87 85t87 74t84 55.5t83 35.5t78 9t74 -17q57 -31 54 -82t-50 -104.5t-103.5 -116t-104.5 -117.5t-52 -108.5t53 -88.5q16 -12 37.5 -13t43 8.5t48.5 28.5t51.5 41.5t55 52.5t58.5 57.5t61.5 60t62.5 57.5z" glyph-name="hbar" horiz-adv-x="923" unicode="ħ"/><glyph d="M436 1829h666l-115 -193h-686zM197 1350q205 150 389 151.5t278 -143.5q145 -240 -123 -666l-272 -475h262l-119 -217h-612l119 217h280l289 506q78 135 98.5 276.5t-38.5 217.5q-68 61 -181.5 31.5t-204.5 -118.5z" glyph-name="Imacron" horiz-adv-x="843" unicode="Ī"/><glyph d="M719 971h-686l135 192h666zM336 807l45 -41q-147 -188 -220 -348t-28 -203q43 -43 133 16.5t199 190.5l41 -27q-162 -221 -305.5 -332.5t-227.5 -66.5q-45 29 -57 78t11.5 116.5t59.5 137t99.5 158.5t118.5 160t131 161z" glyph-name="imacron" horiz-adv-x="417" unicode="ī"/><glyph d="M864 1358q145 -240 -123 -666l-272 -475h262l-119 -217h-262q-63 -61 -92 -127t-10 -98q53 -53 205 73l26 -26q-119 -133 -217 -182.5t-160 4.5q-57 68 -13 160t167 196h-256l119 217h280l289 506q78 135 98.5 276.5t-38.5 217.5q-68 61 -181.5 31.5t-204.5 -118.5 l-165 220q205 150 389 151.5t278 -143.5z" glyph-name="Iogonek" horiz-adv-x="843" unicode="Į"/><glyph d="M367 965q-55 0 -94.5 38.5t-39.5 96t39 96.5t95 39q57 0 97 -39t40 -96.5t-40 -96t-97 -38.5zM16 -16q-63 -61 -92.5 -128t-11.5 -100q53 -53 205 74l26 -27q-119 -133 -217 -182t-159 4q-61 70 -7 171.5t195 213.5q-35 31 -41 82t19.5 117.5t62.5 134.5t99.5 154 t115.5 154.5t125 154.5l45 -41q-147 -188 -220 -348t-28 -203q43 -43 133 16.5t199 190.5l41 -27q-141 -195 -271.5 -306t-218.5 -105z" glyph-name="iogonek" horiz-adv-x="417" unicode="į"/><glyph d="M635 1630q-55 0 -94 39t-39 96.5t39 96.5t94 39q57 0 97 -39t40 -96.5t-40 -96.5t-97 -39zM864 1358q145 -240 -123 -666l-272 -475h262l-119 -217h-612l119 217h280l289 506q78 135 98.5 276.5t-38.5 217.5q-68 61 -181.5 31.5t-204.5 -118.5l-165 220 q205 150 389 151.5t278 -143.5z" glyph-name="Idotaccent" horiz-adv-x="843" unicode="İ"/><glyph d="M336 807l45 -41q-147 -188 -220 -348t-28 -203q43 -43 133 16.5t199 190.5l41 -27q-162 -221 -305.5 -332.5t-227.5 -66.5q-45 29 -57 78t11.5 116.5t59.5 137t99.5 158.5t118.5 160t131 161z" glyph-name="dotlessi" horiz-adv-x="417" unicode="ı"/><glyph d="M1561 1020q-332 63 -612.5 -46.5t-381.5 -344.5q88 -139 252 -255t343 -150t315 89l12 -12q-39 -127 -117 -207t-172 -104.5t-200.5 2t-200.5 97.5t-172 195t-117 283l-324 -587l-57 30l385 697q76 139 95.5 283.5t-44.5 221.5q-72 59 -187.5 26.5t-205.5 -122.5 l-172 223q207 158 394.5 163t287.5 -144q96 -154 27 -381q160 180 381 302t477 144zM594 -262q63 0 107 -45t44 -111q0 -53 -46 -130t-93 -126l-45 -49l-55 35l88 119q-61 0 -106.5 45t-45.5 106q0 66 45.5 111t106.5 45z" glyph-name="Kcommaaccent" horiz-adv-x="1591" unicode="Ķ"/><glyph d="M958 360l23 -24q-152 -203 -325 -310.5t-311 -75.5t-179 218l186 111q338 217 277 292q-63 70 -293 -88.5t-371 -371.5l-67 -123l-54 30l815 1483l56 -31l-596 -1081q199 236 414 364t307 33q154 -176 -430 -546q155 -269 548 120zM53 -262q63 0 107.5 -45t44.5 -111 q0 -53 -46 -130t-93 -126l-46 -49l-55 35l88 119q-61 0 -106 45t-45 106q0 66 45 111t106 45z" glyph-name="kcommaaccent" horiz-adv-x="907" unicode="ķ"/><glyph d="M1665 1810l-494 -217l-38 62l417 338zM313 442q86 23 202 -22t223.5 -111.5t217 -124t213 -55.5t177.5 92l40 -22q-190 -315 -415 -316q-61 0 -144.5 37t-159 88t-163.5 101.5t-165 83t-158 26.5t-146 -61l-10 14l-25 27l49 37l82 75q98 98 198.5 252t181.5 291 t176 273.5t223 238.5t284 147q106 18 194.5 -8t146.5 -87.5t95 -130t56 -146.5l-320 -195q-72 412 -338 324q-113 -45 -219.5 -146.5t-173 -200t-165 -250t-157.5 -231.5z" glyph-name="Lacute" horiz-adv-x="1497" unicode="Ĺ"/><glyph d="M1382 1829l-493 -217l-39 61l418 338zM903 1493q51 -29 56.5 -98.5t-29.5 -160.5t-95.5 -195.5t-143.5 -210t-170 -196.5t-179 -162t-166 -101q6 -109 78 -150q119 -57 239.5 14.5t260.5 264.5l43 -29q-188 -231 -365.5 -375.5t-292.5 -111.5q-178 66 -82 419 q88 319 330 672q215 317 387 404q76 39 129 16zM227 643q137 -4 290 129t224.5 284.5t8.5 200.5q-63 33 -167 -55t-201.5 -243.5t-154.5 -315.5z" glyph-name="lacute" horiz-adv-x="663" unicode="ĺ"/><glyph d="M313 442q86 23 202 -22t223.5 -111.5t217 -124t213 -55.5t177.5 92l40 -22q-190 -315 -415 -316q-61 0 -144.5 37t-159 88t-163.5 101.5t-165 83t-158 26.5t-146 -61l-10 14l-25 27l49 37l82 75q98 98 198.5 252t181.5 291t176 273.5t223 238.5t284 147q106 18 194.5 -8 t146.5 -87.5t95 -130t56 -146.5l-320 -195q-72 412 -338 324q-113 -45 -219.5 -146.5t-173 -200t-165 -250t-157.5 -231.5zM702 -221q63 0 107.5 -45t44.5 -111q0 -53 -46 -130t-91 -126l-47 -49l-56 35l88 119q-61 0 -106 45t-45 106q0 66 45 111t106 45z" glyph-name="Lcommaaccent" horiz-adv-x="1497" unicode="Ļ"/><glyph d="M254 219q119 -57 239.5 14.5t260.5 264.5l43 -29q-188 -231 -365.5 -375.5t-292.5 -111.5q-178 66 -82 419q88 319 330 672q215 317 387 404q76 39 129 16q51 -29 56.5 -98.5t-29.5 -160.5t-95.5 -195.5t-143.5 -210t-170 -196.5t-179 -162t-166 -101q6 -109 78 -150z M750 1257q-63 33 -167 -55t-201 -243.5t-155 -315.5q137 -4 290 129t224.5 284.5t8.5 200.5zM158 -240q63 0 107 -45t44 -110q0 -53 -46 -130t-91 -126l-47 -49l-55 34l88 119q-61 0 -106.5 45t-45.5 107q0 66 45.5 110.5t106.5 44.5z" glyph-name="lcommaaccent" horiz-adv-x="663" unicode="ļ"/><glyph d="M1229 1597q-143 240 -314 273l80 180q150 0 222.5 -85t89.5 -206l315 244l57 -64zM313 442q86 23 202 -22t223.5 -111.5t217 -124t213 -55.5t177.5 92l40 -22q-190 -315 -415 -316q-61 0 -144.5 37t-159 88t-163.5 101.5t-165 83t-158 26.5t-146 -61l-10 14l-25 27l49 37 l82 75q98 98 198.5 252t181.5 291t176 273.5t223 238.5t284 147q106 18 194.5 -8t146.5 -87.5t95 -130t56 -146.5l-320 -195q-72 412 -338 324q-113 -45 -219.5 -146.5t-173 -200t-165 -250t-157.5 -231.5z" glyph-name="Lcaron" horiz-adv-x="1497" unicode="Ľ"/><glyph d="M946 1616q-143 240 -313 272l80 180q150 0 222.5 -85t88.5 -205l315 243l58 -63zM903 1493q51 -29 56.5 -98.5t-29.5 -160.5t-95.5 -195.5t-143.5 -210t-170 -196.5t-179 -162t-166 -101q6 -109 78 -150q119 -57 239.5 14.5t260.5 264.5l43 -29q-188 -231 -365.5 -375.5 t-292.5 -111.5q-178 66 -82 419q88 319 330 672q215 317 387 404q76 39 129 16zM227 643q137 -4 290 129t224.5 284.5t8.5 200.5q-63 33 -167 -55t-201.5 -243.5t-154.5 -315.5z" glyph-name="lcaron" horiz-adv-x="663" unicode="ľ"/><glyph d="M313 442q86 23 202 -22t223.5 -111.5t217 -124t213 -55.5t177.5 92l40 -22q-190 -315 -415 -316q-61 0 -144.5 37t-159 88t-163.5 101.5t-165 83t-158 26.5t-146 -61l-10 14l-25 27l49 37l82 75q133 135 311 430h-282l88 111h260q80 131 137 215t143 183.5t186.5 164 t219.5 98.5q106 18 194.5 -8t146.5 -87.5t95 -130t56 -146.5l-320 -195q-72 412 -338 324q-217 -86 -442 -418h348l-88 -111h-332q-131 -205 -201 -299z" glyph-name="Lslash" horiz-adv-x="1497" unicode="Ł"/><glyph d="M1452 1858l-494 -218l-38 62l417 338zM1178 449q-96 -141 -23 -181q68 -39 209 39q139 78 242 225l34 -20q-162 -285 -312 -427t-302 -101q-57 14 -75.5 75.5t13 158.5t111.5 202q190 281 236 364q150 276 6 363q-127 70 -387 -166t-533 -625l-209 -376l-55 30l389 707 q78 143 97.5 289.5t-44.5 224.5q-74 61 -190.5 28.5t-208.5 -124.5l-176 225q211 158 400.5 163t291.5 -145q147 -229 -86 -643q291 399 565.5 622.5t421.5 147.5q74 -47 87.5 -119.5t-52 -210t-132 -243t-224.5 -342.5q-61 -92 -94 -141z" glyph-name="Nacute" horiz-adv-x="1488" unicode="Ń"/><glyph d="M932 1176l-494 -218l-39 62l418 338zM965 434l30 -28q-178 -246 -386 -388.5t-298 -62.5q-47 47 -22.5 117.5t90 137t126 140.5t85 130.5t-30.5 105.5q-111 76 -315 -152q-82 -92 -328 -422l-29 -51l-55 33l455 825l57 -33l-260 -469q426 602 643 506q61 -39 66.5 -99 t-33.5 -123.5t-90.5 -134.5t-100.5 -130.5t-65.5 -111.5t12.5 -77q63 -47 194.5 44t254.5 243z" glyph-name="nacute" horiz-adv-x="921" unicode="ń"/><glyph d="M1178 449q-96 -141 -23 -181q68 -39 209 39q139 78 242 225l34 -20q-162 -285 -312 -427t-302 -101q-57 14 -75.5 75.5t13 158.5t111.5 202q190 281 236 364q150 276 6 363q-127 70 -387 -166t-533 -625l-209 -376l-55 30l389 707q78 143 97.5 289.5t-44.5 224.5 q-74 61 -190.5 28.5t-208.5 -124.5l-176 225q211 158 400.5 163t291.5 -145q147 -229 -86 -643q291 399 565.5 622.5t421.5 147.5q74 -47 87.5 -119.5t-52 -210t-132 -243t-224.5 -342.5q-61 -92 -94 -141zM641 -236q63 0 107.5 -45t44.5 -110q0 -53 -46.5 -130t-91.5 -126 l-47 -49l-55 34l88 119q-61 0 -106.5 45t-45.5 107q0 66 45.5 110.5t106.5 44.5z" glyph-name="Ncommaaccent" horiz-adv-x="1488" unicode="Ņ"/><glyph d="M965 434l30 -28q-178 -246 -386 -388.5t-298 -62.5q-47 47 -22.5 117.5t90 137t126 140.5t85 130.5t-30.5 105.5q-111 76 -315 -152q-82 -92 -328 -422l-29 -51l-55 33l455 825l57 -33l-260 -469q426 602 643 506q61 -39 66.5 -99t-33.5 -123.5t-90.5 -134.5 t-100.5 -130.5t-65.5 -111.5t12.5 -77q63 -47 194.5 44t254.5 243zM106 -262q63 0 107.5 -45t44.5 -111q0 -53 -46 -130t-93 -126l-45 -49l-56 35l88 119q-61 0 -106 45t-45 106q0 66 45 111t106 45z" glyph-name="ncommaaccent" horiz-adv-x="921" unicode="ņ"/><glyph d="M1016 1645q-143 240 -314 272l80 180q150 0 222.5 -85t89.5 -206l315 244l57 -63zM1178 449q-96 -141 -23 -181q68 -39 209 39q139 78 242 225l34 -20q-162 -285 -312 -427t-302 -101q-57 14 -75.5 75.5t13 158.5t111.5 202q190 281 236 364q150 276 6 363 q-127 70 -387 -166t-533 -625l-209 -376l-55 30l389 707q78 143 97.5 289.5t-44.5 224.5q-74 61 -190.5 28.5t-208.5 -124.5l-176 225q211 158 400.5 163t291.5 -145q147 -229 -86 -643q291 399 565.5 622.5t421.5 147.5q74 -47 87.5 -119.5t-52 -210t-132 -243 t-224.5 -342.5q-61 -92 -94 -141z" glyph-name="Ncaron" horiz-adv-x="1488" unicode="Ň"/><glyph d="M496 963q-143 240 -314 272l80 180q150 0 222.5 -85t88.5 -206l316 244l57 -63zM965 434l30 -28q-178 -246 -386 -388.5t-298 -62.5q-47 47 -22.5 117.5t90 137t126 140.5t85 130.5t-30.5 105.5q-111 76 -315 -152q-82 -92 -328 -422l-29 -51l-55 33l455 825l57 -33 l-260 -469q426 602 643 506q61 -39 66.5 -99t-33.5 -123.5t-90.5 -134.5t-100.5 -130.5t-65.5 -111.5t12.5 -77q63 -47 194.5 44t254.5 243z" glyph-name="ncaron" horiz-adv-x="921" unicode="ň"/><glyph d="M1462 1657h-686l135 192h666zM1577 1350q172 -209 70 -533q-102 -317 -404 -563q-307 -246 -633 -277q-27 -4 -82 -4q-281 0 -424 181q-172 207 -67 530q96 313 401 563q301 244 633 277q340 35 506 -174zM94 690q-47 -182 161 -303t525 -113q365 10 592 193 q195 154 219 401q14 143 -188 242q-229 109 -547 88q-383 -23 -596 -227q-125 -117 -166 -281z" glyph-name="Omacron" horiz-adv-x="1511" unicode="Ō"/><glyph d="M989 1153l-115 -192h-686l136 192h665zM961 399l18 -37q-129 -92 -248 -108l-18 -27q-115 -160 -279 -227q-86 -33 -151 -33q-78 0 -140 37q-88 51 -110 166q-41 188 110 403q117 160 281 230q166 70 289 -4q92 -55 112 -166q29 -133 -45 -289q81 6 181 55zM238 618 q-106 -131 -21 -286q66 -121 191 -170q147 -57 237 49q2 4 4 6q12 18 21 35q-150 8 -224.5 140t-31.5 280q-115 16 -176 -54zM702 350q16 150 -131 258q6 -221 131 -258z" glyph-name="omacron" horiz-adv-x="880" unicode="ō"/><glyph d="M1210 2097l133 -104l-342 -326l-61 47zM1489 2077l131 -103l-342 -327l-57 47zM1577 1350q172 -209 70 -533q-102 -317 -404 -563q-307 -246 -633 -277q-27 -4 -82 -4q-281 0 -424 181q-172 207 -67 530q96 313 401 563q301 244 633 277q340 35 506 -174zM94 690 q-47 -182 161 -303t525 -113q365 10 592 193q195 154 219 401q14 143 -188 242q-229 109 -547 88q-383 -23 -596 -227q-125 -117 -166 -281z" glyph-name="Ohungarumlaut" horiz-adv-x="1511" unicode="Ő"/><glyph d="M756 1296l-342 -325l-62 47l271 383zM690 950l-57 47l268 383l131 -102zM961 399l18 -37q-129 -92 -248 -108l-18 -27q-115 -160 -279 -227q-86 -33 -151 -33q-78 0 -140 37q-88 51 -110 166q-41 188 110 403q117 160 281 230q166 70 289 -4q92 -55 112 -166 q29 -133 -45 -289q81 6 181 55zM238 618q-106 -131 -21 -286q66 -121 191 -170q147 -57 237 49q2 4 4 6q12 18 21 35q-150 8 -224.5 140t-31.5 280q-115 16 -176 -54zM702 350q16 150 -131 258q6 -221 131 -258z" glyph-name="ohungarumlaut" horiz-adv-x="880" unicode="ő"/><glyph d="M1448 1417q188 111 404 81t319 -175l-184 -229q-86 113 -247 155.5t-298 5t-164 -134.5q-31 -96 106.5 -187t329.5 -91l-6 -41h2l-29 -189q-254 0 -516 -84t-262 -168q0 -31 74 -69.5t189.5 -64t240.5 -32t243.5 35.5t182.5 135l27 -15q-78 -123 -199 -210t-246 -120.5 t-246.5 -20.5t-203.5 77q-186 -88 -363 -107q-57 -4 -82 -4q-274 0 -418 178q-166 201 -67 525q98 311 397 553q297 242 625 274q233 22 391 -78zM1276 803q-131 141 -64 342q-123 29 -258 33t-274 -25t-257 -85t-207 -158.5t-124 -237.5q-33 -131 72.5 -232.5t291 -145.5 t390.5 -26q-10 51 -10 103q0 186 122.5 291.5t317.5 140.5z" glyph-name="OE" horiz-adv-x="1904" unicode="Œ"/><glyph d="M1354 485l39 -36q-158 -184 -326 -304t-311.5 -148t-229.5 69q0 4 -2 6q-66 -43 -100 -56q-76 -31 -149.5 -30.5t-133.5 32.5q-86 51 -110 164q-39 180 108 391q113 158 275 224q160 66 278 -2q63 -39 92 -109q117 88 223.5 118t168.5 -24q57 -78 11 -161.5 t-153.5 -160.5t-204 -127t-137.5 -61l39 -39q84 -66 262.5 2t360.5 252zM231 618q-61 -76 -55 -157.5t50 -150t117 -112.5t144 -44q-27 168 146 378q-76 102 -203 133t-199 -47zM987 618q-31 35 -87 24t-110.5 -43t-95.5 -86t-41 -105q86 2 174 24.5t138 56.5q35 27 41 69 t-19 60z" glyph-name="oe" horiz-adv-x="1273" unicode="œ"/><glyph d="M1403 1858l-494 -218l-39 62l418 338zM1710 1315q57 -115 43 -229.5t-87 -207t-187.5 -170t-261 -120.5t-307 -61.5t-322.5 12.5q248 -215 523 -287t462 57l18 -18q-160 -254 -351 -306.5t-377.5 95t-336.5 469.5l25 22q131 14 294 82t306 159t263 186.5t183.5 176 t47.5 115.5q-14 25 -75 27t-164 -30t-226 -92t-276.5 -175t-297.5 -264q-25 -41 -37 -64l-383 -692l-55 31l381 692q78 139 97.5 283.5t-44.5 222.5q-72 59 -186.5 26.5t-204.5 -122.5l-174 221q207 156 393.5 161t286.5 -143q70 -109 53 -254q109 156 257.5 252 t286.5 118.5t258 -21t175 -152.5z" glyph-name="Racute" horiz-adv-x="1681" unicode="Ŕ"/><glyph d="M973 1155l-494 -217l-39 61l418 338zM352 184q121 -121 467 224l25 -35q-242 -276 -432.5 -374.5t-296.5 3.5q-147 207 358 592q-197 -90 -283 -59q-35 -82 -167 -224l-27 33q39 53 77 139t42 144q-6 68 57.5 141.5t155.5 110.5l28 -17q-39 -55 45 -94q109 -49 263 -8 q68 18 124 53l27 -35q-55 -41 -101 -76.5t-98.5 -78.5t-92.5 -81t-78.5 -79t-63.5 -79t-39 -73t-12 -67.5t22 -59.5z" glyph-name="racute" horiz-adv-x="770" unicode="ŕ"/><glyph d="M1710 1315q57 -115 43 -229.5t-87 -207t-187.5 -170t-261 -120.5t-307 -61.5t-322.5 12.5q248 -215 523 -287t462 57l18 -18q-160 -254 -351 -306.5t-377.5 95t-336.5 469.5l25 22q131 14 294 82t306 159t263 186.5t183.5 176t47.5 115.5q-14 25 -75 27t-164 -30 t-226 -92t-276.5 -175t-297.5 -264q-25 -41 -37 -64l-383 -692l-55 31l381 692q78 139 97.5 283.5t-44.5 222.5q-72 59 -186.5 26.5t-204.5 -122.5l-174 221q207 156 393.5 161t286.5 -143q70 -109 53 -254q109 156 257.5 252t286.5 118.5t258 -21t175 -152.5zM559 -227 q63 0 107.5 -45t44.5 -111q0 -53 -46.5 -130t-91.5 -126l-47 -49l-55 35l88 118q-61 0 -106 45.5t-45 106.5q0 66 45 111t106 45z" glyph-name="Rcommaaccent" horiz-adv-x="1681" unicode="Ŗ"/><glyph d="M819 408l25 -35q-242 -276 -432.5 -374.5t-296.5 3.5q-147 207 358 592q-197 -90 -283 -59q-35 -82 -167 -224l-27 33q39 53 77 139t42 144q-6 68 57.5 141.5t155.5 110.5l28 -17q-39 -55 45 -94q109 -49 263 -8q68 18 124 53l27 -35q-55 -41 -101 -76.5t-98.5 -78.5 t-92.5 -81t-78.5 -79t-63.5 -79t-39 -73t-12 -67.5t22 -59.5q121 -120 467 224zM152 -262q63 0 107 -45t44 -111q0 -53 -46 -130t-93 -126l-45 -49l-56 35l89 119q-61 0 -106.5 45t-45.5 106q0 66 45.5 111t106.5 45z" glyph-name="rcommaaccent" horiz-adv-x="770" unicode="ŗ"/><glyph d="M967 1645q-143 240 -314 272l80 180q150 0 222.5 -85t88.5 -206l316 244l57 -63zM1710 1315q57 -115 43 -229.5t-87 -207t-187.5 -170t-261 -120.5t-307 -61.5t-322.5 12.5q248 -215 523 -287t462 57l18 -18q-160 -254 -351 -306.5t-377.5 95t-336.5 469.5l25 22 q131 14 294 82t306 159t263 186.5t183.5 176t47.5 115.5q-14 25 -75 27t-164 -30t-226 -92t-276.5 -175t-297.5 -264q-25 -41 -37 -64l-383 -692l-55 31l381 692q78 139 97.5 283.5t-44.5 222.5q-72 59 -186.5 26.5t-204.5 -122.5l-174 221q207 156 393.5 161t286.5 -143 q70 -109 53 -254q109 156 257.5 252t286.5 118.5t258 -21t175 -152.5z" glyph-name="Rcaron" horiz-adv-x="1681" unicode="Ř"/><glyph d="M537 942q-143 240 -314 272l80 181q150 0 222.5 -85t88.5 -206l316 244l57 -64zM352 184q121 -121 467 224l25 -35q-242 -276 -432.5 -374.5t-296.5 3.5q-147 207 358 592q-197 -90 -283 -59q-35 -82 -167 -224l-27 33q39 53 77 139t42 144q-6 68 57.5 141.5t155.5 110.5 l28 -17q-39 -55 45 -94q109 -49 263 -8q68 18 124 53l27 -35q-55 -41 -101 -76.5t-98.5 -78.5t-92.5 -81t-78.5 -79t-63.5 -79t-39 -73t-12 -67.5t22 -59.5z" glyph-name="rcaron" horiz-adv-x="770" unicode="ř"/><glyph d="M877 1724l417 338l115 -182l-494 -217zM1524 1380l-121 -303q-233 115 -469 160t-375 17.5t-139 -103.5q0 -53 94 -100t227 -94.5t264.5 -110t216.5 -171t72 -249.5q-10 -139 -112.5 -243.5t-255 -148.5t-321.5 -47t-334 57t-271 171l127 279q143 -121 407.5 -181.5 t470 -37t205.5 117.5q0 61 -72.5 113.5t-180 88.5t-227.5 86t-218 104.5t-149.5 148.5t-22.5 215q51 193 224 292t427 84.5t533 -145.5z" glyph-name="Sacute" horiz-adv-x="1392" unicode="Ś"/><glyph d="M918 1214l-494 -217l-39 62l418 338zM344 150q156 63 395 319l33 -29q-319 -344 -528 -434q-29 -16 -76 -26q-20 -6 -41 -7q-168 0 -205 128t88 274l29 -19q-47 -57 -24.5 -100t118.5 -23q88 27 126 79.5t37 116t-8 129t5 136t59 117.5q80 63 164 16t92 -155l-26 -23 q-23 27 -56.5 28t-74.5 -36q-51 -63 -70 -149t-23 -190.5t-14 -151.5z" glyph-name="sacute" horiz-adv-x="655" unicode="ś"/><glyph d="M1524 1380l-121 -303q-233 115 -469 160t-375 17.5t-139 -103.5q0 -53 94 -100t227 -94.5t264.5 -110t216.5 -171t72 -249.5q-10 -139 -112.5 -243.5t-255 -148.5t-321.5 -47t-334 57t-271 171l127 279q143 -121 407.5 -181.5t470 -37t205.5 117.5q0 61 -72.5 113.5 t-180 88.5t-227.5 86t-218 104.5t-149.5 148.5t-22.5 215q51 193 224 292t427 84.5t533 -145.5zM575 66h84l-84 -115q88 20 139.5 -33t14.5 -160q-37 -98 -117 -131t-155.5 3t-104.5 122l31 47q63 -51 172 -62t127 30q8 23 -32 49t-96 43.5t-99 17.5z" glyph-name="Scedilla" horiz-adv-x="1392" unicode="Ş"/><glyph d="M178 66h-84l-51 -80q-117 35 -128 148.5t95 240.5l29 -19q-47 -57 -24.5 -100t118.5 -23q88 27 126 79.5t37 116t-8 129t5 136t59 117.5q80 63 164 16t92 -155l-26 -23q-23 27 -56.5 28t-74.5 -36q-51 -63 -70 -149t-23 -190.5t-14 -151.5q156 63 395 319l33 -29 q-319 -344 -528 -434q-29 -16 -76 -26q-20 -6 -41 -7h-16zM43 -14q31 -10 68 -13l-17 -22q88 20 139.5 -33t14.5 -160q-37 -98 -117 -131t-155.5 3t-104.5 122l31 47q63 -51 171.5 -62t127.5 30q8 23 -32 49t-96.5 43.5t-99.5 17.5z" glyph-name="scedilla" horiz-adv-x="655" unicode="ş"/><glyph d="M1423 2009l-450 -342q-143 240 -314 272l80 181q150 0 222.5 -85t89.5 -206l315 244zM1524 1380l-121 -303q-233 115 -469 160t-375 17.5t-139 -103.5q0 -53 94 -100t227 -94.5t264.5 -110t216.5 -171t72 -249.5q-10 -139 -112.5 -243.5t-255 -148.5t-321.5 -47t-334 57 t-271 171l127 279q143 -121 407.5 -181.5t470 -37t205.5 117.5q0 61 -72.5 113.5t-180 88.5t-227.5 86t-218 104.5t-149.5 148.5t-22.5 215q51 193 224 292t427 84.5t533 -145.5z" glyph-name="Scaron" horiz-adv-x="1392" unicode="Š"/><glyph d="M481 1001q-143 240 -313 273l80 180q150 0 222.5 -85t88.5 -206l315 244l58 -64zM344 150q156 63 395 319l33 -29q-319 -344 -528 -434q-29 -16 -76 -26q-20 -6 -41 -7q-168 0 -205 128t88 274l29 -19q-47 -57 -24.5 -100t118.5 -23q88 27 126 79.5t37 116t-8 129t5 136 t59 117.5q80 63 164 16t92 -155l-26 -23q-23 27 -56.5 28t-74.5 -36q-51 -63 -70 -149t-23 -190.5t-14 -151.5z" glyph-name="scaron" horiz-adv-x="655" unicode="š"/><glyph d="M0 1063q371 629 1346 389q195 -39 340 12.5t161 139.5l242 -156q-117 -188 -295 -207.5t-489 123.5q-117 55 -239 55t-231.5 -44t-220 -126t-204 -181t-181.5 -222zM1253 1315l58 -21q-272 -737 -559 -1079t-652 -293v305q193 0 338.5 48.5t284.5 171t266 332.5t264 536z M365 66h84l-84 -115q88 20 139 -33t14 -160q-37 -98 -116.5 -131t-155.5 3t-105 122l31 47q63 -51 172 -62t127 30q8 23 -32 49t-96 43.5t-99 17.5z" glyph-name="Tcommaaccent" horiz-adv-x="1269" unicode="Ţ"/><glyph d="M627 399q-166 -203 -286 -315.5t-216 -128.5h-27h-14l80 111h-84l-55 -89q-61 51 -61.5 138.5t43.5 189t138 266.5h-206l106 228h234q88 147 180 311l57 -23q-51 -90 -160 -288h176l-100 -228h-184q-125 -289 -49 -364q111 -104 401 229zM98 -45h27q72 0 105.5 -52.5 t2.5 -144.5q-37 -98 -116.5 -131t-155.5 3t-104 122l30 47q63 -51 172 -62t127 30q8 23 -31.5 49t-96 43.5t-99.5 17.5l66 100q4 -4 8 -6q27 -14 51 -16l-4 -4q2 0 8 2t10 2z" glyph-name="tcommaaccent" horiz-adv-x="534" unicode="ţ"/><glyph d="M1796 1937l-450 -342q-143 240 -314 273l80 180q150 0 222.5 -85t88.5 -206l316 244zM0 1063q371 629 1346 389q195 -39 340 12.5t161 139.5l242 -156q-117 -188 -295 -207.5t-489 123.5q-117 55 -239 55t-231.5 -44t-220 -126t-204 -181t-181.5 -222zM1253 1315l58 -21 q-272 -737 -559 -1079t-652 -293v305q193 0 338.5 48.5t284.5 171t266 332.5t264 536z" glyph-name="Tcaron" horiz-adv-x="1269" unicode="Ť"/><glyph d="M504 1231q-143 240 -314 272l80 180q150 0 222.5 -85t89.5 -205l315 243l57 -63zM199 207q111 -104 401 229l27 -37q-47 -57 -85 -101t-82 -93t-81 -84t-77 -70t-74.5 -54.5t-68.5 -32.5t-66 -11t-60 18q-68 49 -70 136.5t42 191.5t140 272h-206l106 228h234 q88 147 180 311l57 -23q-51 -90 -160 -288h176l-100 -228h-184q-125 -288 -49 -364z" glyph-name="tcaron" horiz-adv-x="534" unicode="ť"/><glyph d="M1847 1604l242 -156q-117 -188 -295 -207.5t-489 123.5q-117 55 -239 55t-231.5 -44t-220 -126t-204 -181t-181.5 -222l-229 217q371 629 1346 389q195 -39 340 12.5t161 139.5zM1311 1294q-111 -297 -205 -497h280l-88 -111h-245q-211 -418 -442.5 -609.5t-510.5 -154.5 v305q266 0 460 102.5t368 356.5h-316l88 111h299q125 213 254 518z" glyph-name="Tbar" horiz-adv-x="1269" unicode="Ŧ"/><glyph d="M1638 1829l-114 -193h-686l135 193h665zM1778 641l37 -47q-322 -328 -388 -389q-268 -250 -405 -230q-35 4 -64 25q-195 156 68 614q-354 -381 -610 -549.5t-387 -39.5q-51 63 -9.5 163.5t140 208t218.5 229.5t222 227t153.5 200.5t14.5 150.5q-96 129 -479 -125 l-111 252q127 117 274.5 164t267.5 12.5t169 -143.5q43 -88 9 -195.5t-113.5 -211t-174 -210t-176.5 -194.5t-118.5 -165t-0.5 -120q53 -53 169 3.5t282 211t320.5 320.5t353.5 395q129 156 274 324l47 -54q-338 -420 -442 -571q-367 -526 -182 -670l12 -8q37 -23 101.5 1 t145.5 85.5t153.5 126t158.5 143.5q47 46 70 66z" glyph-name="Umacron" horiz-adv-x="1552" unicode="Ū"/><glyph d="M961 1126l-115 -192h-686l135 192h666zM1006 492l26 -25q-219 -291 -358 -410.5t-246 -68.5q-96 45 -10 243q-262 -301 -416 -243q-37 14 -57.5 39.5t-21.5 62.5t6.5 75t34 92t51 99t67.5 110.5t74.5 112t81 116t75.5 110.5l39 -25q-47 -76 -72.5 -119t-64.5 -111.5 t-57.5 -111.5t-32.5 -90t-9 -76.5t27 -44.5q70 -43 206 75t325 343q74 98 125 160l37 -29q-14 -16 -29 -39q-29 -37 -41 -57q-264 -369 -158 -461q57 -45 151.5 30t246.5 243z" glyph-name="umacron" unicode="ū"/><glyph d="M1063 1622q-66 37 -79 120t34 163q45 80 123 108q80 33 143 -6q68 -39 80 -123q10 -80 -35 -160q-43 -78 -123 -110q-35 -12 -67 -12q-43 0 -76 20zM1047 1886q-23 -41 34.5 -100.5t123 -74.5t95.5 30q33 43 -26.5 94t-129.5 64.5t-97 -13.5zM1778 641l37 -47 q-322 -328 -388 -389q-268 -250 -405 -230q-35 4 -64 25q-195 156 68 614q-354 -381 -610 -549.5t-387 -39.5q-51 63 -9.5 163.5t140 208t218.5 229.5t222 227t153.5 200.5t14.5 150.5q-96 129 -479 -125l-111 252q127 117 274.5 164t267.5 12.5t169 -143.5q43 -88 9 -195.5 t-113.5 -211t-174 -210t-176.5 -194.5t-118.5 -165t-0.5 -120q53 -53 169 3.5t282 211t320.5 320.5t353.5 395q129 156 274 324l47 -54q-338 -420 -442 -571q-367 -526 -182 -670l12 -8q37 -23 101.5 1t145.5 85.5t153.5 126t158.5 143.5q47 46 70 66z" glyph-name="Uring" horiz-adv-x="1552" unicode="Ů"/><glyph d="M385 920q-66 37 -79 119.5t34 162.5q45 80 123 109q80 33 143 -6q68 -39 80 -123q10 -80 -35 -160q-43 -78 -123 -111q-33 -12 -67 -12q-43 1 -76 21zM369 1184q-23 -41 34.5 -100.5t123 -75t96.5 29.5q33 43 -26.5 94.5t-130 65t-97.5 -13.5zM1006 492l26 -25 q-219 -291 -358 -410.5t-246 -68.5q-96 45 -10 243q-262 -301 -416 -243q-37 14 -57.5 39.5t-21.5 62.5t6.5 75t34 92t51 99t67.5 110.5t74.5 112t81 116t75.5 110.5l39 -25q-47 -76 -72.5 -119t-64.5 -111.5t-57.5 -111.5t-32.5 -90t-9 -76.5t27 -44.5q70 -43 206 75 t325 343q74 98 125 160l37 -29q-14 -16 -29 -39q-29 -37 -41 -57q-264 -369 -158 -461q57 -45 151.5 30t246.5 243z" glyph-name="uring" unicode="ů"/><glyph d="M1405 1972l-342 -325l-62 47l271 383zM1339 1626l-57 47l268 383l131 -102zM1778 641l37 -47q-322 -328 -388 -389q-268 -250 -405 -230q-35 4 -64 25q-195 156 68 614q-354 -381 -610 -549.5t-387 -39.5q-51 63 -9.5 163.5t140 208t218.5 229.5t222 227t153.5 200.5 t14.5 150.5q-96 129 -479 -125l-111 252q127 117 274.5 164t267.5 12.5t169 -143.5q43 -88 9 -195.5t-113.5 -211t-174 -210t-176.5 -194.5t-118.5 -165t-0.5 -120q53 -53 169 3.5t282 211t320.5 320.5t353.5 395q129 156 274 324l47 -54q-338 -420 -442 -571 q-367 -526 -182 -670l12 -8q37 -23 101.5 1t145.5 85.5t153.5 126t158.5 143.5q47 46 70 66z" glyph-name="Uhungarumlaut" horiz-adv-x="1552" unicode="Ű"/><glyph d="M727 1270l-342 -326l-61 47l270 383zM662 924l-58 47l268 383l132 -103zM1006 492l26 -25q-219 -291 -358 -410.5t-246 -68.5q-96 45 -10 243q-262 -301 -416 -243q-37 14 -57.5 39.5t-21.5 62.5t6.5 75t34 92t51 99t67.5 110.5t74.5 112t81 116t75.5 110.5l39 -25 q-47 -76 -72.5 -119t-64.5 -111.5t-57.5 -111.5t-32.5 -90t-9 -76.5t27 -44.5q70 -43 206 75t325 343q74 98 125 160l37 -29q-14 -16 -29 -39q-29 -37 -41 -57q-264 -369 -158 -461q57 -45 151.5 30t246.5 243z" glyph-name="uhungarumlaut" unicode="ű"/><glyph d="M1815 594q-31 -33 -104 -107.5t-104.5 -107.5t-95 -95.5t-96.5 -91t-85 -73.5t-86 -66.5t-75 -44t-74.5 -30t-64.5 -5.5q-59 -61 -84.5 -122.5t-9.5 -94.5q53 -53 205 74l26 -27q-119 -133 -217 -182t-159 4q-59 68 -10.5 166t182.5 207l-2 2h-3q-195 156 68 614 q-354 -381 -610 -549.5t-387 -39.5q-51 63 -9.5 163.5t140 208t218.5 229.5t222 227t153.5 200.5t14.5 150.5q-96 129 -479 -125l-111 252q127 117 274.5 164t267.5 12.5t169 -143.5q43 -88 9 -195.5t-113.5 -211t-174 -210t-176.5 -194.5t-118.5 -165t-0.5 -120 q53 -53 169 3.5t282 211t320.5 320.5t353.5 395q129 156 274 324l47 -54q-338 -420 -442 -571q-367 -526 -182 -670l12 -8q37 -23 101.5 1t145.5 85.5t153.5 126t158.5 143.5q47 45 70 66z" glyph-name="Uogonek" horiz-adv-x="1552" unicode="Ų"/><glyph d="M1032 467q-199 -264 -330 -386t-233 -106q-59 -61 -86 -123.5t-10 -95.5q53 -53 205 74l26 -27q-119 -133 -217 -182t-160 4q-59 70 -8 168t187 209q-61 57 12 229q-262 -301 -416 -243q-37 14 -57.5 39.5t-21.5 62.5t6.5 75t34 92t51 99t67.5 110.5t74.5 112t81 116 t75.5 110.5l39 -25q-47 -76 -72.5 -119t-64.5 -111.5t-57.5 -111.5t-32.5 -90t-9 -76.5t27 -44.5q70 -43 206 75t325 343q74 98 125 160l37 -29q-14 -16 -29 -39q-29 -37 -41 -57q-264 -369 -158 -461q57 -45 151.5 30t246.5 243z" glyph-name="uogonek" unicode="ų"/><glyph d="M969 1620l434 332q141 -231 303 -264l-78 -175q-143 0 -215 83t-84 198l-303 -233zM2140 1884q205 -233 170 -474t-315 -554q-432 -524 -757 -736t-456 -79q-59 59 7.5 179t198.5 256t267.5 273.5t213 260.5t34.5 186l-6 6q-115 -137 -217 -254t-218 -245t-217.5 -228 t-205.5 -193.5t-192.5 -153.5t-168 -97t-143 -33t-106.5 47q-59 59 7 178t198.5 256t267.5 273.5t213 259.5t35 186q-96 127 -469 -123l-109 248q190 174 405.5 184.5t288.5 -153.5q49 -98 -11 -232.5t-174 -261.5t-228.5 -245.5t-173 -218t-9.5 -148.5q27 -27 63 -31 t83 14.5t96 48t112.5 83t122 106.5t134 132t137 144.5t143.5 158.5t141.5 163t141.5 166q18 18 49 53q74 84 98 86q18 2 31 -22q49 -98 -12.5 -232.5t-175 -261.5t-227 -245.5t-173 -218t-8.5 -148.5q90 -90 327.5 73.5t592.5 581.5q98 123 124.5 259t-8 245.5t-90 190.5 t-117.5 124z" glyph-name="Wcircumflex" horiz-adv-x="1775" unicode="Ŵ"/><glyph d="M854 1118l-303 -233l-57 59l434 332q141 -231 303 -264l-78 -174q-143 0 -215 82.5t-84 197.5zM1260 735q-31 -86 -5.5 -150.5t105.5 -64.5l-2 -37q-82 -31 -138.5 -11t-74.5 75q-92 -150 -161 -247t-150.5 -187t-157.5 -121t-148 -4q-152 61 -53 280 q-133 -162 -242.5 -234.5t-205.5 -35.5q-121 49 -54 262q68 207 244 402q156 168 301 204l62 -123q-123 -29 -216.5 -82t-141.5 -111t-70.5 -116.5t-13.5 -104.5t42 -71q45 -29 107.5 -3t160 124t154.5 163.5t189 223.5q8 8 12 14l37 -28q-66 -104 -105 -173t-68.5 -139.5 t-25.5 -115.5t41 -68q168 -76 541 508z" glyph-name="wcircumflex" horiz-adv-x="1212" unicode="ŵ"/><glyph d="M1126 1794l-303 -233l-57 59l434 332q141 -231 303 -264l-78 -175q-143 0 -215 83t-84 198zM1591 1491l47 -43q-106 -180 -244.5 -479t-248 -543t-228 -469t-233.5 -328.5t-215 -52.5q-135 72 -63 244q82 197 372 393q129 90 287 164q35 78 104.5 232.5t131 290.5 t118.5 255q-1063 -1380 -1380 -1108q-47 47 -39 113.5t59.5 138.5t127 156t161.5 163.5t165 162.5t137.5 155t76.5 137.5t-16 110.5q-31 39 -81 45t-114.5 -21.5t-112 -55.5t-110.5 -71l-109 248q125 115 269.5 161t262.5 12t165 -140q31 -86 7 -183.5t-85.5 -182.5 t-139 -176t-154.5 -164.5t-134.5 -147.5t-75.5 -125t20 -96q29 -29 70 -30t93.5 25.5t109.5 65.5t126.5 107.5t135.5 135t147.5 162t148.5 176.5t151.5 188.5t147 187.5t142.5 186zM659 -170q68 -43 158 83t217 398q-328 -184 -401 -338q-46 -92 26 -143z" glyph-name="Ycircumflex" horiz-adv-x="1228" unicode="Ŷ"/><glyph d="M616 1092l-303 -234l-57 60l434 331q141 -231 303 -264l-78 -174q-143 0 -215 83t-84 198zM926 414l32 -33q-145 -145 -434 -303q-94 -152 -195.5 -272.5t-192.5 -196.5t-172 -114t-141.5 -28.5t-94.5 62.5q-10 35 -13.5 63.5t18 61.5t46 61.5t71 61.5t91.5 60.5t105 60 t116.5 61.5t124.5 64q137 70 205 104q106 166 196 367q-170 -244 -358.5 -388.5t-302.5 -111.5q-115 57 -90.5 197.5t160.5 320.5t311 303l34 -37q-72 -68 -130 -131t-103 -126.5t-66.5 -116t-14.5 -95.5t48 -69q68 -49 195 22.5t252 226t180 326.5l63 -16 q-125 -352 -284 -623q233 127 344 238zM-27 -328q51 -57 178.5 45.5t272.5 307.5q-301 -158 -361 -199q-133 -91 -90 -154z" glyph-name="ycircumflex" horiz-adv-x="876" unicode="ŷ"/><glyph d="M1294 1591q-55 0 -94 39t-39 96.5t39 96.5t94 39q57 0 97.5 -39t40.5 -96.5t-40.5 -96.5t-97.5 -39zM887 1589q-55 0 -94 39t-39 96.5t38.5 96.5t94.5 39q57 0 97 -39t40 -96.5t-40 -96.5t-97 -39zM1591 1491l47 -43q-106 -180 -244.5 -479t-248 -543t-228 -469 t-233.5 -328.5t-215 -52.5q-135 72 -63 244q82 197 372 393q129 90 287 164q35 78 104.5 232.5t131 290.5t118.5 255q-1063 -1380 -1380 -1108q-47 47 -39 113.5t59.5 138.5t127 156t161.5 163.5t165 162.5t137.5 155t76.5 137.5t-16 110.5q-31 39 -81 45t-114.5 -21.5 t-112 -55.5t-110.5 -71l-109 248q125 115 269.5 161t262.5 12t165 -140q31 -86 7 -183.5t-85.5 -182.5t-139 -176t-154.5 -164.5t-134.5 -147.5t-75.5 -125t20 -96q29 -29 70 -30t93.5 25.5t109.5 65.5t126.5 107.5t135.5 135t147.5 162t148.5 176.5t151.5 188.5t147 187.5 t142.5 186zM659 -170q68 -43 158 83t217 398q-328 -184 -401 -338q-46 -92 26 -143z" glyph-name="Ydieresis" horiz-adv-x="1228" unicode="Ÿ"/><glyph d="M1092 1702l417 338l115 -182l-494 -218zM438 315q100 16 261 -7t279 -44.5t239.5 17t189.5 163.5l33 -8q-25 -213 -149 -357.5t-277 -144.5q-127 0 -252 27t-213 58.5t-174 57t-171 22.5t-167 -46l-37 51q106 74 263 177.5t274.5 181.5t254 171t230.5 166.5t174 148.5 t115 135.5t22 107.5q-12 49 -95 50t-211 -38t-261 -92t-277 -121l-120 281q201 119 468 189.5t487 46t253 -170.5q14 -72 -31 -154.5t-134 -168.5t-213 -181.5t-271.5 -194.5t-306.5 -204q-122 -78 -183 -119z" glyph-name="Zacute" horiz-adv-x="1540" unicode="Ź"/><glyph d="M907 1204l-493 -217l-39 62l418 337zM895 311l2 -57q-164 -63 -297 -135q8 -18 16 -56q14 -94 -40 -212.5t-145 -216t-198.5 -174t-198.5 -86t-145 47.5q-43 57 -47 116t36 137.5t165 177t332 210.5q-14 -2 -176 -28v237q172 43 341 145.5t148 157.5q-39 61 -217 33 t-307 -108l-117 196q96 109 253 145t293 -14.5t173 -167.5q31 -106 -44 -236t-212 -218q35 -16 59 -41q144 69 326 147zM541 18q-2 29 -43 43q-217 -129 -321.5 -253.5t-47.5 -200.5q53 -51 158.5 14.5t185.5 186t68 210.5z" glyph-name="zacute" horiz-adv-x="872" unicode="ź"/><glyph d="M1288 1765.5q0 -57.5 -40 -96.5t-97 -39q-55 0 -94 39t-39 96.5t39 96.5t94 39q57 0 97 -39t40 -96.5zM438 315q100 16 261 -7t279 -44.5t239.5 17t189.5 163.5l33 -8q-25 -213 -149 -357.5t-277 -144.5q-127 0 -252 27t-213 58.5t-174 57t-171 22.5t-167 -46l-37 51 q106 74 263 177.5t274.5 181.5t254 171t230.5 166.5t174 148.5t115 135.5t22 107.5q-12 49 -95 50t-211 -38t-261 -92t-277 -121l-120 281q201 119 468 189.5t487 46t253 -170.5q14 -72 -31 -154.5t-134 -168.5t-213 -181.5t-271.5 -194.5t-306.5 -204q-122 -78 -183 -119z " glyph-name="Zdotaccent" horiz-adv-x="1540" unicode="Ż"/><glyph d="M434 977q-55 0 -94 39t-39 96t39 96t94 39q57 0 97 -39t40 -96t-40 -96t-97 -39zM600 119q8 -18 16 -56q14 -94 -40 -212.5t-145 -216t-198.5 -174t-198.5 -86t-145 47.5q-43 57 -47 116t36 137.5t165 177t332 210.5q-14 -2 -176 -28v237q172 43 341 145.5t148 157.5 q-39 61 -217 33t-307 -108l-117 196q96 109 253 145t293 -14.5t173 -167.5q31 -106 -44 -236t-212 -218q35 -16 59 -41q143 70 326 147l2 -57q-164 -63 -297 -135zM129 -393q53 -51 158.5 14.5t185.5 186t68 210.5q-2 29 -43 43q-217 -129 -321.5 -253.5t-47.5 -200.5z" glyph-name="zdotaccent" horiz-adv-x="872" unicode="ż"/><glyph d="M1638 1987l-450 -342q-143 240 -314 272l80 180q150 0 222.5 -85t89.5 -206l315 244zM438 315q100 16 261 -7t279 -44.5t239.5 17t189.5 163.5l33 -8q-25 -213 -149 -357.5t-277 -144.5q-127 0 -252 27t-213 58.5t-174 57t-171 22.5t-167 -46l-37 51q106 74 263 177.5 t274.5 181.5t254 171t230.5 166.5t174 148.5t115 135.5t22 107.5q-12 49 -95 50t-211 -38t-261 -92t-277 -121l-120 281q201 119 468 189.5t487 46t253 -170.5q14 -72 -31 -154.5t-134 -168.5t-213 -181.5t-271.5 -194.5t-306.5 -204q-122 -78 -183 -119z" glyph-name="Zcaron" horiz-adv-x="1540" unicode="Ž"/><glyph d="M471 991q-143 240 -313 273l80 180q150 0 222 -85t89 -206l315 244l58 -64zM895 311l2 -57q-164 -63 -297 -135q8 -18 16 -56q14 -94 -40 -212.5t-145 -216t-198.5 -174t-198.5 -86t-145 47.5q-43 57 -47 116t36 137.5t165 177t332 210.5q-14 -2 -176 -28v237 q172 43 341 145.5t148 157.5q-39 61 -217 33t-307 -108l-117 196q96 109 253 145t293 -14.5t173 -167.5q31 -106 -44 -236t-212 -218q35 -16 59 -41q144 69 326 147zM541 18q-2 29 -43 43q-217 -129 -321.5 -253.5t-47.5 -200.5q53 -51 158.5 14.5t185.5 186t68 210.5z" glyph-name="zcaron" horiz-adv-x="872" unicode="ž"/><glyph d="M1524 1380l-121 -303q-233 115 -469 160t-375 17.5t-139 -103.5q0 -53 94 -100t227 -94.5t264.5 -110t216.5 -171t72 -249.5q-10 -139 -112.5 -243.5t-255 -148.5t-321.5 -47t-334 57t-271 171l127 279q143 -121 407.5 -181.5t470 -37t205.5 117.5q0 61 -72.5 113.5 t-180 88.5t-227.5 86t-218 104.5t-149.5 148.5t-22.5 215q51 193 224 292t427 84.5t533 -145.5zM549 -262q63 0 107 -45t44 -111q0 -53 -46 -130t-93 -126l-45 -49l-55 35l88 119q-61 0 -106.5 45t-45.5 106q0 66 45.5 111t106.5 45z" glyph-name="Scommaaccent" horiz-adv-x="1392" unicode="Ș"/><glyph d="M772 440q-319 -344 -528 -434q-29 -16 -76 -26q-20 -6 -41 -7q-168 0 -205 128t88 274l29 -19q-47 -57 -24.5 -100t118.5 -23q88 27 126 79.5t37 116t-8 129t5 136t59 117.5q80 63 164 16t92 -155l-26 -23q-23 27 -56.5 28t-74.5 -36q-51 -63 -70 -149t-23 -190.5 t-14 -151.5q156 63 395 319zM68 -262q63 0 107 -45t44 -111q0 -53 -46 -130t-91 -126l-47 -49l-55 35l88 119q-61 0 -106.5 45t-45.5 106q0 66 45.5 111t106.5 45z" glyph-name="scommaaccent" horiz-adv-x="655" unicode="ș"/><glyph d="M0 1063q371 629 1346 389q195 -39 340 12.5t161 139.5l242 -156q-117 -188 -295 -207.5t-489 123.5q-117 55 -239 55t-231.5 -44t-220 -126t-204 -181t-181.5 -222zM1253 1315l58 -21q-272 -737 -559 -1079t-652 -293v305q193 0 338.5 48.5t284.5 171t266 332.5t264 536z M338 -262q63 0 107 -45t44 -111q0 -53 -46 -130t-91 -126l-47 -49l-55 35l88 119q-61 0 -106.5 45t-45.5 106q0 66 45.5 111t106.5 45z" glyph-name="uni021A" horiz-adv-x="1269" unicode="Ț"/><glyph d="M600 436l27 -37q-47 -57 -85 -101t-82 -93t-81 -84t-77 -70t-74.5 -54.5t-68.5 -32.5t-66 -11t-60 18q-68 49 -70 136.5t42 191.5t140 272h-206l106 228h234q88 147 180 311l57 -23q-51 -90 -160 -288h176l-100 -228h-184q-125 -289 -49 -364q110 -105 401 229zM53 -262 q63 0 107.5 -45t44.5 -111q0 -53 -46 -130t-93 -126l-46 -49l-55 35l88 119q-61 0 -106 45t-45 106q0 66 45 111t106 45z" glyph-name="uni021B" horiz-adv-x="534" unicode="ț"/><glyph d="M98 1169l434 332q141 -231 304 -264l-78 -174q-143 0 -215 83t-84 197l-303 -233z" glyph-name="circumflex" horiz-adv-x="933" unicode="ˆ"/><glyph d="M813 1391l-451 -342q-143 240 -313 272l80 180q150 0 222.5 -85t88.5 -206l316 244z" glyph-name="caron" horiz-adv-x="862" unicode="ˇ"/><glyph d="M365 1155q-129 0 -222.5 96.5t-93.5 233.5h47q0 -53 27 -88t77 -47.5t82.5 -15.5t82.5 -3q39 0 63.5 1t68.5 9.5t69.5 22.5t47 46t21.5 75h45q0 -137 -91 -233.5t-224 -96.5z" glyph-name="breve" horiz-adv-x="729" unicode="˘"/><glyph d="M369 1378.5q0 -57.5 -40 -96.5t-98 -39q-55 0 -94 39t-39 96.5t39 96t94 38.5q57 0 97.5 -38.5t40.5 -96z" glyph-name="dotaccent" horiz-adv-x="466" unicode="˙"/><glyph d="M256 1069q-43 0 -76 21q-66 37 -79 119.5t34 162.5q45 80 123 109q80 33 143 -6q68 -39 80 -123q10 -80 -35 -160q-43 -78 -122 -111q-33 -12 -68 -12zM164 1354q-23 -41 34.5 -100.5t123 -75t96.5 29.5q33 43 -26.5 94.5t-130 65t-97.5 -13.5z" glyph-name="ring" horiz-adv-x="581" unicode="˚"/><glyph d="M440 143l39 -39q-104 -72 -161.5 -167t-30.5 -140q55 -55 215 78l28 -29q-125 -139 -228 -191t-169 3q-82 78 13 217t294 268z" glyph-name="ogonek" horiz-adv-x="628" unicode="˛"/><glyph d="M424 1360q-49 41 -100.5 25.5t-159.5 -105.5l-115 139q29 23 58.5 38.5t53 24.5t50.5 12t46 4t44 -5t37 -9t34.5 -14.5t31 -16.5t29 -17.5t24.5 -14.5q53 -39 107 -27.5t145 101.5l90 -119q-55 -84 -153.5 -94t-221.5 78z" glyph-name="tilde" horiz-adv-x="847" unicode="˜"/><glyph d="M369 1505l133 -104l-342 -326l-62 47zM647 1485l131 -103l-342 -327l-57 47z" glyph-name="hungarumlaut" horiz-adv-x="876" unicode="˝"/><glyph d="M-379 1491l281 -399l-62 -52l-358 342z" glyph-name="gravecomb" horiz-adv-x="0" unicode="̀"/><glyph d="M-631 1159l418 338l115 -182l-494 -217z" glyph-name="acutecomb" horiz-adv-x="0" unicode="́"/><glyph d="M-836 1169l435 332q141 -231 303 -264l-78 -174q-143 0 -215 83t-84 197l-303 -233z" glyph-name="uni0302" horiz-adv-x="0" unicode="̂"/><glyph d="M-424 1360q-49 41 -100 25.5t-160 -105.5l-115 139q29 23 58.5 38.5t53 24.5t50.5 12t46.5 4t44 -5t36.5 -9t34.5 -14.5t31 -16.5t29 -17.5t24.5 -14.5q53 -39 107.5 -27.5t144.5 101.5l90 -119q-55 -84 -153.5 -94t-221.5 78z" glyph-name="tildecomb" horiz-adv-x="0" unicode="̃"/><glyph d="M-164 1309h-686l135 192h666z" glyph-name="uni0304" horiz-adv-x="0" unicode="̄"/><glyph d="M-365 1155q-129 0 -222 96.5t-93 233.5h47q0 -53 26.5 -88t77 -47.5t83 -15.5t81.5 -3q39 0 64 1t69 9.5t69.5 22.5t47 46t21.5 75h45q0 -137 -91.5 -233.5t-224.5 -96.5z" glyph-name="uni0306" horiz-adv-x="0" unicode="̆"/><glyph d="M-98 1378.5q0 -57.5 -40 -96.5t-98 -39q-55 0 -94 39t-39 96.5t39 96t94 38.5q57 0 97.5 -38.5t40.5 -96z" glyph-name="uni0307" horiz-adv-x="0" unicode="̇"/><glyph d="M-98 1378.5q0 -57.5 -40 -96.5t-98 -39q-55 0 -94 39t-39 96.5t39 96t94 38.5q57 0 97.5 -38.5t40.5 -96zM-506 1376.5q0 -57.5 -40 -96.5t-97 -39q-55 0 -94 39t-39 96.5t39 96t94 38.5q57 0 97 -38.5t40 -96z" glyph-name="uni0308" horiz-adv-x="0" unicode="̈"/><glyph d="M-326 1069q-43 0 -75 21q-66 37 -79.5 119.5t34.5 162.5q45 80 122 109q80 33 144 -6q68 -39 80 -123q10 -80 -35 -160q-43 -78 -123 -111q-33 -12 -68 -12zM-418 1354q-23 -41 34.5 -100.5t123 -75t96.5 29.5q33 43 -26.5 94.5t-130 65t-97.5 -13.5z" glyph-name="uni030A" horiz-adv-x="0" unicode="̊"/><glyph d="M-508 1505l133 -104l-342 -326l-61 47zM-229 1485l131 -103l-342 -327l-58 47z" glyph-name="uni030B" horiz-adv-x="0" unicode="̋"/><glyph d="M-49 1391l-451 -342q-143 240 -313 272l80 180q150 0 222.5 -85t88.5 -206l316 244z" glyph-name="uni030C" horiz-adv-x="0" unicode="̌"/><glyph d="M-250 1040q-63 0 -107 45t-44 111q0 63 46 140t93 122l45 43l41 -26l-74 -127q61 0 106.5 -45.5t45.5 -106.5q0 -66 -45.5 -111t-106.5 -45z" glyph-name="uni0312" horiz-adv-x="0" unicode="̒"/><glyph d="M-250 -80q63 0 107.5 -45t44.5 -111q0 -53 -46 -129.5t-94 -126.5l-45 -49l-55 35l88 119q-61 0 -106 45t-45 106q0 66 45 111t106 45z" glyph-name="uni0326" horiz-adv-x="0" unicode="̦"/><glyph d="M-266 66h84l-84 -115q88 20 139 -33t14 -160q-37 -98 -116.5 -131t-155.5 3t-104 122l30 47q63 -51 172 -62t127 30q8 23 -31.5 49t-96 43.5t-99.5 17.5z" glyph-name="uni0327" horiz-adv-x="0" unicode="̧"/><glyph d="M-184 63l37 -36q-98 -66 -152.5 -157t-30.5 -134q53 -53 205 74l27 -27q-119 -133 -217.5 -182.5t-159.5 4.5q-76 74 13.5 204.5t277.5 253.5z" glyph-name="uni0328" horiz-adv-x="0" unicode="̨"/><glyph d="M1153 2030l281 -400l-62 -51l-358 342zM2140 1884q205 -233 170 -474t-315 -554q-432 -524 -757 -736t-456 -79q-59 59 7.5 179t198.5 256t267.5 273.5t213 260.5t34.5 186l-6 6q-115 -137 -217 -254t-218 -245t-217.5 -228t-205.5 -193.5t-192.5 -153.5t-168 -97 t-143 -33t-106.5 47q-59 59 7 178t198.5 256t267.5 273.5t213 259.5t35 186q-96 127 -469 -123l-109 248q190 174 405.5 184.5t288.5 -153.5q49 -98 -11 -232.5t-174 -261.5t-228.5 -245.5t-173 -218t-9.5 -148.5q27 -27 63 -31t83 14.5t96 48t112.5 83t122 106.5t134 132 t137 144.5t143.5 158.5t141.5 163t141.5 166q18 18 49 53q74 84 98 86q18 2 31 -22q49 -98 -12.5 -232.5t-175 -261.5t-227 -245.5t-173 -218t-8.5 -148.5q90 -90 327.5 73.5t592.5 581.5q98 123 124.5 259t-8 245.5t-90 190.5t-117.5 124z" glyph-name="Wgrave" horiz-adv-x="1775" unicode="Ẁ"/><glyph d="M958 954l-61 -51l-358 342l139 109zM1260 735q-31 -86 -5.5 -150.5t105.5 -64.5l-2 -37q-82 -31 -138.5 -11t-74.5 75q-92 -150 -161 -247t-150.5 -187t-157.5 -121t-148 -4q-152 61 -53 280q-133 -162 -242.5 -234.5t-205.5 -35.5q-121 49 -54 262q68 207 244 402 q156 168 301 204l62 -123q-123 -29 -216.5 -82t-141.5 -111t-70.5 -116.5t-13.5 -104.5t42 -71q45 -29 107.5 -3t160 124t154.5 163.5t189 223.5q8 8 12 14l37 -28q-66 -104 -105 -173t-68.5 -139.5t-25.5 -115.5t41 -68q168 -76 541 508z" glyph-name="wgrave" horiz-adv-x="1212" unicode="ẁ"/><glyph d="M1235 1702l418 338l114 -182l-493 -218zM2140 1884q205 -233 170 -474t-315 -554q-432 -524 -757 -736t-456 -79q-59 59 7.5 179t198.5 256t267.5 273.5t213 260.5t34.5 186l-6 6q-115 -137 -217 -254t-218 -245t-217.5 -228t-205.5 -193.5t-192.5 -153.5t-168 -97 t-143 -33t-106.5 47q-59 59 7 178t198.5 256t267.5 273.5t213 259.5t35 186q-96 127 -469 -123l-109 248q190 174 405.5 184.5t288.5 -153.5q49 -98 -11 -232.5t-174 -261.5t-228.5 -245.5t-173 -218t-9.5 -148.5q27 -27 63 -31t83 14.5t96 48t112.5 83t122 106.5t134 132 t137 144.5t143.5 158.5t141.5 163t141.5 166q18 18 49 53q74 84 98 86q18 2 31 -22q49 -98 -12.5 -232.5t-175 -261.5t-227 -245.5t-173 -218t-8.5 -148.5q90 -90 327.5 73.5t592.5 581.5q98 123 124.5 259t-8 245.5t-90 190.5t-117.5 124z" glyph-name="Wacute" horiz-adv-x="1775" unicode="Ẃ"/><glyph d="M1292 1182l-493 -217l-39 61l418 338zM1260 735q-31 -86 -5.5 -150.5t105.5 -64.5l-2 -37q-82 -31 -138.5 -11t-74.5 75q-92 -150 -161 -247t-150.5 -187t-157.5 -121t-148 -4q-152 61 -53 280q-133 -162 -242.5 -234.5t-205.5 -35.5q-121 49 -54 262q68 207 244 402 q156 168 301 204l62 -123q-123 -29 -216.5 -82t-141.5 -111t-70.5 -116.5t-13.5 -104.5t42 -71q45 -29 107.5 -3t160 124t154.5 163.5t189 223.5q8 8 12 14l37 -28q-66 -104 -105 -173t-68.5 -139.5t-25.5 -115.5t41 -68q168 -76 541 508z" glyph-name="wacute" horiz-adv-x="1212" unicode="ẃ"/><glyph d="M2140 1884q205 -233 170 -474t-315 -554q-432 -524 -757 -736t-456 -79q-59 59 7.5 179t198.5 256t267.5 273.5t213 260.5t34.5 186l-6 6q-115 -137 -217 -254t-218 -245t-217.5 -228t-205.5 -193.5t-192.5 -153.5t-168 -97t-143 -33t-106.5 47q-59 59 7 178t198.5 256 t267.5 273.5t213 259.5t35 186q-96 127 -469 -123l-109 248q190 174 405.5 184.5t288.5 -153.5q49 -98 -11 -232.5t-174 -261.5t-228.5 -245.5t-173 -218t-9.5 -148.5q27 -27 63 -31t83 14.5t96 48t112.5 83t122 106.5t134 132t137 144.5t143.5 158.5t141.5 163t141.5 166 q18 18 49 53q74 84 98 86q18 2 31 -22q49 -98 -12.5 -232.5t-175 -261.5t-227 -245.5t-173 -218t-8.5 -148.5q90 -90 327.5 73.5t592.5 581.5q98 123 124.5 259t-8 245.5t-90 190.5t-117.5 124zM1634 1726.5q0 -57.5 -40 -96.5t-97 -39q-55 0 -94 39t-39 96.5t39 96.5t94 39 q57 0 97 -39t40 -96.5zM1227 1724.5q0 -57.5 -40 -96.5t-97 -39q-55 0 -94.5 39t-39.5 96.5t39 96.5t95 39q57 0 97 -39t40 -96.5z" glyph-name="Wdieresis" horiz-adv-x="1775" unicode="Ẅ"/><glyph d="M1022 915q-55 0 -94 39t-39 96.5t39 96.5t94 39q57 0 97 -39t40 -96.5t-40 -96.5t-97 -39zM614 913q-55 0 -94 39t-39 96.5t39 96.5t94 39q57 0 97.5 -39t40.5 -96.5t-40.5 -96.5t-97.5 -39zM1260 735q-31 -86 -5.5 -150.5t105.5 -64.5l-2 -37q-82 -31 -138.5 -11 t-74.5 75q-92 -150 -161 -247t-150.5 -187t-157.5 -121t-148 -4q-152 61 -53 280q-133 -162 -242.5 -234.5t-205.5 -35.5q-121 49 -54 262q68 207 244 402q156 168 301 204l62 -123q-123 -29 -216.5 -82t-141.5 -111t-70.5 -116.5t-13.5 -104.5t42 -71q45 -29 107.5 -3 t160 124t154.5 163.5t189 223.5q8 8 12 14l37 -28q-66 -104 -105 -173t-68.5 -139.5t-25.5 -115.5t41 -68q168 -76 541 508z" glyph-name="wdieresis" horiz-adv-x="1212" unicode="ẅ"/><glyph d="M1231 1630l-62 -51l-358 342l139 109zM1591 1491l47 -43q-106 -180 -244.5 -479t-248 -543t-228 -469t-233.5 -328.5t-215 -52.5q-135 72 -63 244q82 197 372 393q129 90 287 164q35 78 104.5 232.5t131 290.5t118.5 255q-1063 -1380 -1380 -1108q-47 47 -39 113.5 t59.5 138.5t127 156t161.5 163.5t165 162.5t137.5 155t76.5 137.5t-16 110.5q-31 39 -81 45t-114.5 -21.5t-112 -55.5t-110.5 -71l-109 248q125 115 269.5 161t262.5 12t165 -140q31 -86 7 -183.5t-85.5 -182.5t-139 -176t-154.5 -164.5t-134.5 -147.5t-75.5 -125t20 -96 q29 -29 70 -30t93.5 25.5t109.5 65.5t126.5 107.5t135.5 135t147.5 162t148.5 176.5t151.5 188.5t147 187.5t142.5 186zM659 -170q68 -43 158 83t217 398q-328 -184 -401 -338q-46 -92 26 -143z" glyph-name="Ygrave" horiz-adv-x="1228" unicode="Ỳ"/><glyph d="M721 928l-62 -51l-358 342l139 108zM958 381q-145 -145 -434 -303q-94 -152 -195.5 -272.5t-192.5 -196.5t-172 -114t-141.5 -28.5t-94.5 62.5q-10 35 -13.5 63.5t18 61.5t46 61.5t71 61.5t91.5 60.5t105 60t116.5 61.5t124.5 64q137 70 205 104q106 166 196 367 q-170 -244 -358.5 -388.5t-302.5 -111.5q-115 57 -90.5 197.5t160.5 320.5t311 303l34 -37q-72 -68 -130 -131t-103 -126.5t-66.5 -116t-14.5 -95.5t48 -69q68 -49 195 22.5t252 226t180 326.5l63 -16q-125 -352 -284 -623q233 127 344 238zM-27 -328q51 -57 178.5 45.5 t272.5 307.5q-301 -158 -361 -199q-133 -91 -90 -154z" glyph-name="ygrave" horiz-adv-x="876" unicode="ỳ"/><glyph d="M727 377h-612l131 217h612z" glyph-name="endash" horiz-adv-x="858" unicode="–"/><glyph d="M727 377l-752 2l131 217l752 -2z" glyph-name="emdash" horiz-adv-x="956" unicode="—"/><glyph d="M266 791q-63 0 -107 45t-44 110q0 248 329 449l86 -156q-113 -29 -174 -57.5t-108 -87.5q6 4 18 4q61 0 106.5 -45t45.5 -107q0 -66 -45.5 -110.5t-106.5 -44.5z" glyph-name="quoteleft" horiz-adv-x="628" unicode="‘"/><glyph d="M420 1239q63 0 107 -45t44 -111q0 -248 -329 -448l-86 156q113 29 174 57.5t108 87.5q-6 -4 -18 -4q-61 0 -106.5 45t-45.5 106q0 66 45.5 111t106.5 45z" glyph-name="quoteright" horiz-adv-x="620" unicode="’"/><glyph d="M260 270q55 0 94 -40t39 -93q0 -217 -289 -397l-79 137q98 23 153 48.5t96 78.5q-2 0 -6 -1t-8 -1q-55 0 -94 39t-39 96q0 53 39 93t94 40z" glyph-name="quotesinglbase" horiz-adv-x="421" unicode="‚"/><glyph d="M250 799q-63 0 -107.5 44t-44.5 107q0 248 330 451l90 -156q-109 -23 -174 -53.5t-113 -87.5h19q63 0 108 -45t45 -108.5t-43.5 -107.5t-109.5 -44zM604 791q-63 0 -107 45t-44 110q0 248 329 449l86 -156q-113 -29 -174 -57.5t-108 -87.5q6 4 18 4q61 0 106.5 -45 t45.5 -107q0 -66 -45.5 -110.5t-106.5 -44.5z" glyph-name="quotedblleft" horiz-adv-x="886" unicode="“"/><glyph d="M420 1239q63 0 107 -45t44 -111q0 -248 -329 -448l-86 156q113 29 174 57.5t108 87.5q-6 -4 -18 -4q-61 0 -106.5 45t-45.5 106q0 66 45.5 111t106.5 45zM774 1231q63 0 107.5 -44t44.5 -108q0 -248 -330 -450l-90 155q109 23 174 53.5t113 88.5h-19q-63 0 -108 45 t-45 108.5t43.5 107.5t109.5 44z" glyph-name="quotedblright" horiz-adv-x="925" unicode="”"/><glyph d="M260 270q55 0 94 -40t39 -93q0 -217 -289 -397l-79 137q98 23 153 48.5t96 78.5q-2 0 -6 -1t-8 -1q-55 0 -94 39t-39 96q0 53 39 93t94 40z" glyph-name="quotedblbase" horiz-adv-x="421" unicode="„"/><glyph d="M1063 1077l-119 -262h-311l-447 -811l-55 29l432 782h-317l164 262h299l233 424l53 -28l-217 -396h285z" glyph-name="dagger" horiz-adv-x="1062" unicode="†"/><glyph d="M1032 815h-276l-107 -192h299l-119 -263h-323l-197 -356l-55 29l180 327h-303l164 263h285l104 192h-350l164 262h331l234 424l55 -28l-217 -396h250z" glyph-name="daggerdbl" horiz-adv-x="1150" unicode="‡"/><glyph d="M791 424q0 -109 -79 -186.5t-187.5 -77.5t-185.5 77.5t-77 186.5q0 113 76 188.5t186.5 75.5t188.5 -76.5t78 -187.5z" glyph-name="bullet" horiz-adv-x="888" unicode="•"/><glyph d="M158 270q57 0 97 -38.5t40 -96t-40 -96.5t-97 -39q-55 0 -94 39t-39 96.5t39 96t94 38.5z" glyph-name="ellipsis" horiz-adv-x="319" unicode="…"/><glyph d="M748 1337q33 -156 -91 -327q-96 -131 -227 -185q-61 -27 -123 -26q-59 0 -110 28q-74 45 -93 136q-33 158 93 327q92 131 225 185q135 57 233 -2q75 -46 93 -136zM182 -12l-57 45l1143 1468l55 -39zM272 1327q-70 -84 -8 -197.5t165 -150.5t175 22q41 57 30 121 t-58.5 109t-105.5 81t-113.5 38t-84.5 -23zM1360 539q33 -156 -90 -328q-96 -131 -226 -184q-70 -27 -124 -27q-59 0 -111 29q-70 43 -92 135q-31 160 92 328q90 129 225 184q137 57 236 -2q72 -43 90 -135zM2081 520q33 -156 -90 -327q-96 -131 -226 -185q-70 -27 -125 -26 q-59 0 -110 28q-70 43 -92 135q-31 160 92 328q90 129 225 184q137 57 236 -2q72 -43 90 -135zM885 528q-70 -82 -7.5 -196.5t166 -151.5t175.5 23q39 57 27.5 120.5t-57.5 108.5t-104.5 81t-113.5 38t-86 -23zM1606 510q-70 -82 -7.5 -196.5t166 -151.5t174.5 22 q39 57 28 121t-57 109t-104.5 80.5t-113.5 38t-86 -22.5z" glyph-name="perthousand" horiz-adv-x="2185" unicode="‰"/><glyph d="M610 0l-512 360l664 435l22 -37l-471 -312l432 -290z" glyph-name="guilsinglleft" horiz-adv-x="882" unicode="‹"/><glyph d="M270 795l514 -361l-663 -434l-23 39l471 309l-434 291z" glyph-name="guilsinglright" horiz-adv-x="882" unicode="›"/><glyph d="M94 2l-45 41l1290 1462l45 -41z" glyph-name="fraction" horiz-adv-x="720" unicode="⁄"/><glyph d="M885 1231q289 236 612 268q2 0 8 1t8 1v-323q-362 43 -645 -103h394l-121 -264h-545q-31 -61 -45 -121v-2h639l-121 -264h-403q141 -100 380.5 -127t466.5 39v-174q-233 -141 -462 -162q-53 -4 -78 -4q-268 0 -412 174q-88 106 -100 254h-357l166 264h226q20 61 49 123 h-369l166 264h381q74 82 162 156z" glyph-name="Euro" horiz-adv-x="1699" unicode="€"/><glyph d="M838 1604l108 -70q-51 -86 -132 -95t-222 56q-127 59 -253 -12.5t-235 -222.5l-104 98q168 287 610 176q88 -16 154 6.5t74 63.5zM1800 1024q-51 -78 0 -88q57 -12 139 59q35 31 62 68l16 -8q-78 -133 -147.5 -198.5t-138.5 -47.5q-27 6 -35 34.5t6 74t51 94.5 q195 285 113 336q-84 47 -295 -195q-43 -63 -129 -183t-115 -161l-22 8q164 242 225 369t16 162q-63 43 -181 -67t-251 -300l-98 -182l-27 14l182 330q37 66 45.5 133t-22.5 104q-33 29 -88 13.5t-96 -58.5l-82 107q98 74 187 76t134 -68q63 -94 -18 -258q125 180 237.5 267 t190.5 40q63 -41 16 -158q201 221 303 158q37 -25 42 -62.5t-26.5 -103t-66.5 -120t-108 -162.5q-13 -19 -19 -27zM45 979q174 0 289 103.5t233 390.5l27 -9q-123 -334 -254 -489.5t-295 -132.5v137z" glyph-name="trademark" horiz-adv-x="2019" unicode="™"/><glyph d="M520 825l17 -45q-109 -37 -185 -101.5t-104.5 -132t-18 -136t59.5 -117.5q33 -37 89 -32t110.5 31.5t101.5 89t61 138.5q23 115 -15 237t-119 223t-157.5 175t-160.5 135l184 213q205 -139 313 -327q172 -301 80 -650q-70 -264 -252 -417q-186 -156 -366 -91 q-117 57 -145.5 168t20.5 228.5t179 232.5t308 178z" glyph-name="partialdiff" horiz-adv-x="823" unicode="∂"/><glyph d="M784 559h-686l148 244h686z" glyph-name="minus" horiz-adv-x="1030" unicode="−"/><glyph d="M709 723q-70 59 -147 36.5t-230 -151.5l-168 199q47 35 92 60.5t88 35.5t77 17.5t74 0t63.5 -10.5t61 -21.5t51 -24.5t49.5 -27.5t40 -23.5q63 -37 104 -44t103.5 26.5t152.5 124.5l133 -172q-51 -80 -133 -117t-191 -15.5t-220 107.5zM727 334q-70 59 -146.5 36.5 t-230.5 -151.5l-168 199q47 35 92 60.5t88.5 35.5t77 17.5t73.5 0t63.5 -10.5t61.5 -21.5t51 -24.5t49 -27.5t40 -23.5q63 -37 104.5 -44t104 26.5t152.5 123.5l133 -172q-51 -80 -133 -116.5t-191.5 -15t-220.5 107.5z" glyph-name="approxequal" horiz-adv-x="1370" unicode="≈"/><glyph d="M915 729h-239l-191 -221h398l-148 -244h-461l-108 -127l-45 41l74 86h-146l148 244h209l190 221h-367l148 244h428l139 162l45 -41l-104 -121h178z" glyph-name="notequal" horiz-adv-x="1193" unicode="≠"/><glyph d="M711 90l-512 361l663 434l23 -37l-471 -311l432 -291zM987 -217h-889l131 217h889z" glyph-name="lessequal" horiz-adv-x="1216" unicode="≤"/><glyph d="M545 864l514 -360l-664 -434l-22 39l471 309l-434 291zM987 -217h-889l131 217h889z" glyph-name="greaterequal" horiz-adv-x="1216" unicode="≥"/><glyph d="M967 532l221 62q-8 -141 -90 -271t-190.5 -207t-220.5 -111t-181 -3q-98 68 -21 258q-127 -135 -260 -214t-200 -46q-86 39 -87 146.5t109 295.5q168 252 377 330t346 -76l64 74l38 -43q-68 -90 -115.5 -172t-75.5 -162t-14.5 -145.5t70.5 -102.5q25 -8 55.5 -11 t62.5 22.5t57.5 66.5t41 122t13.5 187zM156 236q201 -66 424 202q18 29 45 66q-152 96 -291 73.5t-213 -145.5q-31 -53 -27 -95t20.5 -66.5t41.5 -34.5z" glyph-name="uniE000" horiz-adv-x="1187" unicode=""/><glyph d="M573 608q94 -246 365 -129v-256q-250 -61 -363 172q-20 -111 -83.5 -208t-140.5 -148t-158.5 -68.5t-139.5 31.5q-70 59 -75 183t45.5 273.5t133.5 313.5t194.5 309.5t223 255t223 156.5t191.5 8q141 -84 10 -287q-117 -182 -370 -348q-168 -106 -326 -155l-6 51 q145 49 292.5 149.5t220.5 208t5 160.5q-49 31 -123 -2t-149.5 -110.5t-152.5 -181t-132 -221.5t-87 -223.5t-21.5 -192.5t69.5 -128q106 -63 212 44.5t87 312.5q-12 49 -18 104l49 10q16 -45 24 -84z" glyph-name="uniE001" horiz-adv-x="1060" unicode=""/><glyph d="M539 252q264 182 354 225q170 80 285 17l-84 -222q-125 61 -256 43t-273 -133q-119 -104 -222 -157.5t-194.5 -49t-152.5 75.5q-51 70 -38 162t61.5 178t123.5 172q113 131 287 212t250 22q82 -63 15.5 -181t-236.5 -194l-17 37q131 86 54 162q-31 25 -75 26.5t-89 -16 t-90 -48t-74 -74.5t-41 -91t5.5 -100.5t66.5 -100.5q119 -94 340 35z" glyph-name="uniE002" horiz-adv-x="1177" unicode=""/><glyph d="M776.5 247.5q26.5 -20.5 65.5 18.5t88 113t109.5 149.5t150.5 131t188 55.5v-226q-102 12 -189 -11t-142.5 -71.5t-107.5 -108.5t-85 -119.5t-76 -104.5t-78.5 -64.5t-95.5 0.5q-90 45 -14 299q-315 -412 -508 -352q-49 12 -85 49t-52.5 92.5t2 137t76.5 174.5 q168 254 386 365.5t379 -1.5q158 317 400 727l53 -26q-59 -104 -104 -187.5t-102.5 -190t-98.5 -192.5t-83 -180t-65.5 -167t-38 -137.5t-7 -108.5t34 -64.5zM217 199q170 -39 426 256l25 63q-166 92 -330 52t-238 -169q-43 -76 3 -131t114 -71z" glyph-name="uniE003" horiz-adv-x="1378" unicode=""/><glyph d="M535 193q61 63 98 99t96 90t101 84t98.5 63.5t102.5 45t99.5 12.5t102.5 -18l-43 -252q-170 47 -290 13.5t-333 -207.5q-166 -135 -320.5 -158.5t-244.5 78.5q-53 72 -39 168t64.5 187t132.5 182q119 137 281.5 206.5t240.5 -2.5q55 -61 27.5 -131.5t-98 -137t-162 -123 t-165 -92.5t-104.5 -44q16 -18 37 -37q33 -29 57.5 -44t67.5 -32.5t92.5 -5t100.5 55.5zM489 616q-33 35 -92 24t-116.5 -44t-100.5 -89t-43 -110q88 2 181.5 25.5t144.5 60.5q35 27 40.5 71t-14.5 62z" glyph-name="uniE004" horiz-adv-x="1232" unicode=""/><glyph d="M193 479q94 -166 245.5 -225t409.5 4l-84 -311q-145 0 -282.5 73.5t-229.5 194.5q37 -260 -42 -492.5t-211 -331t-245 -20.5q-53 43 -61 123t33 211t116.5 293t210.5 397.5t296 495.5t386 614l49 -45q-358 -537 -591 -981zM-23 -399q59 -29 125 90t85.5 303t-40.5 399 q-352 -698 -170 -792z" glyph-name="uniE005" horiz-adv-x="847" unicode=""/><glyph d="M662 78q440 111 684 12l-183 -315q-283 162 -604 143q-94 -137 -192.5 -245.5t-185.5 -174t-163.5 -97.5t-136 -20.5t-92.5 64.5q-66 139 183 320.5t612 289.5q111 172 196 357q-100 -135 -207.5 -243t-237.5 -176.5t-229 -37.5q-68 18 -109.5 76.5t-34.5 165t85 231.5 q178 270 435 360.5t417 -71.5l25 86l65 -21q-137 -395 -327 -704zM248 209q106 -25 242.5 32.5t275.5 221.5q-176 121 -366.5 104.5t-272.5 -147.5q-41 -78 5 -135.5t116 -75.5zM47 -403q51 -57 172 32.5t262 280.5q-145 -20 -258.5 -75.5t-161 -121t-14.5 -116.5z" glyph-name="uniE006" horiz-adv-x="1345" unicode=""/><glyph d="M1067 731q63 -70 78.5 -168t-15 -195.5t-87 -198.5t-135.5 -179t-161.5 -135.5t-165.5 -68.5t-147 19q-74 45 -91 120t12.5 155t72.5 167t88 156.5t59.5 124t-12.5 68.5q-20 16 -52 9t-58.5 -16t-64.5 -38t-68.5 -56.5t-71.5 -70.5t-74 -81t-74 -87t-73.5 -89t-72.5 -88 t-69 -83l-57 33l815 1472l53 -31l-651 -1185q66 84 111 140t110.5 130t113.5 120t107.5 92t107.5 63.5t98 15.5t93 -33q49 -43 49.5 -94t-35.5 -102.5t-87 -105.5t-97.5 -111.5t-74 -116t-10 -124t89.5 -126.5q121 -98 225 -19q92 74 96 222q6 178 -133 315z" glyph-name="uniE007" horiz-adv-x="1001" unicode=""/><glyph d="M586 989q0 -55 -39 -96t-94.5 -41t-94.5 41t-39 96t39 94t95 39q57 0 95 -39t38 -94zM123 193q27 -27 103.5 25t166.5 126t206 108.5t224 -28.5l-135 -213q-109 41 -197 36t-146 -38t-111.5 -79t-92.5 -88t-86 -64.5t-94 -8.5q-45 29 -57.5 78t12.5 119t59.5 137.5 t101 160.5t119 160.5t130.5 163.5l47 -40q-147 -190 -221 -351t-29 -204z" glyph-name="uniE008" horiz-adv-x="823" unicode=""/><glyph d="M823 1015.5q0 -63.5 -46 -108.5t-107 -45q-63 0 -108.5 45t-45.5 108.5t44 107.5t110 44q61 0 107 -44t46 -107.5zM422 242q350 162 715 108l-52 -250q-455 111 -727 9q-203 -401 -392 -617.5t-324 -142.5q-84 68 -70 161t114.5 206.5t254 229t350.5 228.5l119 227 q43 82 -21 125q-68 47 -172 -6q-63 -35 -117 -102l-34 22q139 262 311 334q123 53 182 -18q53 -63 12 -187q-33 -76 -147 -323zM-209 -365q51 -51 168 62t262 352q-231 -139 -351 -248t-79 -166z" glyph-name="uniE009" horiz-adv-x="1136" unicode=""/><glyph d="M1192 670l205 -90q-125 -289 -407.5 -463t-529.5 -160t-290 205l188 112q340 219 279 295q-41 47 -165 -10t-266.5 -183t-234.5 -263l-71 -129l-56 30l822 1491l55 -30l-604 -1098q201 242 420 373t313 36q41 -41 27.5 -97t-49 -109.5t-106.5 -117t-144.5 -116.5 t-161.5 -108q35 -61 94 -101.5t143 -41.5t172 46t186.5 182.5t180.5 346.5z" glyph-name="uniE00A" horiz-adv-x="1396" unicode=""/><glyph d="M258 219q53 -25 105.5 1t99.5 82t113.5 118.5t146.5 114t199.5 65.5t273.5 -27l-92 -241q-174 55 -299 47t-199 -56.5t-133 -115t-100 -125.5t-99.5 -91t-132.5 -11q-180 66 -82 421q88 322 330 676q215 317 387 404q78 41 131 16q51 -29 57.5 -99.5t-28.5 -161.5 t-96.5 -195.5t-144.5 -210t-171 -196.5t-179 -162t-167 -101q10 -113 80 -152zM754 1262q-96 51 -264 -156t-259 -461q137 -2 291 131t226 285t6 201z" glyph-name="uniE00B" horiz-adv-x="1196" unicode=""/><glyph d="M938 180q20 -16 60 14.5t91.5 84t128 102.5t173 70.5t227.5 -11.5l-33 -178q-158 43 -267.5 20.5t-199.5 -75.5t-149.5 -110.5t-117.5 -88.5t-106 -4q-51 33 -29.5 94.5t83 126t121 137t84 130t-26.5 102.5q-25 16 -54.5 18t-62.5 -13t-64.5 -38.5t-70.5 -63.5t-74 -80 t-80 -97.5t-80.5 -106.5t-84.5 -115q-35 -47 -52 -69l-8 -13l-41 17q27 49 79 134t82 138t57.5 115.5t24.5 104.5t-36 67q-37 20 -75 17t-83 -33.5t-91 -75.5t-98 -109.5t-105.5 -134.5t-110.5 -147q-45 -61 -68 -93l-53 29l424 770l53 -29l-268 -487q418 604 627 514 q121 -63 10 -281q293 354 456 281q57 -35 62.5 -91t-30.5 -115.5t-83 -126t-93 -122t-61.5 -104.5t13.5 -74z" glyph-name="uniE00C" horiz-adv-x="1617" unicode=""/><glyph d="M506 150q18 -16 60 18.5t98.5 91.5t141.5 109.5t190.5 70t244.5 -27.5l-35 -191q-100 29 -188 38t-150.5 -1t-118 -32.5t-92 -53.5t-70.5 -64.5t-58.5 -67.5t-51 -59.5t-50.5 -42t-55.5 -16.5t-66.5 21q-55 35 -32.5 99t89 134t130 147.5t90 139t-28.5 110.5 q-66 25 -127 5.5t-147 -110.5t-166 -193.5t-181 -239.5q-18 -27 -28 -41l-25 -43l-55 29l455 827l55 -31l-260 -473q428 604 645 510q76 -53 68.5 -122.5t-59.5 -157t-114.5 -161t-98.5 -136.5t-9 -86z" glyph-name="uniE00D" horiz-adv-x="1241" unicode=""/><glyph d="M1180 248q-274 -131 -498 -66q-106 -127 -244 -182q-78 -35 -155 -35q-76 0 -138 37q-86 51 -114 166q-39 195 114 410q117 160 281 227q170 72 291 -2q90 -55 114 -168q25 -143 -53 -307q143 25 338 137zM240 621q-43 -53 -54.5 -115t7 -116t54.5 -104t87 -84t103 -50.5 t105.5 -5t94.5 50.5q-150 61 -223.5 196t-42.5 285q-86 -4 -131 -57zM700 322q31 123 -54 223t-208 127q-2 -174 65.5 -262t196.5 -88z" glyph-name="uniE00E" horiz-adv-x="1179" unicode=""/><glyph d="M1337 604q-242 -281 -643 -313q-63 -100 -152 -176t-182.5 -109t-177.5 8t-129 164l-471 -878l-57 30l809 1508l57 -31l-174 -326q160 180 284 276.5t218 73.5q88 -20 95 -135.5t-48 -251.5q268 100 412 295zM678 416q29 129 -84 143q-123 16 -293 -94q-55 -37 -104 -82 q227 -41 481 33zM178 336q82 -82 207 -96.5t211 47.5q-201 0 -418 49z" glyph-name="uniE00F" horiz-adv-x="1337" unicode=""/><glyph d="M1188 512l149 -135q-47 -129 -176 -197.5t-264 -53.5t-207 107q-57 -387 -90 -503q-76 -276 -215 -275q-18 0 -37 4q-78 20 -95 89t22.5 175.5t112.5 230.5t183 275q-270 -291 -458 -235q-63 16 -103.5 70.5t-35 153.5t78.5 218q109 172 277 271.5t330.5 91.5t254.5 -131 l66 80l35 -29q-143 -158 -314 -395q0 -10 -2 -17q96 -78 248 -13.5t240 218.5zM244 231q98 -20 225 36.5t256 207.5q-168 113 -348 96.5t-250 -143.5q-39 -76 5 -127.5t112 -69.5zM430 -287q37 -10 69.5 32t63.5 131t52.5 177t48.5 213q-152 -221 -223.5 -377t-10.5 -176z " glyph-name="uniE010" horiz-adv-x="1337" unicode=""/><glyph d="M567 180q205 231 354.5 311t333.5 29l-73 -205q-190 25 -282.5 -10t-283.5 -188q-338 -289 -493 -133q-164 199 369 600q-217 -98 -308 -64q-37 -76 -161 -209l-27 33q37 49 72.5 127t44.5 139q-8 68 56 143.5t161 112.5l28 -14q-37 -59 48 -96q111 -51 268 -8 q68 18 127 53l24 -37v-2q-55 -41 -101 -77t-98.5 -79t-93 -81t-79.5 -78.5t-62.5 -78.5t-39 -73t-13.5 -67.5t22 -59.5q27 -29 87.5 -32t119.5 44z" glyph-name="uniE011" horiz-adv-x="1255" unicode=""/><glyph d="M360 147q29 20 68 63.5t70.5 82.5t80 83t97.5 68.5t123.5 38t158.5 -9.5l-49 -180q-119 27 -201.5 3t-163.5 -81t-140.5 -115.5t-132 -102.5t-138.5 -40q-174 0 -211 132t92 282l27 -21q-47 -61 -23.5 -103t119.5 -22q90 27 130 81t40 120t-7 133.5t6 139t63 120.5 q80 68 166 18.5t94 -163.5l-25 -21q-61 66 -137 -8q-51 -63 -70.5 -149t-23 -194t-13.5 -155z" glyph-name="uniE012" horiz-adv-x="958" unicode=""/><glyph d="M203 197q23 -23 61.5 3.5t85.5 81t119 103.5t160 72.5t209 -11.5l-84 -174q-102 53 -186.5 47t-139.5 -49t-106.5 -103.5t-90 -114.5t-90 -83.5t-104.5 -11.5q-78 37 -81 124t43 195.5t148 288.5h-208l112 234h234q133 229 182 315l57 -24q-88 -152 -159 -291h174 l-97 -234h-192q-125 -290 -47 -368z" glyph-name="uniE013" horiz-adv-x="837" unicode=""/><glyph d="M610 227q23 -18 52.5 9.5t66.5 79t98.5 99.5t144.5 70.5t204 -6.5l-35 -192q-121 37 -210 26.5t-144.5 -52.5t-102.5 -95t-80 -100.5t-77 -71t-97 -2.5q-98 45 -8 248q-266 -303 -420 -248q-37 14 -57.5 40.5t-21.5 63.5t6.5 76t34 93t51 99.5t67.5 111t74.5 110.5 t81 115.5t75.5 111.5l39 -27q-45 -72 -72.5 -117.5t-65.5 -112.5t-56.5 -111t-32.5 -90t-9 -75.5t27 -43.5q37 -23 96.5 1.5t134.5 93t144.5 143.5t157.5 181q18 25 39.5 52.5t47 58.5t38.5 47l37 -29q-14 -16 -29 -39q-25 -33 -37 -51q-271 -373 -162 -467z" glyph-name="uniE014" horiz-adv-x="1175" unicode=""/><glyph d="M1040 711l115 -168q-76 -76 -162 -106.5t-155.5 -18.5t-122.5 49t-74 90q-449 -662 -643 -573q-49 27 -66.5 76t3 118.5t48 134t89 160.5t103.5 155.5t112 157.5q18 25 26 37l41 -30q-348 -516 -108 -607q154 131 495 613l37 -33q-66 -182 -10 -246q49 -55 152 39 q59 56 120 152z" glyph-name="uniE015" horiz-adv-x="1155" unicode=""/><glyph d="M1497 510l70 -199q-106 -43 -211 -46t-187 45t-106 143q-164 -254 -294 -375t-251 -76q-152 59 -53 274q-131 -160 -237.5 -231.5t-200.5 -34.5q-119 47 -54 258q66 205 242 396q152 164 293 200l59 -121q-119 -29 -211 -81t-140 -110t-69.5 -115.5t-13.5 -103.5t41 -71 q100 -61 352 209q78 84 262 307l33 -26q-68 -111 -102.5 -173.5t-65 -135t-26.5 -115.5t39 -68q84 -35 221 97t311 405l37 -29q-16 -29 -21 -33q-78 -145 -59 -214.5t115 -62.5t227 87z" glyph-name="uniE016" horiz-adv-x="1566" unicode=""/><glyph d="M569 217q74 -20 126.5 4.5t93 74.5t90 102.5t144.5 91t226 38.5l-12 -211q-113 39 -209 25t-168 -60t-135 -104.5t-110.5 -112t-94.5 -81t-88 -9.5q-29 12 -46 32t-20.5 49.5t-3.5 53t12.5 68.5t19.5 66.5t26 72.5q-162 -162 -288 -253t-238 -93v47q88 8 193.5 75 t176 133.5t189.5 189.5q43 160 -45 200q-20 8 -39 9.5t-38.5 -7t-35.5 -17.5t-40 -30.5t-43 -40t-51 -51.5t-59 -57l-34 43q27 29 61.5 69.5t61 73.5t59.5 69t59.5 61.5t58 48t59.5 31.5t57.5 8t58.5 -17q29 -20 39 -51t-0.5 -83t-18.5 -80t-33 -97q141 145 250 223t211 80 l-2 -43q-66 -2 -153.5 -60.5t-154.5 -120t-179 -178.5q-42 -155 67 -182z" glyph-name="uniE017" horiz-adv-x="1249" unicode=""/><glyph d="M551 109q215 59 396 62t319 -65l-189 -190q-238 131 -602 74q-92 -137 -187 -244.5t-180 -174.5t-161 -99.5t-133.5 -21.5t-89.5 63q-41 82 59 193.5t286.5 212.5t405.5 169q119 180 213 391q-170 -244 -360.5 -389t-307.5 -113q-115 55 -90 196.5t162 323t314 302.5 l36 -35q-92 -86 -161.5 -166t-113.5 -154.5t-44 -132t51 -88.5q70 -49 197 22.5t250.5 226.5t179.5 327l63 -17q-131 -372 -313 -673zM-31 -344q47 -55 168 37t260 282q-225 -49 -358 -144t-70 -175z" glyph-name="uniE018" horiz-adv-x="1265" unicode=""/><glyph d="M1135 70l-74 -222q-246 78 -455 89q-25 -96 -94.5 -201t-157.5 -185.5t-184 -139t-174 -60.5t-127 49q-29 41 -29 97.5t27 117.5t85 128t136 125t188.5 107.5t235.5 77.5q-57 29 -330 -35l2 211v45q188 47 367.5 150.5t144.5 163.5q-43 61 -239.5 15t-284.5 -126 l-111 215q90 104 246 142t293 -6t174 -156q31 -106 -45 -239.5t-215 -225.5q84 -37 100 -135q245 39 521 -2zM115 -403q47 -47 138 -1t173 146t106 195q-184 -4 -310 -65.5t-141 -135t34 -139.5z" glyph-name="uniE019" horiz-adv-x="1120" unicode=""/><glyph d="M651 252q35 -25 68 -25t61.5 19.5t64.5 51.5t71.5 70t88 74.5t109.5 65.5t138 43t173 6l-43 -235q-131 29 -237.5 13t-182 -56.5t-140 -92t-112.5 -96.5t-99.5 -67.5t-98.5 -4.5q-119 43 -47 226q-117 -125 -234.5 -189.5t-197.5 -36.5q-84 35 -86 142.5t106 294.5 q168 250 375 326.5t344 -74.5l64 73l38 -39q-135 -180 -202.5 -318t-20.5 -171zM162 252q184 -70 389 158q35 55 76 110q-150 94 -288 70.5t-210 -146.5q-37 -84 -21.5 -130t54.5 -62z" glyph-name="uniE01A" horiz-adv-x="1425" unicode=""/><glyph d="M901 1069q145 76 254 116t236 60.5t251.5 -7.5t255.5 -103l-190 -164q-111 57 -210 82.5t-184 27.5t-199 -29.5t-207 -68.5t-255 -111q-25 -12 -73 -32l-27 43q211 129 271.5 222t-25.5 163q-49 29 -121 -3t-146.5 -109t-149.5 -178t-129 -216t-86 -219.5t-20.5 -190.5 t68.5 -125q51 -35 107.5 -16.5t102.5 63.5t70.5 135.5t10.5 198.5q-8 29 -14 72l47 10q10 -29 16 -51q12 -35 21.5 -56.5t28 -48t40 -33.5t58 -14.5t81.5 11.5l13 -41q-147 -47 -224 18q-4 -98 -44 -191.5t-98 -155.5t-128 -105t-134.5 -43t-117.5 32q-68 57 -74 179 t44.5 268.5t132.5 308.5t190.5 304t218 250t219 155t189.5 8q61 -39 68.5 -109.5t-29.5 -148.5t-109 -158z" glyph-name="uniE01B" horiz-adv-x="686" unicode=""/><glyph d="M780 242q61 -35 157.5 29.5t190.5 183.5l33 -39q-379 -504 -555 -412q-92 45 -14 295q-319 -406 -512 -348q-47 12 -82 49t-52.5 93.5t1 138t78.5 174.5q168 256 387 368.5t379 -2.5q113 231 292 541q-178 -143 -393 -195.5t-429 -16.5t-423 148l166 228 q150 -121 380 -174.5t459.5 -5t348.5 203.5l53 -24q-80 -143 -139 -253t-133 -253.5t-119 -251t-79 -210.5t-33 -170.5t38 -96.5zM217 195q168 -39 428 256q23 57 27 65q-170 92 -333 51t-239 -172q-41 -76 4 -129t113 -71z" glyph-name="uniE01C" horiz-adv-x="1060" unicode=""/><glyph d="M1024 502l23 -23q-31 -31 -83.5 -85t-86 -88t-81.5 -82t-83 -77.5t-77 -64.5t-75 -53.5t-66.5 -31.5t-62.5 -12t-53 15q-78 53 -44 150.5t111.5 189.5t129 174t10.5 102q-49 25 -112.5 -0.5t-150.5 -110.5t-142.5 -146.5t-162.5 -188.5q-68 -80 -100 -119l-29 -51l-55 31 l725 1315q-176 -147 -392 -200.5t-432 -18t-425 148.5l166 225q111 -88 273.5 -140t330.5 -59.5t325.5 47t249.5 169.5l4 8h3l53 -25l-4 -4l4 -2l-666 -1204q49 59 87 104t87 100.5t89 96.5t87 84t87 72.5t84 54t82 35t77 9.5t74 -18q63 -41 51 -100t-65.5 -139t-114 -150.5 t-93 -133t-1.5 -89.5q16 -12 38.5 -13t46 7t53.5 27.5t56.5 40t61 51t62.5 56.5t63.5 59.5t62.5 56.5z" glyph-name="uniE01D" horiz-adv-x="923" unicode=""/><glyph d="M684 1233q158 102 263.5 163.5t225 118t210 73t189.5 10t192.5 -50.5t191.5 -126l-193 -166q-160 127 -314.5 154t-329.5 -30.5t-447 -213.5q-94 -55 -109 21l-461 -832q203 244 425.5 376t316.5 38q27 -41 30 -82t-27 -90t-72 -96t-105.5 -99.5t-127 -97.5t-136.5 -90 q160 -274 555 121l24 -29q-154 -203 -330 -311.5t-316 -77.5t-183 219l190 113q344 223 283 301q-41 47 -167 -11.5t-269.5 -185.5t-237.5 -264l-72 -131l-55 31l831 1507l56 -33l-33 -59q-57 -123 -35 -168q10 -18 37 -2z" glyph-name="uniE01E" horiz-adv-x="890" unicode=""/><glyph d="M872 1130q115 117 228.5 195t250 129t291 42t318.5 -83l-186 -231q-145 82 -294 92t-286 -44t-263 -152.5t-249 -241.5q-41 -53 -72 -88l-26 49l30 39q104 141 140.5 259.5t-17.5 161.5q-43 23 -106.5 -13t-129 -113.5t-130 -179t-110.5 -213t-70.5 -211t-10 -179.5 t71.5 -112q121 -59 234.5 2t265.5 272l32 -21q-174 -248 -350 -385t-297 -102q-178 66 -80 418q90 315 328 663q215 313 381 396q74 35 123 12q124 -72 -17 -361z" glyph-name="uniE01F" horiz-adv-x="649" unicode=""/><glyph d="M819 408l25 -35q-242 -276 -432.5 -374.5t-296.5 3.5q-147 207 358 592q-225 -104 -309 -47q-86 68 -25.5 174t189.5 158l28 -17q-39 -55 45 -94q109 -49 263 -8q68 18 124 53l27 -35q-55 -41 -101 -76.5t-98.5 -78.5t-92.5 -81t-78.5 -79t-63.5 -79t-39 -73t-12 -67.5 t22 -59.5q121 -120 467 224z" glyph-name="uniE020" horiz-adv-x="770" unicode=""/><glyph d="M365 846q57 23 188 80t219 90t210 64.5t239.5 27.5t230.5 -43l-123 -248q-115 43 -230.5 56.5t-235.5 -5t-197.5 -37t-201.5 -58.5t-165 -52q-201 -408 -109 -500q61 -61 164 4.5t244 225.5l25 -37q-49 -59 -86 -103.5t-82 -94.5t-82 -85t-77 -70.5t-75 -55t-69.5 -32 t-66.5 -11.5t-60 18q-59 41 -72.5 104t19 161.5t82.5 196t145 256.5q-154 -27 -226 54l17 55q111 -43 276 6q180 307 189 324l55 -27q-114 -205 -145 -264z" glyph-name="uniE021" horiz-adv-x="526" unicode=""/><glyph d="M954 928q37 -115 -6 -258.5t-135 -268.5t-199.5 -226t-209 -150.5t-156.5 -24.5q-63 35 -73.5 94.5t40.5 158.5t92 161.5t142 197.5q33 45 49 68q18 35 -29 31q-86 -4 -221 -97q-125 -84 -176 -182l-72 248q211 168 416 176q139 4 168 -68q20 -47 -21 -108 q-43 -63 -69.5 -107.5t-54 -97.5t-37 -92t-7.5 -77t26.5 -64.5t70.5 -44.5q162 33 286.5 243.5t48.5 462.5z" glyph-name="uniE022" horiz-adv-x="897" unicode=""/><glyph d="M571 190q25 -25 65 -11t76 48.5t91 79.5t109.5 85t130 64.5t153.5 18.5v-233q-111 25 -206 16.5t-159.5 -38.5t-124 -68.5t-98.5 -79.5t-83 -71t-75.5 -40t-80.5 12q-78 53 -44.5 151.5t111.5 191t130 173t12 103.5q-49 25 -114 -2t-152 -111t-142 -146.5t-162 -189.5 q-68 -80 -100 -118l-29 -52l-53 31l825 1497l54 -28l-666 -1209q53 68 97 119t98.5 111.5t100.5 105.5t98 89t98.5 70.5t92.5 45t89 17.5t82 -19q63 -41 51 -100.5t-66.5 -138.5t-115 -149.5t-92.5 -134t-1 -90.5z" glyph-name="uniE023" horiz-adv-x="1196" unicode=""/><glyph d="M600 438l27 -35q-49 -59 -86 -103t-82 -94t-82 -86t-77 -71t-75 -54.5t-69.5 -32.5t-66.5 -11t-60 16q-41 31 -60.5 71t-12.5 97.5t23.5 111.5t61.5 144t85 161t112 193q-43 14 -149.5 55.5t-177.5 62t-175.5 40t-213 6t-222.5 -56.5l43 235q100 35 197.5 38t175 -16 t160.5 -56t144.5 -75t137 -81t131.5 -66q20 35 76.5 133.5t89.5 155.5l57 -20q-31 -55 -160 -291q127 -33 236 16l14 -55q-123 -86 -293 -45q-207 -424 -114 -514q110 -113 405 227z" glyph-name="uniE024" horiz-adv-x="534" unicode=""/><glyph d="M2376 526l45 -39q-51 -61 -121 -116.5t-114 -81t-135 -72.5t-114 -59q-127 -256 -248.5 -440.5t-245.5 -282t-214 -45.5q-82 63 -67.5 154t110.5 202t246.5 223.5t341.5 223.5l116 219q41 82 -22 123q-68 45 -168 -9q-53 -29 -98 -84q-156 -240 -364 -369.5t-331 -70.5 q-63 31 -76.5 114t16.5 197.5t95 257.5q-61 35 -148 52.5t-144.5 19.5t-180.5 2l-362 -659l-58 32l397 721q82 143 101.5 295t-45.5 230q-74 61 -194 28.5t-214 -127.5l-180 230q215 162 409.5 168t297.5 -148q154 -236 -91 -663q193 68 512 14q229 412 553 750l52 -39 q-90 -104 -174 -212t-169 -231t-144.5 -237.5t-94.5 -221t-26.5 -194.5t63.5 -143q55 -37 126.5 -33t163 70.5t164.5 181.5q135 252 304 321q119 51 176 -20q49 -61 10 -178q-57 -143 -141 -318q29 14 93 41t101 46.5t91.5 65t99.5 111.5zM2201.5 868q-61.5 0 -104.5 44 t-43 104q0 61 43 105t104.5 44t105.5 -44t44 -105q0 -59 -44 -103.5t-105.5 -44.5zM1374 -336q51 -49 164 61.5t254 346.5q-225 -139 -342 -246t-76 -162z" glyph-name="uniE025" horiz-adv-x="2260" unicode=""/><glyph d="M2066 408l25 -35q-242 -276 -432.5 -374.5t-296.5 3.5q-147 207 358 592q-225 -104 -309 -47l-2 2q-154 10 -352 -37l-250 -453q-113 -197 -234.5 -318.5t-221 -156.5t-180.5 -20.5t-130 76.5q-51 61 -38 144t64.5 172t150.5 182t219 174t270.5 148.5t304.5 104.5l78 140 q78 141 97 286.5t-44 220.5q-72 61 -187.5 28.5t-205.5 -122.5l-175 223q207 156 395.5 161t289.5 -142q152 -240 -113 -686l-51 -92q129 27 268 32q-14 68 49.5 147t161.5 118l29 -17q-39 -55 45 -94q109 -49 262 -8q68 18 125 53l26 -35q-55 -41 -101 -76.5t-98.5 -78.5 t-92 -81t-78.5 -79t-63.5 -79t-39 -73t-12.5 -67.5t22 -59.5q121 -120 467 224zM762 111l209 376q-217 -63 -391 -158.5t-264.5 -207t-53.5 -209.5q35 -80 120 -89t192.5 67t187.5 221z" glyph-name="uniE026" horiz-adv-x="2017" unicode=""/><glyph d="M504 1099.5q0 -57.5 -40 -96t-97 -38.5q-55 0 -94.5 38.5t-39.5 96t39 96.5t95 39q57 0 97 -39t40 -96.5zM336 807l45 -41q-147 -188 -220 -348t-28 -203q43 -43 133 16.5t199 190.5l41 -27q-162 -221 -305.5 -332.5t-227.5 -66.5q-45 29 -57 78t11.5 116.5t59.5 137 t99.5 158.5t118.5 160t131 161z" glyph-name="i.aalt" horiz-adv-x="417"/></font>
</defs>
</svg>
