<svg xmlns="http://www.w3.org/2000/svg" width="25.306" height="25.361" viewBox="0 0 25.306 25.361">
  <path id="Path_149" data-name="Path 149" d="M21.937,9.068l-5.485-.519a.3.3,0,0,1-.23-.441l2.709-4.8a.189.189,0,0,0-.261-.256L13.927,5.862a.3.3,0,0,1-.446-.222L12.857.168A.18.18,0,0,0,12.7,0a.18.18,0,0,0-.2.112L10.31,5.172a.3.3,0,0,1-.491.083L6.1,1.193a.189.189,0,0,0-.324.169l1.2,5.374a.3.3,0,0,1-.349.356L1.227,6a.189.189,0,0,0-.163.327L5.2,9.967a.3.3,0,0,1-.073.492L.111,12.747a.18.18,0,0,0-.108.2.18.18,0,0,0,.169.157l5.485.519a.3.3,0,0,1,.23.441l-2.709,4.8a.189.189,0,0,0,.261.256l4.743-2.807a.3.3,0,0,1,.446.222l.624,5.472a.189.189,0,0,0,.362.054L11.8,17a.3.3,0,0,1,.491-.083l3.723,4.061a.189.189,0,0,0,.324-.169l-1.2-5.374a.3.3,0,0,1,.349-.356l5.4,1.1a.189.189,0,0,0,.163-.327l-4.132-3.644a.3.3,0,0,1,.073-.492L22,9.429a.189.189,0,0,0-.061-.36Z" transform="translate(0 3.459) rotate(-9)" fill="#29fd3a"/>
</svg>
