<svg xmlns="http://www.w3.org/2000/svg" width="93.405" height="93.609" viewBox="0 0 93.405 93.609">
  <path id="Path_155" data-name="Path 155" d="M3388.3,759.414l-20.244-1.914a1.095,1.095,0,0,1-.85-1.629l10-17.706a.7.7,0,0,0-.963-.944l-17.508,10.36a1.094,1.094,0,0,1-1.645-.819l-2.3-20.2a.7.7,0,0,0-1.335-.2l-8.067,18.666a1.1,1.1,0,0,1-1.812.305l-13.741-14.99a.7.7,0,0,0-1.2.625l4.445,19.836a1.1,1.1,0,0,1-1.286,1.313l-19.937-4.048a.7.7,0,0,0-.6,1.208l15.25,13.45a1.095,1.095,0,0,1-.27,1.817l-18.5,8.444a.7.7,0,0,0,.225,1.331l20.244,1.914a1.095,1.095,0,0,1,.851,1.629l-10,17.706a.7.7,0,0,0,.964.944l17.507-10.359a1.1,1.1,0,0,1,1.646.819l2.3,20.2a.7.7,0,0,0,1.334.2l8.069-18.667a1.094,1.094,0,0,1,1.812-.305l13.741,14.99a.7.7,0,0,0,1.2-.625l-4.446-19.837a1.1,1.1,0,0,1,1.287-1.313l19.936,4.048a.7.7,0,0,0,.6-1.208l-15.25-13.45a1.094,1.094,0,0,1,.269-1.817l18.5-8.444a.7.7,0,0,0-.224-1.33Z" transform="translate(-3380.174 -186.859) rotate(-9)" fill="#f0dedb"/>
</svg>
