<svg xmlns="http://www.w3.org/2000/svg" width="216.617" height="216.617" viewBox="0 0 216.617 216.617">
  <g id="Group_152" data-name="Group 152" transform="translate(-1020.125 -357.649)">
    <path id="Path_105" data-name="Path 105" d="M1268.791,377.151l-59.44,7.789,47.587,36.456-55.363-23.026,23.025,55.363-36.455-47.588-7.788,59.44-7.789-59.44-36.456,47.587,23.026-55.363-55.363,23.025,47.588-36.455-59.439-7.788,59.44-7.789-47.587-36.456,55.363,23.026-23.025-55.363,36.455,47.588,7.788-59.44,7.788,59.44L1224.6,300.57l-23.026,55.363,55.363-23.025-47.587,36.455Z" transform="matrix(0.966, -0.259, 0.259, 0.966, -109.318, 407.157)" fill="#29fd3a"/>
    <path id="Path_4013" data-name="Path 4013" d="M44.64-40.44,41.1-31.56c-14.46-7.14-28.8-6.6-28.8-2.16,0,5.76,27,6.3,25.62,21.24C36.78,1.62,10.8,4.86,0-6.3l3.72-8.16c8.88,7.44,31.74,8.64,31.74,2.94,0-7.92-29.04-7.14-25.5-22.14C12.96-45.12,28.08-48.24,44.64-40.44Zm4.8,36.48A3.969,3.969,0,0,1,45.42,0a3.906,3.906,0,0,1-3.9-3.96,3.906,3.906,0,0,1,3.9-3.96A3.969,3.969,0,0,1,49.44-3.96ZM84.42-32.52c-.72-5.4-3.24-9.36-7.08-11.1s-8.52-1.08-13.08,1.86A31.377,31.377,0,0,0,53.34-28.5,31.114,31.114,0,0,0,50.4-11.52c.72,5.46,3.3,9.36,7.2,11.1a10.093,10.093,0,0,0,4.5.96,15.943,15.943,0,0,0,8.46-2.82A30.883,30.883,0,0,0,81.6-15.54,32.2,32.2,0,0,0,84.42-32.52Zm-29.4,4.8c7.98-16.8,33.42-8.4,24.78,11.4C72.48.54,46.68-10.08,55.02-27.72Zm56.82-15.36-1.62-.9c-6.18,6.18-15.3,8.76-22.68,8.88v7.62c6.66.06,13.02-4.08,19.02-9.9L89.94-7.74H83.4L79.2,0H98.46l3.42-7.74H93.06Z" transform="matrix(0.985, -0.174, 0.174, 0.985, 1065.685, 495.238)"/>
  </g>
</svg>
