<svg xmlns="http://www.w3.org/2000/svg" width="216.617" height="216.617" viewBox="0 0 216.617 216.617">
  <g id="Group_152" data-name="Group 152" transform="translate(-1020.125 -357.649)">
    <path id="Path_105" data-name="Path 105" d="M1268.791,377.151l-59.44,7.789,47.587,36.456-55.363-23.026,23.025,55.363-36.455-47.588-7.788,59.44-7.789-59.44-36.456,47.587,23.026-55.363-55.363,23.025,47.588-36.455-59.439-7.788,59.44-7.789-47.587-36.456,55.363,23.026-23.025-55.363,36.455,47.588,7.788-59.44,7.788,59.44L1224.6,300.57l-23.026,55.363,55.363-23.025-47.587,36.455Z" transform="matrix(0.966, -0.259, 0.259, 0.966, -109.318, 407.157)" fill="#29fd3a"/>
    <text id="S.01" transform="matrix(0.985, -0.174, 0.174, 0.985, 1065.685, 495.238)" font-size="60" font-family="Palmdale-Regular, Palmdale"><tspan x="0" y="0">S.01</tspan></text>
  </g>
</svg>
